<svg xmlns="http://www.w3.org/2000/svg" width="948" height="567" viewBox="0 0 948 567"><title>Asset 17</title><g style="isolation:isolate"><g id="Layer_2" data-name="Layer 2"><g id="Layer_1-2" data-name="Layer 1"><rect y="32.5" width="948" height="502" rx="12" style="fill:#fcaa68"/><path d="M383.13,245v34.87a64.11,64.11,0,0,1-36.72,12.26,51,51,0,0,1-25.18-6.33,47,47,0,0,1-24.46-41.59A45.39,45.39,0,0,1,303.43,220a47.64,47.64,0,0,1,18.29-17.14,53.18,53.18,0,0,1,25.68-6.29A55.82,55.82,0,0,1,367,200.13a54.68,54.68,0,0,1,16.68,9.66l-9.1,11.73a40.2,40.2,0,0,0-12.69-8,39.1,39.1,0,0,0-14.53-2.84,34.71,34.71,0,0,0-17.34,4.45,33.45,33.45,0,0,0-12.52,12.16,33.37,33.37,0,0,0,0,33.88,33.33,33.33,0,0,0,12.55,12.17,35.16,35.16,0,0,0,17.44,4.45,38.42,38.42,0,0,0,10.94-1.68,45.54,45.54,0,0,0,10.75-4.78V245Z"/><path d="M448.32,262.85c-.88.09-2.33.13-4.35.13H421.56v28.48h-16V196.94H444q18.06,0,28.08,8.43t10,23.86q0,11.34-5.08,19.15a29.6,29.6,0,0,1-14.5,11.51l21.16,31.57H465.59Zm12.65-19q5.94-4.81,5.94-14.24,0-9.16-5.94-13.78t-17-4.61H421.56v37.44H444Q455,248.68,461,243.87Z"/><path d="M570.83,202.83A47.17,47.17,0,0,1,588.92,220a47.88,47.88,0,0,1,0,48.48,47.25,47.25,0,0,1-18.09,17.27,54.11,54.11,0,0,1-50.79,0A47.31,47.31,0,0,1,502,268.52a46.16,46.16,0,0,1-6.6-24.32A45.7,45.7,0,0,1,502,220,47.35,47.35,0,0,1,520,202.83a54.41,54.41,0,0,1,50.79,0Zm-42.26,12.5a34.21,34.21,0,0,0-12.42,12.09,32.76,32.76,0,0,0,.06,33.65,34.92,34.92,0,0,0,12.43,12.23,33.58,33.58,0,0,0,50.53-29.1,32.31,32.31,0,0,0-4.52-16.78,33.8,33.8,0,0,0-12.19-12.09,33,33,0,0,0-16.91-4.49A33.53,33.53,0,0,0,528.57,215.33Z"/><path d="M687.86,273.57a33.22,33.22,0,0,1-14.17,13.77q-9.23,4.79-22,4.78t-22-4.78a33.48,33.48,0,0,1-14.21-13.77q-5-9-5-21.26V196.94H626.5v55.37q0,11.87,6.82,18.68t18.55,6.83q11.61,0,18.3-6.76t6.69-18.75V196.94h15.95v55.37Q692.81,264.57,687.86,273.57Z"/><path d="M780.84,205.37q9.79,8.44,9.79,23.86,0,16.1-9.79,24.92T753.25,263H731.5v28.48h-16V196.94h37.7Q771.06,196.94,780.84,205.37ZM731.5,248.68h21.1q11.07,0,16.94-4.81t5.86-14.24q0-9.16-5.86-13.78t-16.94-4.61H731.5Z"/><path d="M854.57,270.1l-9,21.36H828.93l41.72-94.52H887l41.27,94.52h-17l-9-21.36Zm23.8-56.16-17.87,42h35.67Z"/><path d="M296.71,359.78c-.32,0-.86.05-1.61.05h-8.3v10.55h-5.91v-35H295.1q6.69,0,10.4,3.12t3.71,8.84a12.68,12.68,0,0,1-1.88,7.09,10.92,10.92,0,0,1-5.37,4.26l7.84,11.7h-6.69Zm4.69-7a6.39,6.39,0,0,0,2.2-5.28,6.05,6.05,0,0,0-2.2-5.1,10.06,10.06,0,0,0-6.3-1.71h-8.3v13.87h8.3A9.75,9.75,0,0,0,301.4,352.75Z"/><path d="M337.07,347.12q3.12,3.56,3.13,10c0,.44,0,1.15-.1,2.15H320a8.49,8.49,0,0,0,2.91,4.88,8.18,8.18,0,0,0,5.34,1.78,10.74,10.74,0,0,0,4.1-.8,10,10,0,0,0,3.4-2.3l3,3.25a13.65,13.65,0,0,1-4.8,3.32,15.84,15.84,0,0,1-6.19,1.17,14.39,14.39,0,0,1-7.12-1.7,11.92,11.92,0,0,1-4.78-4.74,15.4,15.4,0,0,1,0-14,12.19,12.19,0,0,1,4.78-4.8,14,14,0,0,1,7-1.73Q334,343.57,337.07,347.12ZM333,350a7.46,7.46,0,0,0-5.25-1.85,7.58,7.58,0,0,0-5.23,1.85,8.3,8.3,0,0,0-2.59,5h15.21A7,7,0,0,0,333,350Z"/><path d="M363.33,344.69a12.18,12.18,0,0,1,4.65,3.22l-3.15,3.72a9.83,9.83,0,0,0-7.4-3,7.75,7.75,0,0,0-5.82,2.36,8.46,8.46,0,0,0-2.28,6.14,8.6,8.6,0,0,0,2.22,6.13,7.45,7.45,0,0,0,5.69,2.36q5.1,0,7.83-3.19l3.2,3.19a11.73,11.73,0,0,1-4.67,3.68,16.17,16.17,0,0,1-6.61,1.28,14,14,0,0,1-6.95-1.7,12,12,0,0,1-4.75-4.74,14.21,14.21,0,0,1-1.7-7,14.36,14.36,0,0,1,1.7-7.07,12,12,0,0,1,4.75-4.77,14,14,0,0,1,6.95-1.71A16.9,16.9,0,0,1,363.33,344.69Z"/><path d="M391.83,345.28a12.31,12.31,0,0,1,4.9,4.75,15.09,15.09,0,0,1,0,14.07,12.16,12.16,0,0,1-4.9,4.77,16.2,16.2,0,0,1-14.45,0,12.16,12.16,0,0,1-4.9-4.77,15.09,15.09,0,0,1,0-14.07,12.31,12.31,0,0,1,4.9-4.75,16.12,16.12,0,0,1,14.45,0Zm-13.07,5.65a8.63,8.63,0,0,0-2.28,6.19,8.72,8.72,0,0,0,2.28,6.26,8.33,8.33,0,0,0,11.72,0,8.79,8.79,0,0,0,2.26-6.26,8.61,8.61,0,0,0-2.29-6.2,8.31,8.31,0,0,0-11.69,0Z"/><path d="M446.34,346.33a10.5,10.5,0,0,1,2.6,7.49v16.56h-5.77V355.43a6.57,6.57,0,0,0-1.67-4.78,6.1,6.1,0,0,0-4.62-1.73,6.91,6.91,0,0,0-5.33,2.42,8.83,8.83,0,0,0-2,5.88v13.16h-5.74V355.43a6.53,6.53,0,0,0-1.69-4.78,6,6,0,0,0-4.56-1.73,7,7,0,0,0-5.4,2.42,8.75,8.75,0,0,0-2,5.88v13.16h-5.71V343.76h5.71v5.16q2.65-5.35,9.64-5.35a10.12,10.12,0,0,1,5.93,1.67,8.84,8.84,0,0,1,3.33,4.72c1.62-4.26,5-6.39,10.08-6.39A9.39,9.39,0,0,1,446.34,346.33Z"/><path d="M477,347.12q3.14,3.56,3.13,10c0,.44,0,1.15-.1,2.15H459.92a8.49,8.49,0,0,0,2.91,4.88,8.19,8.19,0,0,0,5.34,1.78,10.82,10.82,0,0,0,4.11-.8,10,10,0,0,0,3.39-2.3l3.05,3.25a13.65,13.65,0,0,1-4.8,3.32,15.83,15.83,0,0,1-6.18,1.17,14.41,14.41,0,0,1-7.13-1.7,12,12,0,0,1-4.78-4.74,15.4,15.4,0,0,1,0-14,12.26,12.26,0,0,1,4.78-4.8,14,14,0,0,1,7-1.73Q473.89,343.57,477,347.12ZM472.89,350a7.46,7.46,0,0,0-5.25-1.85,7.6,7.6,0,0,0-5.23,1.85,8.24,8.24,0,0,0-2.58,5H475A7,7,0,0,0,472.89,350Z"/><path d="M508.85,346.3a10.38,10.38,0,0,1,2.64,7.52v16.56h-5.77V355.43A6.46,6.46,0,0,0,504,350.7a6.26,6.26,0,0,0-4.7-1.74A7.33,7.33,0,0,0,494.1,351a8.13,8.13,0,0,0-2.32,5.2v14.17H486V343.76h5.76v5.11q2.72-5.31,9.79-5.3A9.64,9.64,0,0,1,508.85,346.3Z"/><path d="M544.49,370.38h-5.73v-4.55a9.52,9.52,0,0,1-3.83,3.57,12,12,0,0,1-5.52,1.22,12.7,12.7,0,0,1-6.68-1.72,11.9,11.9,0,0,1-4.47-4.82,15.26,15.26,0,0,1-1.6-7.11,14.88,14.88,0,0,1,1.6-7,11.75,11.75,0,0,1,4.47-4.74,12.67,12.67,0,0,1,6.58-1.7,11.67,11.67,0,0,1,5.56,1.26,10.4,10.4,0,0,1,3.89,3.6V333.27h5.73Zm-8-7a8.75,8.75,0,0,0,2.27-6.23,8.91,8.91,0,0,0-2.27-6.3,8.29,8.29,0,0,0-11.76,0,9,9,0,0,0-2.33,6.29,8.88,8.88,0,0,0,2.33,6.23,8.33,8.33,0,0,0,11.76,0Z"/><path d="M573.62,347.12q3.12,3.56,3.12,10c0,.44,0,1.15-.09,2.15H556.53a8.53,8.53,0,0,0,2.9,4.88,8.22,8.22,0,0,0,5.35,1.78,10.77,10.77,0,0,0,4.1-.8,10.08,10.08,0,0,0,3.4-2.3l3.05,3.25a13.83,13.83,0,0,1-4.8,3.32,15.88,15.88,0,0,1-6.19,1.17,14.43,14.43,0,0,1-7.13-1.7,12,12,0,0,1-4.77-4.74,15.32,15.32,0,0,1,0-14,12.23,12.23,0,0,1,4.77-4.8,14,14,0,0,1,7-1.73C568.39,343.57,571.54,344.75,573.62,347.12ZM569.49,350a7.43,7.43,0,0,0-5.25-1.85A7.56,7.56,0,0,0,559,350a8.25,8.25,0,0,0-2.59,5h15.21A7,7,0,0,0,569.49,350Z"/><path d="M608,370.38h-5.74v-4.55a9.43,9.43,0,0,1-3.82,3.57,12,12,0,0,1-5.53,1.22,12.73,12.73,0,0,1-6.68-1.72,11.81,11.81,0,0,1-4.46-4.82,15.26,15.26,0,0,1-1.6-7.11,14.88,14.88,0,0,1,1.6-7,11.66,11.66,0,0,1,4.46-4.74,12.72,12.72,0,0,1,6.58-1.7,11.68,11.68,0,0,1,5.57,1.26,10.37,10.37,0,0,1,3.88,3.6V333.27H608Zm-8-7a8.71,8.71,0,0,0,2.27-6.23,8.86,8.86,0,0,0-2.27-6.3,8.28,8.28,0,0,0-11.75,0,9,9,0,0,0-2.33,6.29,8.83,8.83,0,0,0,2.33,6.23,8.32,8.32,0,0,0,11.75,0Z"/><path d="M637.44,338.93a3.38,3.38,0,0,0-1,2.69v3.14h6.94v4.33h-6.94v21.29H630.7V349.09h-3.49v-4.33h3.49v-2.58a9.42,9.42,0,0,1,1.28-5,8,8,0,0,1,3.38-3.1,10,10,0,0,1,4.49-1,9.83,9.83,0,0,1,6,1.86l-2.2,4.39A6.1,6.1,0,0,0,640,338,3.74,3.74,0,0,0,637.44,338.93Z"/><path d="M664.85,345.28a12.25,12.25,0,0,1,4.9,4.75,15,15,0,0,1,0,14.07,12.1,12.1,0,0,1-4.9,4.77,16.2,16.2,0,0,1-14.45,0,12.08,12.08,0,0,1-4.89-4.77,15,15,0,0,1,0-14.07,12.22,12.22,0,0,1,4.89-4.75,16.12,16.12,0,0,1,14.45,0Zm-13.07,5.65a8.63,8.63,0,0,0-2.28,6.19,8.72,8.72,0,0,0,2.28,6.26,8.33,8.33,0,0,0,11.72,0,8.79,8.79,0,0,0,2.26-6.26,8.61,8.61,0,0,0-2.28-6.2,8.32,8.32,0,0,0-11.7,0Z"/><path d="M687,345a10.52,10.52,0,0,1,5.49-1.4v5.52a8.9,8.9,0,0,0-6.39,1.84,7.92,7.92,0,0,0-2.79,5.55v13.9H677.5V343.76h5.76v5.33A9.71,9.71,0,0,1,687,345Z"/><path d="M726,367.13q-2.85,3.5-8.79,3.49a10.88,10.88,0,0,1-4.93-1.07A8,8,0,0,1,709,366.6a7.85,7.85,0,0,1-1.15-4.23,7,7,0,0,1,2.65-5.8q2.65-2.13,7.41-2.19h8v-.8a4.93,4.93,0,0,0-1.62-3.94,7,7,0,0,0-4.72-1.41,14,14,0,0,0-7.84,2.69l-2.37-4a27,27,0,0,1,5.48-2.57,19.77,19.77,0,0,1,6-.77c3.4,0,6,.82,7.91,2.48a8.85,8.85,0,0,1,2.86,6.87l0,17.46H726Zm-2.42-2.48A4.92,4.92,0,0,0,726,361v-2.44h-7.2a8.2,8.2,0,0,0-4.17.82,3,3,0,0,0-1.32,2.72,3.45,3.45,0,0,0,1.38,2.88,6,6,0,0,0,3.77,1.08A9.06,9.06,0,0,0,723.59,364.65Z"/><path d="M763.37,367.79a12.47,12.47,0,0,1-1.7,6.6,11.24,11.24,0,0,1-4.82,4.31,16.53,16.53,0,0,1-7.28,1.51,19.34,19.34,0,0,1-11.06-3.49l2.47-4.15a15.87,15.87,0,0,0,4,2.18,13,13,0,0,0,4.39.73,8.77,8.77,0,0,0,6.08-2.05,7.06,7.06,0,0,0,2.27-5.5v-3.37a9,9,0,0,1-3.58,3.36,11.25,11.25,0,0,1-5.24,1.16,12,12,0,0,1-6.26-1.62,11.06,11.06,0,0,1-4.22-4.53,14.46,14.46,0,0,1-1.5-6.72,14.08,14.08,0,0,1,1.5-6.62,10.79,10.79,0,0,1,4.22-4.45,12.28,12.28,0,0,1,6.26-1.57,11,11,0,0,1,5.2,1.18,9.45,9.45,0,0,1,3.62,3.34v-4.33h5.69Zm-7.84-5.52a9.15,9.15,0,0,0,0-11.76,7.21,7.21,0,0,0-5.54-2.28,7.3,7.3,0,0,0-5.54,2.27,8.41,8.41,0,0,0-2.2,5.89,8.51,8.51,0,0,0,2.17,5.88,7.86,7.86,0,0,0,11.09,0Z"/><path d="M791.73,347.12q3.13,3.56,3.13,10c0,.44,0,1.15-.1,2.15H774.64a8.54,8.54,0,0,0,2.91,4.88,8.2,8.2,0,0,0,5.35,1.78,10.77,10.77,0,0,0,4.1-.8,10,10,0,0,0,3.39-2.3l3.05,3.25a13.7,13.7,0,0,1-4.79,3.32,15.91,15.91,0,0,1-6.19,1.17,14.41,14.41,0,0,1-7.13-1.7,12,12,0,0,1-4.77-4.74,15.32,15.32,0,0,1,0-14,12.23,12.23,0,0,1,4.77-4.8,14,14,0,0,1,7-1.73Q788.61,343.57,791.73,347.12ZM787.61,350a7.46,7.46,0,0,0-5.25-1.85,7.6,7.6,0,0,0-5.23,1.85,8.24,8.24,0,0,0-2.58,5h15.21A7,7,0,0,0,787.61,350Z"/><path d="M813.72,344.25a15,15,0,0,1,4.28,2l-2.1,4.25a15.62,15.62,0,0,0-3.83-1.72,13.24,13.24,0,0,0-3.83-.63,5.39,5.39,0,0,0-2.85.65,2.18,2.18,0,0,0-1,2,2.22,2.22,0,0,0,1.22,2.05,22.1,22.1,0,0,0,4.07,1.61,37,37,0,0,1,4.48,1.6,8.07,8.07,0,0,1,3,2.39,6.57,6.57,0,0,1,1.27,4.22,6.72,6.72,0,0,1-2.93,5.92,12.55,12.55,0,0,1-7.27,2,17.86,17.86,0,0,1-5.87-1,13.88,13.88,0,0,1-4.83-2.71l2.06-4.1a12.91,12.91,0,0,0,4.17,2.39,13.56,13.56,0,0,0,4.74.91,6.18,6.18,0,0,0,3.15-.7,2.33,2.33,0,0,0,1.19-2.16,2.44,2.44,0,0,0-.73-1.82,5.34,5.34,0,0,0-1.78-1.14c-.7-.29-1.72-.63-3.05-1a33.26,33.26,0,0,1-4.33-1.58,7.75,7.75,0,0,1-2.86-2.29,6.34,6.34,0,0,1-1.21-4.07,6.6,6.6,0,0,1,2.81-5.78,11.83,11.83,0,0,1,7-2A17.57,17.57,0,0,1,813.72,344.25Z"/><path d="M841,369.89a20.93,20.93,0,0,1-5-1.93l2.29-4.45a13.17,13.17,0,0,0,3.69,1.63,15.32,15.32,0,0,0,4.08.57q4.95,0,7.42-3.39c1.64-2.26,2.42-5.35,2.32-9.25a9.17,9.17,0,0,1-3.82,3.69A12.29,12.29,0,0,1,846.2,358q-5.25,0-8.25-3a11,11,0,0,1-3-8.16,12.44,12.44,0,0,1,1.52-6.25,10.18,10.18,0,0,1,4.3-4.07,15.34,15.34,0,0,1,14.07.61,13.13,13.13,0,0,1,4.94,5.84,22.2,22.2,0,0,1,1.73,9.17,23.67,23.67,0,0,1-1.86,9.72,14.68,14.68,0,0,1-5.27,6.46,14,14,0,0,1-8,2.28A21.89,21.89,0,0,1,841,369.89Zm10.38-17.42a6.28,6.28,0,0,0,2.62-2.42,6.89,6.89,0,0,0,.1-6.44,6.05,6.05,0,0,0-2.44-2.45,8.17,8.17,0,0,0-4.07-.94,7.34,7.34,0,0,0-5.17,1.77,6.33,6.33,0,0,0-1.93,4.92,6.18,6.18,0,0,0,1.83,4.73,7.09,7.09,0,0,0,5,1.72A8.76,8.76,0,0,0,851.33,352.47Z"/><path d="M866.66,357.12v-4H879v4Z"/><path d="M889.49,370.38V340.61h-6.84v-5.24H895.4v35Z"/><path d="M921.56,336.2a9,9,0,0,1,3.93,3.07,8,8,0,0,1,1.4,4.66,10.61,10.61,0,0,1-1.68,5.34,38.29,38.29,0,0,1-4.74,6.16l-9.08,9.65h17.09v5.3h-24.9v-4.3l12.91-13.84a20.83,20.83,0,0,0,3.1-4,7.16,7.16,0,0,0,1.15-3.5,4,4,0,0,0-1.55-3.29,6.9,6.9,0,0,0-4.31-1.2,11.35,11.35,0,0,0-4.77,1.17,19,19,0,0,0-4.78,3.23L903,340.13a23,23,0,0,1,6.18-3.7,17.6,17.6,0,0,1,6.56-1.31A14.75,14.75,0,0,1,921.56,336.2Z"/><path d="M219.75,274.08s30,66.43,26.86,103c-.79,8.77-7.23-7.25-7.23-7.25s.33,13.07-3.67,13.82-6.28-13.37-6.28-13.37.33,11.6-4.86,12.15c-3.44.37-4.53-14.31-4.53-14.31s-3.58,8.08-6.6,4.69c-3.87-4.36-.1-14.74-.1-14.74s-9.16-37.14-22-66.9l0-.19a56.91,56.91,0,0,0,28.18-17.35Z" style="fill:#f2cabb"/><path d="M220,274.47l-.27-.39-.26-.5a56.91,56.91,0,0,1-28.18,17.35l0,.19c1.06,2.46,1.53,3.48,2.54,6C204.79,292.52,213.18,285,220,274.47Z" style="fill:#650e81;opacity:0.1;mix-blend-mode:multiply"/><path d="M205.89,130.9c-2.89-17.89-15.57-22.52-16.75-26s-7.52-35.83-7.52-35.83l0,0a7.32,7.32,0,0,1-2.24,1.51c-8.37,3.77-23.48-.17-33.89-6.64-.13,3.71-2.26,6.77-8.14,7.52C124.19,73.11,110,67,101.53,61.22c5.61,8.9,10.7,21.84.29,23.19-20.39,2.62-39.27-11.2-47.19-18,.33,3.81,4.93,57.14-12.58,73l-3.84.07c-3.71-1-8.11-1.28-12.21.82a17.69,17.69,0,0,0-7.2,7.32C9,165,25.14,198.45,55.19,185.75c0,0,17.14,12.28,43.61,18.55v0l-.46,1.78L97,220s9.09,9.53,26,7.79,19.47-10.38,19.47-10.38l-1.12-10.18C178.7,202,211.27,164.24,205.89,130.9Z" style="fill:#f2cabb"/><path d="M199.68,48.91C189.53,9.2,111.34-11.32,62.84,6.45s-36,53.72-36,53.72S9.71,64.47,10,86.57c.43,36,15.57,52.84,15.57,52.84l.43.89c4.1-2.1,8.5-1.81,12.21-.82l3.84-.07c17.51-15.86,12.91-69.19,12.58-73,7.92,6.8,26.8,20.62,47.19,18,10.41-1.35,5.32-14.29-.29-23.19h0C110,67,124.19,73.11,137.32,71.43c5.88-.75,8-3.81,8.14-7.52,10.41,6.47,25.52,10.41,33.89,6.64A7.32,7.32,0,0,0,181.59,69c2.75-2.83,1.54-7.43-1.12-11.76C190.78,60.3,202.44,59.71,199.68,48.91Z" style="fill:#845440"/><path d="M164,538.8c30.31.25,31.87.4,34,1.89a27.14,27.14,0,0,1,8.5,5.56c5.09,5.55,10.18,12.94,7,17.73-6.21,9.17-41-6.2-45.78-11.39-1.21-1.31-2.5-6.6-3.74-13.79Z" style="fill:#3fafd1"/><path d="M115.88,540H116c-.33,7.3-1,12.68-2,14.13C110,560,75,572.52,67.6,564.28c-6.86-7.65,13-22.79,13-22.79S106.81,544.28,115.88,540Z" style="fill:#3fafd1"/><path d="M66.81,300.19l-.52-.1a27.53,27.53,0,0,1-4.63,0c-11.23-.89-23.19-7.91-30.57-13.07-4.47-3.12-7.26-5.55-7.26-5.55s17.77-42,32.94-55.47S97,220,97,220s9.09,9.53,26,7.79,19.47-10.38,19.47-10.38,13.43-10.41,32.05-.46,49.82,50.24,49.82,50.24a46.06,46.06,0,0,1-5.06,6.57,56.21,56.21,0,0,1-28,17.21,50.37,50.37,0,0,1-5.62,1.09l-1.48.45c10.41,33.7,22.83,75.17,22.83,75.17s-1.45,2.53-6.27,6.08S187.4,381.93,173.38,386a219.37,219.37,0,0,1-33.3,6.48c-11.92,1.44-29.23,0-45.09-3.06-12-2.26-23.28-5.48-30.7-9-4.83-2.26-8.05-4.69-8.84-7.09C54,368.86,60.71,331.55,66.81,300.19Z" style="fill:#3fafd1"/><path d="M205.53,403.17c-1.28-10.83-2.89-21.15-4.76-29.45-4.93,3.58-13.37,8.21-27.39,12.27a219.37,219.37,0,0,1-33.3,6.48c-11.92,1.44-29.23,0-45.09-3.06-12-2.26-23.28-5.48-30.7-9-.53,4.34-2.34,20.1-3.68,37.67-1.74,22.63-2.69,48.3.92,56.45,1.24,2.75,5.68,4.7,11.66,5.91,12.84,2.66,32.64,2.13,42.65.1,2.83-.53,4.83-1.22,5.75-2,3.45-2.89,2.3-69.88,2.3-69.88l0-.89a91,91,0,0,0,16.78-.26l.07.42s3.9,65.26,5.65,67.55c1.34,1.81,5.25,3,10.47,3.75,11.5,1.54,29.43.62,40.92-1.55,6.07-1.15,10.34-2.66,11-4.36C210.42,468.88,209.17,434,205.53,403.17Z" style="fill:#4370aa"/><path d="M164,538.8h-.06c-3.68-21.25-7.06-59-7.06-59l.06-.59c11.5,1.54,29.43.62,40.92-1.55l.49,63.42C192.48,544,172.26,541.39,164,538.8Z" style="fill:#f2cabb"/><path d="M197.85,482.41l0-4.73c-11.49,2.17-29.42,3.09-40.92,1.55l-.06.59.11,1.21A115.38,115.38,0,0,0,197.85,482.41Z" style="fill:#650e81;opacity:0.1;mix-blend-mode:multiply"/><path d="M80.57,541.49l-7.48-60.65.1-.43c12.84,2.66,32.64,2.13,42.65.1.17,5.68,1.19,39.64.2,59.53h-.16C97.24,549.17,81.66,545.35,80.57,541.49Z" style="fill:#f2cabb"/><path d="M116,484.22c0-1.66-.08-3-.11-3.71-10,2-29.81,2.56-42.65-.1l-.1.43.4,3.23A87.41,87.41,0,0,0,116,484.22Z" style="fill:#650e81;opacity:0.1;mix-blend-mode:multiply"/><path d="M142.12,213.86l-.73-6.67c-1.57.23-3.18.39-4.79.49a129.54,129.54,0,0,1-37.8-3.35l-.46,1.78,0,.16A89.1,89.1,0,0,0,142.12,213.86Z" style="fill:#650e81;opacity:0.1;mix-blend-mode:multiply"/><path d="M36.83,377.4s-.42,14.71-3.91,14.51c-5.18-.33-5.38-11.92-5.38-11.92s-1.61,14.22-5.65,13.66S17.56,380,17.56,380s-3.91,15.89-6.87,7.58c-5-14.08,20.07-100.06,20.07-100.06l.33-.49c7.38,5.16,19.34,12.18,30.57,13.07-9.85,27.26-18.62,67-18.62,67s4.27,10.18.59,14.71C40.77,385.31,36.83,377.4,36.83,377.4Z" style="fill:#f2cabb"/><path d="M60.35,303.82c.43-1.27.87-2.51,1.31-3.73-11.12-.88-22.94-7.77-30.34-12.91C38.87,297,49.25,301.11,60.35,303.82Z" style="fill:#650e81;opacity:0.1;mix-blend-mode:multiply"/><path d="M206.54,367.79s-2.57-7.24-6.15-18.18c-1.75-5.48-3.91-11.84-6-18.72s-4.38-14.2-6.65-21.53-4.37-14.7-6.42-21.59-3.9-13.35-5.52-18.87-3-10-4-13.28l-1.49-5.05,0-.08a.37.37,0,0,1,.26-.48.38.38,0,0,1,.47.23l1.9,4.93c1.13,3.15,3,7.66,4.79,13.12s4,11.81,6.2,18.66l6.75,21.51c2.19,7.35,4.39,14.71,6.45,21.6s3.82,13.37,5.41,18.9c3.11,11.08,5,18.53,5,18.53a.51.51,0,0,1-.37.63A.52.52,0,0,1,206.54,367.79Z" style="fill:#008ba8"/><path d="M76.19,256s-1.11,7.38-3.07,18.4c-1,5.49-2.08,11.93-3.44,18.79S67,307.35,65.6,314.67s-2.79,14.64-4.1,21.5S59,349.42,58.05,354.92,56.33,365,56,368.23c-.18,1.61-.25,2.86-.27,3.71s.1,1.23.1,1.23v.12a.38.38,0,0,1-.75.12s-.12-.49-.26-1.42a33.22,33.22,0,0,1,0-3.85c.15-3.29.53-7.95,1.25-13.52s1.61-12,2.75-18.93l3.79-21.59c1.38-7.32,2.87-14.65,4.29-21.49s2.87-13.2,4-18.67c2.44-10.91,4.25-18.15,4.25-18.15a.52.52,0,0,1,.63-.38A.53.53,0,0,1,76.19,256Z" style="fill:#008ba8"/><path d="M115.9,406.1s2,0,4.92.1l2.38.13.64,0H124s.17,0,0,0h1.77l5.76.11c1,0,1.91-.07,2.85-.09l2.76-.12c.89,0,1.76,0,2.59,0h.61a1.35,1.35,0,0,1,.22,0l.3,0L142,406c2.93-.37,4.9-.51,4.9-.51a.83.83,0,0,1,.88.76.85.85,0,0,1-.58.85s-1.89.58-4.75,1.3l-1.11.27-.29.07a3.65,3.65,0,0,1-.39.05l-.64.07c-.85.09-1.75.21-2.7.27-1.87.13-3.89.33-5.88.4l-5.76-.28-1.35-.07-.33,0-.27,0-.17,0-.63-.1-2.35-.37c-2.9-.48-4.82-.93-4.82-.93a.83.83,0,0,1-.62-1A.84.84,0,0,1,115.9,406.1Z" style="fill:#134c84"/><path d="M95.66,390.33a32.83,32.83,0,0,1-1.79,7A38.84,38.84,0,0,1,90.69,404c-.67,1.19-1.54,2.32-2.36,3.5a32.16,32.16,0,0,1-2.91,3.29,25.05,25.05,0,0,1-3.36,2.83,21.64,21.64,0,0,1-3.62,2.27,17.56,17.56,0,0,1-3.66,1.57c-.59.21-1.16.44-1.73.61l-1.68.35a23.8,23.8,0,0,1-3,.51l-2.29.1-2,.06a.82.82,0,0,1-.84-.79.8.8,0,0,1,.67-.82l.12,0,1.86-.32,2.13-.34c.81-.13,1.69-.5,2.67-.74l1.52-.42c.51-.2,1-.45,1.54-.67a21.59,21.59,0,0,0,3.23-1.61,19.15,19.15,0,0,0,3.21-2.12,23.25,23.25,0,0,0,3-2.64A39.64,39.64,0,0,0,86,405.69c.78-1.08,1.6-2.1,2.26-3.19a51.25,51.25,0,0,0,3.37-6.11A49.48,49.48,0,0,0,94.06,390a.82.82,0,0,1,1.6.31Z" style="fill:#134c84"/><path d="M174.93,387.13a49.48,49.48,0,0,0,2.47,6.39,51.25,51.25,0,0,0,3.37,6.11c.66,1.09,1.48,2.11,2.26,3.18a39.79,39.79,0,0,0,2.71,2.95,22.44,22.44,0,0,0,3,2.63,19.21,19.21,0,0,0,3.21,2.13,21.59,21.59,0,0,0,3.23,1.61c.53.22,1,.47,1.54.66l1.52.43c1,.23,1.86.6,2.67.73l2.13.34,1.86.33.12,0a.82.82,0,0,1-.17,1.62l-2-.06-2.29-.11a22.07,22.07,0,0,1-2.95-.51l-1.68-.35c-.57-.16-1.14-.39-1.73-.6a18.11,18.11,0,0,1-3.66-1.57,22.31,22.31,0,0,1-3.62-2.27,25.13,25.13,0,0,1-3.36-2.84,32.05,32.05,0,0,1-2.91-3.28c-.82-1.18-1.69-2.31-2.36-3.5a39.19,39.19,0,0,1-3.18-6.71,32.83,32.83,0,0,1-1.79-7v0a.82.82,0,0,1,.73-.9A.8.8,0,0,1,174.93,387.13Z" style="fill:#134c84"/><path d="M141.52,122.21c-1.81-4.75-8.07-5.24-14.34-3s-8.69,7.2-7.58,11.18c.92,3.31,4.77,7.14,13.33,4.93S143.08,126.29,141.52,122.21Z" style="fill:#e38394;opacity:0.4;mix-blend-mode:multiply"/><path d="M137.69,117.56a7.1,7.1,0,0,1,3.38,1.65,8,8,0,0,1,2.34,3.18,9,9,0,0,1,.59,2.25c0,.35.08.62.08,1A11.56,11.56,0,0,1,144,127a9.9,9.9,0,0,1-.74,2.25,11.13,11.13,0,0,1-1.18,1.86,13.82,13.82,0,0,1-2.75,2.51,12.72,12.72,0,0,1-3.16,1.62.81.81,0,0,1-.74-1.42l0,0,.67-.53a19.55,19.55,0,0,0,1.69-1.5c1.31-1.28,2.92-3.2,3.21-5.26a3.53,3.53,0,0,1,0-.66c0-.26,0-.64,0-.94a6.91,6.91,0,0,0-.31-1.47,7.93,7.93,0,0,0-1.35-2.44,9.63,9.63,0,0,0-1.53-1.44c-.43-.31-.62-.45-.64-.45l0,0a.83.83,0,0,1,.54-1.51Z" style="fill:#ce8d7e"/><path d="M128.28,135.59c.58-.49-5.38-3.33-6.33-2.22C121.17,134.29,126.26,137.31,128.28,135.59Z" style="fill:#4f3327"/><path d="M96.47,132a8.74,8.74,0,1,0-8.74,8.73A8.73,8.73,0,0,0,96.47,132Z" style="fill:#1e120d"/><path d="M172.7,111.63a8.74,8.74,0,1,0-8.74,8.73A8.74,8.74,0,0,0,172.7,111.63Z" style="fill:#1e120d"/><path d="M88,99.53c-7.35-7.3-22.39,5.79-19.47,11.33C70.9,115.34,94.82,106.31,88,99.53Z" style="fill:#6b4132"/><path d="M147.93,84.76c4.2-9.47,23-2.71,22.26,3.51C169.61,93.3,144,93.53,147.93,84.76Z" style="fill:#6b4132"/><path d="M25.43,161.1a6.73,6.73,0,0,1,.34-1.41,13.09,13.09,0,0,1,1.75-3.4,16.79,16.79,0,0,1,1.81-1.92,12.65,12.65,0,0,1,2.5-1.62,13.61,13.61,0,0,1,3-1l1.6-.21.81-.09.4,0,.2,0,.35,0h.12c.95.17,1.78.2,2.8.46a17.58,17.58,0,0,1,3.15,1.39A16.8,16.8,0,0,1,46.54,155a14.88,14.88,0,0,1,1.7,1.83,19.18,19.18,0,0,1,2,3.07,13.05,13.05,0,0,1,.56,1.3,1.24,1.24,0,0,1-2.08,1.25l-.08-.09-.78-.86a26.54,26.54,0,0,0-2.26-2.13c-.44-.45-1-.76-1.59-1.21a19.27,19.27,0,0,0-1.84-1.07c-.63-.35-1.19-.39-1.77-.7a26.6,26.6,0,0,0-2.65-.36h-.16l.28,0-.14,0-.28,0-.57.06-1.14.1a15.22,15.22,0,0,0-2.09.54,17.88,17.88,0,0,0-1.81.88c-.55.34-1,.78-1.49,1.11s-.79.81-1.15,1.15l-.8,1a9,9,0,0,0-.62.94,1.25,1.25,0,0,1-2.33-.73Z" style="fill:#ce8d7e"/><path d="M15.94,56.5C16.52,55,3.65,47.29,2,52.62,0,59.27,15.37,58.05,15.94,56.5Z" style="fill:#845440"/><path d="M18.24,52.61c2.37.06-1.56-19.09-8.43-18.32S12.55,52.49,18.24,52.61Z" style="fill:#845440"/><path d="M199.69,48.9a12.49,12.49,0,0,1,.58,3.51,6.13,6.13,0,0,1-1.49,4.1,8.83,8.83,0,0,1-5.32,2.61c-4.41.79-9.8,0-15.57-1.94a33.9,33.9,0,0,1-8.75-4.33,8.89,8.89,0,0,1-3.54-4.4l-.12-.85.08-.78a2.06,2.06,0,0,1,1.52-1.66,4.87,4.87,0,0,1,3.24.7,31.17,31.17,0,0,1,8.88,7.87A30.53,30.53,0,0,1,182.63,59a13.63,13.63,0,0,1,1.65,6.58A7.3,7.3,0,0,1,183,69.16a8.17,8.17,0,0,1-2.94,2.38,32,32,0,0,1-3.25,1.14,33.62,33.62,0,0,1-3.58.54,41,41,0,0,1-13.88-1.74,60.81,60.81,0,0,1-13.23-5.58c-4.19-2.46-8.33-5.4-11.33-9.77-.36-.56-.63-1.2-.94-1.8l-.45-.91-.24-1a9.3,9.3,0,0,1-.36-2.14,5.1,5.1,0,0,1,.45-2.49,2.48,2.48,0,0,1,1.47-1.29,2.87,2.87,0,0,1,1.76,0,6.59,6.59,0,0,1,2.12,1.11,17.92,17.92,0,0,1,2.88,2.82,27.4,27.4,0,0,1,4,6.66,15.62,15.62,0,0,1,1.39,8,8.4,8.4,0,0,1-5.15,6.78,14.85,14.85,0,0,1-4,1.09,37.77,37.77,0,0,1-3.83.31,48.81,48.81,0,0,1-14.9-2.1,66,66,0,0,1-13.54-5.73c-4.21-2.45-8.25-5-11.5-8.91A8.23,8.23,0,0,1,93,54.65a3.82,3.82,0,0,1-.31-1.3,2.88,2.88,0,0,1,0-.3v-.11a2,2,0,0,1,.28-.8,1.56,1.56,0,0,1,1.08-.7,1.75,1.75,0,0,1,.8.05,5.31,5.31,0,0,1,2,1.33c.45.44.85.88,1.24,1.33a53,53,0,0,1,4.09,5.58,52.57,52.57,0,0,1,5.83,12,18.8,18.8,0,0,1,1,6.57,7.14,7.14,0,0,1-3.3,6c-2,1.24-4.36,1.24-6.18,1.34-1,0-1.9.13-2.86.13l-2.89-.17a54.15,54.15,0,0,1-19.63-5.53A83.79,83.79,0,0,1,60.74,71.9,91.65,91.65,0,0,1,53,65.51C51.28,63.93,50.42,63,50.42,63a.39.39,0,1,1,.56-.55s.86.86,2.59,2.38A89.76,89.76,0,0,0,61.41,71a82.4,82.4,0,0,0,13.35,7.66,54.85,54.85,0,0,0,19.06,4.94l2.69.13c.93,0,1.89-.13,2.84-.18,2-.13,3.74-.21,5.18-1.11,2.92-1.72,2.43-6.27,1.15-10a49.82,49.82,0,0,0-5.74-11.28A48.91,48.91,0,0,0,96,55.92c-.36-.41-.72-.8-1.09-1.15a6.82,6.82,0,0,0-.81-.67,1,1,0,0,0,.38,0,1.09,1.09,0,0,0,.73-.48c.14-.1.18-.61.15-.4v.11c0,.08,0-.24,0-.09a1.13,1.13,0,0,0,.11.36,5.75,5.75,0,0,0,.73,1.16c2.69,3.22,6.7,5.85,10.7,8.11a62.58,62.58,0,0,0,13,5.4,45.77,45.77,0,0,0,14,1.9A18.17,18.17,0,0,0,140.52,69a5.27,5.27,0,0,0,3.35-4.41c.36-4.12-1.9-8.8-4.71-12.33a15,15,0,0,0-2.32-2.33,3.7,3.7,0,0,0-1.1-.63c-.31,0,.21-.12.14-.15a2.26,2.26,0,0,0-.12,1.08,8.88,8.88,0,0,0,.26,1.45l.15.74.36.72c.25.48.44,1,.73,1.44,2.48,3.69,6.33,6.57,10.28,8.91a57.7,57.7,0,0,0,12.57,5.41,38.74,38.74,0,0,0,13,1.76c1-.06,2-.27,3-.37.95-.26,2.23-.67,2.95-1a6,6,0,0,0,2.09-1.59A5,5,0,0,0,182,65.4c.14-3.66-2.14-7.39-4.4-10.4a29.37,29.37,0,0,0-8.09-7.52,3.61,3.61,0,0,0-2-.61c-.21,0-.1.1-.24.17s-.06.55-.08.56l.07.46a7.42,7.42,0,0,0,2.84,3.51,33,33,0,0,0,8.24,4.29c5.56,2,10.8,2.8,14.94,2.25A8.6,8.6,0,0,0,198.23,56a5.79,5.79,0,0,0,1.63-3.61A13,13,0,0,0,199.69,48.9Z" style="fill:#683d2d"/><path d="M81.84,541.22c.3.4.59.87.91,1.22a10,10,0,0,0,1,.92,9.44,9.44,0,0,0,1.19.79l1.27.63-1.66,1.07c-.28-1.74-.55-3.5-.87-5.17A23.63,23.63,0,0,0,82.54,536c-.13-.3-.28-.49-.25-.5a1.67,1.67,0,0,0,.38-.06l-.66.14c-.07.19-.08,0-.31.35a2.31,2.31,0,0,0-.45.84c-.14.1-.15.79-.23,1.16s0,.71,0,1.09a7.6,7.6,0,0,0,.8,2.24Zm-1.38.89-.66-1.33-.46-1.41c-.1-.51-.16-1.07-.22-1.57a6.42,6.42,0,0,1,.09-1.5,4.41,4.41,0,0,1,.55-1.61,3.66,3.66,0,0,1,1.55-1.52l.63-.24a2.26,2.26,0,0,1,1.65.19,3.69,3.69,0,0,1,1.49,1.49,14.82,14.82,0,0,1,1.61,5.63,46,46,0,0,1,.15,5.49v.21a1.06,1.06,0,0,1-1,1.06,1,1,0,0,1-.62-.2l-1.37-1c-.44-.33-.82-.76-1.25-1.11s-.76-.87-1.15-1.28-.6-.86-.91-1.28Z" style="fill:#1c71b5"/><path d="M91,544.42c-.69.28-1.34.58-2,.84l-2.35.63a.9.9,0,0,1-1.12-.64.93.93,0,0,1,0-.55l.07-.18c.33-.91.67-1.91,1.05-2.8s.78-1.83,1.24-2.73a18.2,18.2,0,0,1,1.61-2.63,11.22,11.22,0,0,1,1.08-1.25A5,5,0,0,1,92.2,534a2.88,2.88,0,0,1,1.44-.22,2.73,2.73,0,0,1,1,.3l.3.21a3.48,3.48,0,0,1,1.27,2.12,5.94,5.94,0,0,1-.54,3.56,10.15,10.15,0,0,1-4.56,4.47Zm-.67-1.5a7.5,7.5,0,0,0,2-1.6,5.45,5.45,0,0,0,1.21-2.19,3.52,3.52,0,0,0,0-2.13c-.07-.24-.35-.44-.19-.32l-.33-.17c.27.15.15.1.26.12s.12,0,0,.06a6.88,6.88,0,0,0-1.45,1.54c-.54.69-1,1.46-1.57,2.23s-1.06,1.57-1.55,2.38-.94,1.6-1.42,2.46l-1-1.38,2-.27a6.84,6.84,0,0,0,1-.35Z" style="fill:#1c71b5"/><path d="M77,544.62a4.56,4.56,0,0,1,.93-.24A14.91,14.91,0,0,1,80.5,544a24.67,24.67,0,0,1,3.63,0,29.93,29.93,0,0,1,4.1.85l2,.75a10.26,10.26,0,0,1,1.85.91c.6.32,1.13.69,1.65,1a5.94,5.94,0,0,1,1.37,1.06c1.57,1.48,2.49,2.52,2.49,2.52a.81.81,0,0,1-1,1.25l-.14-.08s-1.18-.65-2.77-1.7a4.92,4.92,0,0,0-1.34-.75c-.49-.23-1-.44-1.55-.71a7.82,7.82,0,0,0-1.67-.73l-1.8-.57a35.23,35.23,0,0,0-3.6-.92c-1.19-.09-2.29-.43-3.26-.45s-1.77-.2-2.31-.2-.92,0-.92,0a.82.82,0,0,1-.82-.82.83.83,0,0,1,.49-.76Z" style="fill:#1c71b5"/><path d="M72.61,549.4a4,4,0,0,1,.82-.3,11.67,11.67,0,0,1,2.32-.49,17.87,17.87,0,0,1,3.32-.07,18.4,18.4,0,0,1,3.75.81l1.81.73a9.72,9.72,0,0,1,1.64.94,11.3,11.3,0,0,1,2.6,2.06c1.32,1.44,2.07,2.44,2.07,2.44a.81.81,0,0,1-1.08,1.18l-.14-.08s-1-.63-2.4-1.65a4.94,4.94,0,0,0-1.13-.75c-.44-.22-.91-.42-1.35-.68a7.69,7.69,0,0,0-1.43-.73l-1.57-.53a6.8,6.8,0,0,0-1.57-.49l-1.57-.36c-.52-.08-1-.11-1.5-.2a8.55,8.55,0,0,0-1.37-.15c-.85,0-1.56-.12-2-.09a6,6,0,0,0-.82,0,.82.82,0,0,1-.47-1.53Z" style="fill:#1c71b5"/><path d="M193.18,543.74s-.07-.43-.2-1.18l-.21-1.35a16.48,16.48,0,0,1-.21-1.81,24.84,24.84,0,0,1,0-4.64,9.31,9.31,0,0,1,.77-2.89,3,3,0,0,1,1.88-1.62l.2,0,.1,0H196l.16,0,.32,0,.32,0a5.51,5.51,0,0,1,.61.28,4,4,0,0,1,1,.74l.57.76a6.89,6.89,0,0,1,.69,1.56A9.57,9.57,0,0,1,200,535a11.28,11.28,0,0,1,0,1.64,9.22,9.22,0,0,1-.73,2.64,10.7,10.7,0,0,1-1.19,2,7.36,7.36,0,0,1-1.35,1.48,6.07,6.07,0,0,1-1.15.92l-1.06.7a.81.81,0,0,1-1.12-.23.83.83,0,0,1,.08-1l.08-.08.77-.82A10.07,10.07,0,0,0,196,540a8.77,8.77,0,0,0,.78-1.69,9.25,9.25,0,0,0,.34-1.89c0-.31,0-.54,0-.82a8,8,0,0,0-.26-1.09c-.15-.24-.2-.6-.37-.76a2,2,0,0,1-.22-.27c-.07-.09,0,0,0,0a.3.3,0,0,0,.07-.08l-.32-.06-.32,0-.16,0H196c.25-.1.17-.16,0,0a6.66,6.66,0,0,0-.54,1.9c-.21,1.45-.39,2.94-.44,4.18s-.1,2.35-.13,3.09-.08,1.19-.08,1.19a.83.83,0,0,1-.87.78A.85.85,0,0,1,193.18,543.74Z" style="fill:#1c71b5"/><path d="M186.88,540.34l.75.45a3.17,3.17,0,0,0,.75.39,8.37,8.37,0,0,0,1.47.43,12.21,12.21,0,0,0,1.6.16l1.62,0-1,1.82-3-4a28.45,28.45,0,0,0-3.11-3.54,3.44,3.44,0,0,0-.65-.5c-.19-.06,0-.08,0-.14-.1.1-.47.33-.36.34s0,0,0,.09a2.37,2.37,0,0,0-.1.87,4.13,4.13,0,0,0,.64,2,7.42,7.42,0,0,0,1.55,1.67Zm-.9,1.36h0l-1.09-.91-.95-1.09a7.33,7.33,0,0,1-1.24-2.73,4.52,4.52,0,0,1-.05-1.69,3.81,3.81,0,0,1,.46-1.08,2.35,2.35,0,0,1,.48-.61A2.49,2.49,0,0,1,186,533a5.53,5.53,0,0,1,1.58.75,16.39,16.39,0,0,1,3.86,4,35.58,35.58,0,0,1,2.68,4.58l.1.19a1.12,1.12,0,0,1-.45,1.51,1.15,1.15,0,0,1-.67.12l-1.89-.25a14.23,14.23,0,0,1-1.84-.49,11.37,11.37,0,0,1-1.83-.75,14.12,14.12,0,0,1-1.53-.93Z" style="fill:#1c71b5"/><path d="M202.47,543c-.69.13-1.41.25-2.05.42s-1.33.31-2,.48a17,17,0,0,0-2,.6l-1.94.61a1.69,1.69,0,0,1-.5.08h0l.5-.08-1.39.62c-.45.23-1,.34-1.39.6l-1.33.72a8.45,8.45,0,0,0-1.3.78c-.41.29-.84.57-1.26.85a8.47,8.47,0,0,0-1.24.89c-.76.68-1.54,1.36-2.39,2l-.11.09a.82.82,0,0,1-1.18-1.09c.62-.94,1.3-1.85,2-2.76a9.88,9.88,0,0,1,1.22-1.2l1.29-1.15a10.44,10.44,0,0,1,1.43-1l1.48-.89a25.93,25.93,0,0,1,3.16-1.36,1.27,1.27,0,0,1,.47-.09H194l-.5.08,2.2-.58a11.16,11.16,0,0,1,2.23-.36,14.27,14.27,0,0,1,2.27-.14,15,15,0,0,1,2.24.17.83.83,0,0,1,0,1.64Z" style="fill:#1c71b5"/><path d="M206.47,547.07s-1.22.23-2.71.61c-.79.23-1.69.49-2.62.84a10,10,0,0,0-1.43.55c-.47.23-.93.48-1.42.69s-.91.53-1.36.77a8.28,8.28,0,0,0-1.28.83c-.74.65-1.59,1.12-2.16,1.7-1.14,1.14-2,1.87-2,1.87l-.11.08a.82.82,0,0,1-1.24-1s.56-1.06,1.59-2.6a7.06,7.06,0,0,1,1-1.12c.38-.38.75-.81,1.19-1.19A10.55,10.55,0,0,1,195.3,548c.52-.32,1-.72,1.57-1s1.15-.5,1.71-.74a11.14,11.14,0,0,1,1.7-.54,15,15,0,0,1,3.12-.51,12.15,12.15,0,0,1,3,.2l.08,0a.83.83,0,0,1,0,1.61Z" style="fill:#1c71b5"/><path d="M98.32,160.16a16.17,16.17,0,1,0-16.39,16A16.17,16.17,0,0,0,98.32,160.16Z" style="fill:#db737a;opacity:0.30000000000000004"/><path d="M202.58,133.89a16.17,16.17,0,1,0-16.38,16A16.16,16.16,0,0,0,202.58,133.89Z" style="fill:#db737a;opacity:0.30000000000000004"/><path d="M112.2,178.39s21.67-19.51,42.46-1.74l.3.59a40.31,40.31,0,0,1-9,3.32,67.31,67.31,0,0,1-34-1.51Z" style="fill:#d35d73"/><path d="M162.24,134.42s2.8,14.51-5,17.11c-7.39,2.46-12.41-6.51-13-7.49a.3.3,0,0,1,0-.1v0c7-2.92,12.81-7.75,17.8-9.92Z" style="fill:#fff"/><path d="M144.28,144c.43,1.22,3.75,11.69-5.65,13.76-8.9,1.94-11.26-10.61-11.26-10.61v-.29a66.05,66.05,0,0,0,10.38-1,31.81,31.81,0,0,0,6.5-2v0A.3.3,0,0,0,144.28,144Z" style="fill:#fff"/><path d="M101.07,148.44c4.4-1.41,10.14-1.51,16.32-1.51v.69s-.14,12.71-8.21,13c-5.65.2-7.82-11.26-7.82-11.26Z" style="fill:#fff"/><path d="M170.26,133.79c14.41,8.71,4.56,33.4-15.3,43.45l-.3-.59c-20.79-17.77-42.46,1.74-42.46,1.74l-.2.66c-11.56-3.68-20.2-10.64-19.28-20.59.5-5.68,3.65-8.61,8.35-10l.29.92s2.17,11.46,7.82,11.26c8.07-.29,8.21-13,8.21-13v-.69c3.25,0,6.63.07,10,0v.29s2.36,12.55,11.26,10.61c9.4-2.07,6.08-12.54,5.65-13.76.56,1,5.58,10,13,7.49,7.79-2.6,5-17.11,5-17.11l-.19-.43C165,132.65,167.73,132.25,170.26,133.79Z" style="fill:#1e120d"/></g></g></g></svg>