<svg xmlns="http://www.w3.org/2000/svg" width="948" height="573" viewBox="0 0 948 573"><title>Asset 16</title><g style="isolation:isolate"><g id="Layer_2" data-name="Layer 2"><g id="Layer_1-2" data-name="Layer 1"><rect y="35.5" width="948" height="502" rx="12" style="fill:#fcaa68"/><path d="M111,247V281.9a60.67,60.67,0,0,1-17.21,8.9,60.35,60.35,0,0,1-19.51,3.36,51,51,0,0,1-25.18-6.33,47,47,0,0,1-24.46-41.59A45.39,45.39,0,0,1,31.27,222a47.64,47.64,0,0,1,18.29-17.14,53.18,53.18,0,0,1,25.68-6.29,55.82,55.82,0,0,1,19.64,3.59,54.68,54.68,0,0,1,16.68,9.66l-9.1,11.73a40.4,40.4,0,0,0-12.69-8,39.29,39.29,0,0,0-14.53-2.83A34.74,34.74,0,0,0,57.9,217.2a33.45,33.45,0,0,0-12.52,12.16,33.37,33.37,0,0,0,0,33.88,33.29,33.29,0,0,0,12.56,12.17,35.1,35.1,0,0,0,17.43,4.45,38.44,38.44,0,0,0,10.94-1.69,45.51,45.51,0,0,0,10.75-4.77V247Z"/><path d="M176.16,264.89c-.88.09-2.33.13-4.35.13H149.4V293.5h-16V199h38.37q18.06,0,28.08,8.44t10,23.86q0,11.34-5.08,19.15a29.61,29.61,0,0,1-14.5,11.51l21.16,31.57H193.43Zm12.66-19q5.93-4.82,5.93-14.24,0-9.16-5.93-13.78t-17-4.61H149.4v37.44h22.41Q182.88,250.72,188.82,245.91Z"/><path d="M298.67,204.87a47.17,47.17,0,0,1,18.09,17.21,47.88,47.88,0,0,1,0,48.48,47.25,47.25,0,0,1-18.09,17.27,54.11,54.11,0,0,1-50.79,0,47.31,47.31,0,0,1-18.06-17.27,46.16,46.16,0,0,1-6.6-24.32,45.7,45.7,0,0,1,6.6-24.23,47.35,47.35,0,0,1,18.06-17.14,54.41,54.41,0,0,1,50.79,0Zm-42.26,12.5A34,34,0,0,0,244,229.46a32.76,32.76,0,0,0,.06,33.65,34.92,34.92,0,0,0,12.43,12.23A33.58,33.58,0,0,0,307,246.24a32.31,32.31,0,0,0-4.52-16.78,33.56,33.56,0,0,0-12.19-12.09,32.94,32.94,0,0,0-16.91-4.49A33.53,33.53,0,0,0,256.41,217.37Z"/><path d="M415.71,275.6a33.32,33.32,0,0,1-14.18,13.78q-9.22,4.78-21.95,4.78t-21.95-4.78a33.42,33.42,0,0,1-14.2-13.78q-5-9-5-21.26V199h15.89v55.37q0,11.86,6.82,18.69t18.55,6.83q11.61,0,18.3-6.76t6.69-18.76V199h15.95v55.37Q420.65,266.61,415.71,275.6Z"/><path d="M508.68,207.41q9.8,8.44,9.79,23.86,0,16.1-9.79,24.92T481.1,265H459.34V293.5H443.39V199H481.1Q498.89,199,508.68,207.41Zm-49.34,43.31h21.1q11.07,0,16.94-4.81t5.86-14.24q0-9.16-5.86-13.78t-16.94-4.61h-21.1Z"/><path d="M633.3,205.27q8.51,6.3,8.5,17.37a20.69,20.69,0,0,1-16.61,21q9.43,1.65,14.87,8t5.44,15.95q0,12.14-9.2,19T611,293.5H569V199H610.1Q624.8,199,633.3,205.27ZM585,238.13h24.33q7.58,0,11.86-3.36a11.15,11.15,0,0,0,4.29-9.3,10.75,10.75,0,0,0-4.26-9.13q-4.25-3.19-11.89-3.19H585Zm0,41.2h24.33q9.42,0,14.63-3.59a11.66,11.66,0,0,0,5.21-10.19,11.26,11.26,0,0,0-5.28-9.79q-5.26-3.58-14.56-3.59H585Z"/><path d="M40.41,363.74c-.33,0-.86.05-1.61.05H30.5v10.55H24.59v-35H38.8q6.69,0,10.4,3.12t3.71,8.84A12.76,12.76,0,0,1,51,358.38a10.92,10.92,0,0,1-5.37,4.26l7.84,11.7H46.81Zm4.69-7a6.4,6.4,0,0,0,2.19-5.27,6.08,6.08,0,0,0-2.19-5.11,10.1,10.1,0,0,0-6.3-1.71H30.5v13.87h8.3A9.79,9.79,0,0,0,45.1,356.71Z"/><path d="M80.77,351.08q3.12,3.56,3.12,10c0,.44,0,1.15-.1,2.15H63.68a8.53,8.53,0,0,0,2.9,4.88,8.22,8.22,0,0,0,5.35,1.78,10.77,10.77,0,0,0,4.1-.8,9.89,9.89,0,0,0,3.39-2.3L82.48,370a13.83,13.83,0,0,1-4.8,3.32,15.91,15.91,0,0,1-6.19,1.17,14.43,14.43,0,0,1-7.13-1.7,12,12,0,0,1-4.77-4.74,15.32,15.32,0,0,1,0-14,12.23,12.23,0,0,1,4.77-4.8,14,14,0,0,1,7-1.73Q77.64,347.53,80.77,351.08ZM76.64,354a7.43,7.43,0,0,0-5.25-1.85A7.56,7.56,0,0,0,66.17,354a8.2,8.2,0,0,0-2.59,5H78.79A7,7,0,0,0,76.64,354Z"/><path d="M107,348.65a12,12,0,0,1,4.65,3.23l-3.14,3.71a9.84,9.84,0,0,0-7.4-3,7.79,7.79,0,0,0-5.83,2.36A8.46,8.46,0,0,0,93,361.08a8.6,8.6,0,0,0,2.22,6.13,7.46,7.46,0,0,0,5.69,2.37c3.4,0,6-1.07,7.84-3.2l3.2,3.2a11.74,11.74,0,0,1-4.68,3.67,16.09,16.09,0,0,1-6.6,1.28,14,14,0,0,1-7-1.7A12,12,0,0,1,89,368.09a14.2,14.2,0,0,1-1.69-7A14.36,14.36,0,0,1,89,354a12.11,12.11,0,0,1,4.75-4.77,14,14,0,0,1,7-1.71A16.81,16.81,0,0,1,107,348.65Z"/><path d="M135.53,349.24a12.22,12.22,0,0,1,4.89,4.75,15,15,0,0,1,0,14.07,12.08,12.08,0,0,1-4.89,4.77,16.22,16.22,0,0,1-14.46,0,12.08,12.08,0,0,1-4.89-4.77,15,15,0,0,1,0-14.07,12.22,12.22,0,0,1,4.89-4.75,16.14,16.14,0,0,1,14.46,0Zm-13.08,5.65a8.63,8.63,0,0,0-2.28,6.19,8.72,8.72,0,0,0,2.28,6.26,7.77,7.77,0,0,0,5.88,2.41,7.65,7.65,0,0,0,5.84-2.41,8.75,8.75,0,0,0,2.26-6.26,8.61,8.61,0,0,0-2.28-6.2,7.68,7.68,0,0,0-5.82-2.39A7.76,7.76,0,0,0,122.45,354.89Z"/><path d="M190,350.29a10.46,10.46,0,0,1,2.6,7.49v16.56h-5.76V359.39a6.63,6.63,0,0,0-1.67-4.78,6.12,6.12,0,0,0-4.63-1.73,6.87,6.87,0,0,0-5.32,2.43,8.74,8.74,0,0,0-2,5.87v13.16h-5.74V359.39a6.59,6.59,0,0,0-1.68-4.78,6.06,6.06,0,0,0-4.57-1.73,7,7,0,0,0-5.39,2.43,8.65,8.65,0,0,0-2,5.87v13.16h-5.72V347.72h5.72v5.16q2.66-5.36,9.64-5.35a10.09,10.09,0,0,1,5.92,1.67,8.73,8.73,0,0,1,3.33,4.73q2.44-6.4,10.09-6.4A9.36,9.36,0,0,1,190,350.29Z"/><path d="M220.71,351.08q3.12,3.56,3.12,10c0,.44,0,1.15-.09,2.15H203.62a8.53,8.53,0,0,0,2.9,4.88,8.22,8.22,0,0,0,5.35,1.78,10.77,10.77,0,0,0,4.1-.8,10,10,0,0,0,3.4-2.3l3,3.25a13.83,13.83,0,0,1-4.8,3.32,15.88,15.88,0,0,1-6.19,1.17,14.43,14.43,0,0,1-7.13-1.7,12,12,0,0,1-4.77-4.74,15.32,15.32,0,0,1,0-14,12.23,12.23,0,0,1,4.77-4.8,14,14,0,0,1,7-1.73Q217.58,347.53,220.71,351.08ZM216.58,354a7.43,7.43,0,0,0-5.25-1.85,7.56,7.56,0,0,0-5.22,1.85,8.2,8.2,0,0,0-2.59,5h15.21A7,7,0,0,0,216.58,354Z"/><path d="M252.54,350.26a10.38,10.38,0,0,1,2.64,7.52v16.56h-5.76V359.39a6.46,6.46,0,0,0-1.7-4.73,6.26,6.26,0,0,0-4.7-1.74A7.29,7.29,0,0,0,237.8,355a8,8,0,0,0-2.32,5.2v14.16h-5.76V347.72h5.76v5.11q2.72-5.29,9.79-5.3A9.62,9.62,0,0,1,252.54,350.26Z"/><path d="M288.19,374.34h-5.74v-4.55a9.43,9.43,0,0,1-3.82,3.57,12,12,0,0,1-5.53,1.22,12.73,12.73,0,0,1-6.68-1.72A11.81,11.81,0,0,1,262,368a15.26,15.26,0,0,1-1.6-7.11,14.81,14.81,0,0,1,1.6-7,11.62,11.62,0,0,1,4.46-4.75,12.72,12.72,0,0,1,6.58-1.7,11.71,11.71,0,0,1,5.57,1.26,10.37,10.37,0,0,1,3.88,3.6V337.23h5.74Zm-8-7a8.79,8.79,0,0,0,2.27-6.24,8.91,8.91,0,0,0-2.27-6.3,8.29,8.29,0,0,0-11.76,0,9.09,9.09,0,0,0-2.33,6.29,9,9,0,0,0,2.33,6.24,8.35,8.35,0,0,0,11.76,0Z"/><path d="M317.31,351.08q3.13,3.56,3.13,10c0,.44,0,1.15-.1,2.15H300.22a8.59,8.59,0,0,0,2.91,4.88,8.2,8.2,0,0,0,5.35,1.78,10.77,10.77,0,0,0,4.1-.8,9.89,9.89,0,0,0,3.39-2.3l3,3.25a13.7,13.7,0,0,1-4.79,3.32,15.91,15.91,0,0,1-6.19,1.17,14.41,14.41,0,0,1-7.13-1.7,12,12,0,0,1-4.77-4.74,15.32,15.32,0,0,1,0-14,12.23,12.23,0,0,1,4.77-4.8,14,14,0,0,1,7-1.73Q314.19,347.53,317.31,351.08ZM313.19,354a7.46,7.46,0,0,0-5.25-1.85,7.6,7.6,0,0,0-5.23,1.85,8.24,8.24,0,0,0-2.58,5h15.21A7,7,0,0,0,313.19,354Z"/><path d="M351.67,374.34h-5.74v-4.55a9.49,9.49,0,0,1-3.82,3.57,12,12,0,0,1-5.53,1.22,12.7,12.7,0,0,1-6.68-1.72,11.9,11.9,0,0,1-4.47-4.82,15.38,15.38,0,0,1-1.6-7.11,14.93,14.93,0,0,1,1.6-7,11.71,11.71,0,0,1,4.47-4.75,12.67,12.67,0,0,1,6.58-1.7,11.71,11.71,0,0,1,5.57,1.26,10.45,10.45,0,0,1,3.88,3.6V337.23h5.74Zm-8-7a8.79,8.79,0,0,0,2.27-6.24,8.91,8.91,0,0,0-2.27-6.3,8.29,8.29,0,0,0-11.76,0,9,9,0,0,0-2.33,6.29,8.92,8.92,0,0,0,2.33,6.24,8.35,8.35,0,0,0,11.76,0Z"/><path d="M381.13,342.89a3.4,3.4,0,0,0-1,2.69v3.15H387v4.32h-6.93v21.29h-5.72V353.05H370.9v-4.32h3.49v-2.59a9.34,9.34,0,0,1,1.29-5,8.06,8.06,0,0,1,3.38-3.1,10,10,0,0,1,4.49-1,9.83,9.83,0,0,1,6,1.86l-2.2,4.39A6.1,6.1,0,0,0,383.7,342,3.77,3.77,0,0,0,381.13,342.89Z"/><path d="M408.55,349.24a12.22,12.22,0,0,1,4.89,4.75,15,15,0,0,1,0,14.07,12.08,12.08,0,0,1-4.89,4.77,16.2,16.2,0,0,1-14.45,0,12.16,12.16,0,0,1-4.9-4.77,15.09,15.09,0,0,1,0-14.07,12.31,12.31,0,0,1,4.9-4.75,16.12,16.12,0,0,1,14.45,0Zm-13.07,5.65a8.6,8.6,0,0,0-2.29,6.19,8.68,8.68,0,0,0,2.29,6.26,7.75,7.75,0,0,0,5.87,2.41,7.65,7.65,0,0,0,5.84-2.41,8.75,8.75,0,0,0,2.26-6.26,8.61,8.61,0,0,0-2.28-6.2,8.33,8.33,0,0,0-11.69,0Z"/><path d="M430.64,348.93a10.58,10.58,0,0,1,5.5-1.4v5.52a8.93,8.93,0,0,0-6.4,1.84,7.91,7.91,0,0,0-2.78,5.55v13.9H421.2V347.72H427v5.33A9.62,9.62,0,0,1,430.64,348.93Z"/><path d="M469.71,371.09q-2.86,3.5-8.79,3.49a10.85,10.85,0,0,1-4.93-1.07,7.75,7.75,0,0,1-4.42-7.18,7,7,0,0,1,2.65-5.8q2.64-2.13,7.41-2.19h8v-.8A4.9,4.9,0,0,0,468,353.6a7,7,0,0,0-4.72-1.41,14,14,0,0,0-7.84,2.69l-2.36-4a27,27,0,0,1,5.48-2.57,20.09,20.09,0,0,1,6-.77c3.4,0,6,.83,7.91,2.48a8.81,8.81,0,0,1,2.85,6.87l.05,17.46h-5.66Zm-2.42-2.48a4.92,4.92,0,0,0,2.37-3.62v-2.45h-7.2a8.24,8.24,0,0,0-4.18.82,3,3,0,0,0-1.32,2.72,3.45,3.45,0,0,0,1.38,2.88,6,6,0,0,0,3.77,1.08A9.09,9.09,0,0,0,467.29,368.61Z"/><path d="M507.06,371.75a12.38,12.38,0,0,1-1.7,6.6,11.12,11.12,0,0,1-4.82,4.31,16.48,16.48,0,0,1-7.27,1.51,19.32,19.32,0,0,1-11.06-3.49l2.46-4.15a15.92,15.92,0,0,0,4,2.18,12.9,12.9,0,0,0,4.38.73,8.75,8.75,0,0,0,6.08-2.05,7,7,0,0,0,2.27-5.5v-3.36a9,9,0,0,1-3.57,3.35,11.15,11.15,0,0,1-5.24,1.16,12,12,0,0,1-6.26-1.62,11,11,0,0,1-4.23-4.53,14.45,14.45,0,0,1-1.5-6.71,14.09,14.09,0,0,1,1.5-6.63,10.81,10.81,0,0,1,4.23-4.45,12.25,12.25,0,0,1,6.26-1.57,11,11,0,0,1,5.2,1.18,9.35,9.35,0,0,1,3.61,3.34v-4.33h5.69Zm-7.84-5.52a9.15,9.15,0,0,0,0-11.75,7.21,7.21,0,0,0-5.54-2.29,7.32,7.32,0,0,0-5.55,2.27,9,9,0,0,0,0,11.77,7.82,7.82,0,0,0,11.08,0Z"/><path d="M535.43,351.08q3.12,3.56,3.12,10c0,.44,0,1.15-.09,2.15H518.34a8.49,8.49,0,0,0,2.91,4.88,8.18,8.18,0,0,0,5.34,1.78,10.77,10.77,0,0,0,4.1-.8,9.84,9.84,0,0,0,3.4-2.3l3,3.25a13.74,13.74,0,0,1-4.8,3.32,15.88,15.88,0,0,1-6.19,1.17,14.43,14.43,0,0,1-7.13-1.7,12,12,0,0,1-4.77-4.74,15.32,15.32,0,0,1,0-14,12.23,12.23,0,0,1,4.77-4.8,14,14,0,0,1,7-1.73Q532.31,347.53,535.43,351.08ZM531.3,354a7.43,7.43,0,0,0-5.25-1.85,7.57,7.57,0,0,0-5.22,1.85,8.25,8.25,0,0,0-2.59,5h15.21A7,7,0,0,0,531.3,354Z"/><path d="M557.42,348.21a15.09,15.09,0,0,1,4.28,2l-2.1,4.25a15.62,15.62,0,0,0-3.83-1.72,13.3,13.3,0,0,0-3.84-.63,5.35,5.35,0,0,0-2.84.65,2.19,2.19,0,0,0-1,2,2.24,2.24,0,0,0,1.22,2,22.58,22.58,0,0,0,4.08,1.61,37,37,0,0,1,4.48,1.6,8.07,8.07,0,0,1,3,2.4,6.6,6.6,0,0,1,1.27,4.21,6.74,6.74,0,0,1-2.93,5.92,12.56,12.56,0,0,1-7.28,2,17.86,17.86,0,0,1-5.87-1,13.83,13.83,0,0,1-4.82-2.71l2-4.1a13.17,13.17,0,0,0,4.18,2.4,13.76,13.76,0,0,0,4.73.9,6.18,6.18,0,0,0,3.15-.7,2.32,2.32,0,0,0,1.2-2.16,2.48,2.48,0,0,0-.73-1.82,5.38,5.38,0,0,0-1.79-1.14c-.7-.29-1.71-.63-3-1a33.61,33.61,0,0,1-4.32-1.58,7.78,7.78,0,0,1-2.87-2.29,6.4,6.4,0,0,1-1.21-4.07,6.64,6.64,0,0,1,2.81-5.78,11.86,11.86,0,0,1,7-2A17.62,17.62,0,0,1,557.42,348.21Z"/><path d="M584.06,374.34V344.58h-6.83v-5.25H590v35Z"/><path d="M618,357a8.47,8.47,0,0,1,2.67,6.53,10.68,10.68,0,0,1-1.58,5.77,10.51,10.51,0,0,1-4.45,3.92,15.23,15.23,0,0,1-6.71,1.39,20.58,20.58,0,0,1-6.39-1,17.76,17.76,0,0,1-5.43-2.75l2.46-4.81a13.16,13.16,0,0,0,4.2,2.69,12.59,12.59,0,0,0,4.74.94,8.24,8.24,0,0,0,5.4-1.62,5.37,5.37,0,0,0,2-4.36,5,5,0,0,0-1.93-4.28,8.81,8.81,0,0,0-5.47-1.48h-4.86v-3.44l9.11-9.82h-14v-5.24H619v3.71l-10,10.79,1.79.22A11.69,11.69,0,0,1,618,357Z"/><path d="M625.88,361.08v-4h12.31v4Z"/><path d="M648.71,374.34V344.58h-6.83v-5.25h12.74v35Z"/><path d="M684.77,341.51a7.89,7.89,0,0,1,3.17,6.63,7.55,7.55,0,0,1-1.36,4.44,8.93,8.93,0,0,1-3.84,3.05,10.37,10.37,0,0,1,5.11,3.41,9.19,9.19,0,0,1-1.77,12.84q-3.63,2.7-9.88,2.7t-9.83-2.67a9.08,9.08,0,0,1-1.69-12.85,10.72,10.72,0,0,1,5.27-3.43,10,10,0,0,1-4-3.19,7.59,7.59,0,0,1-1.42-4.5,7.7,7.7,0,0,1,3.15-6.48c2.1-1.58,4.94-2.38,8.54-2.38S682.65,339.89,684.77,341.51ZM670.42,359.7a5,5,0,0,0-2.08,4.28,5.18,5.18,0,0,0,2,4.41,9.5,9.5,0,0,0,5.81,1.55,9.63,9.63,0,0,0,5.84-1.55,5.17,5.17,0,0,0,2.07-4.41A5,5,0,0,0,682,359.7a9.7,9.7,0,0,0-5.84-1.53A9.57,9.57,0,0,0,670.42,359.7Zm.86-15a4.49,4.49,0,0,0-1.77,3.79,4.43,4.43,0,0,0,1.77,3.77,8,8,0,0,0,4.92,1.33,8.16,8.16,0,0,0,4.95-1.31,4.47,4.47,0,0,0,1.74-3.79,4.52,4.52,0,0,0-1.74-3.79,9.63,9.63,0,0,0-9.87,0Z"/><path d="M834.61,387.3l-.1.94L826.61,516c4.16,6-.57,12.77-.57,12.77s4.24,5.31,1.46,13.22a2.44,2.44,0,0,1-1.63,1.22c-3.3,1.27-10.92,1.5-18,1.1a65.35,65.35,0,0,1-13.15-1.87c-2.22-.64-3.81-1.41-4.43-2.4-3.24-5,1.7-11.12,1.7-11.12-4-5.82.78-12.55.78-12.55-1.52-5.65-10.68-148.34-11.11-154.93,18,6.85,69.3,16.33,100.16,5.63-1.52,5-2.5,8.06-2.5,8.06s8,11.15,21.52,12.78c0,0,2.9-6.31,7-15.78L897.05,520.6a7.14,7.14,0,0,1,1,10s4.53,6.23-.25,9.57a8.71,8.71,0,0,1-1.27.71c-6.35,2.72-22.81,2.2-30.28.34a8,8,0,0,1-3.59-1.52c-2.73-3.13.75-9.26.75-9.26l.29-.2c-3.21-4,1.17-8.45,1.17-8.45l-14.3-133.36C845.36,388.38,839.16,387.81,834.61,387.3Z" style="fill:#4370aa"/><path d="M899.72,534.09a11.85,11.85,0,0,0-1.3-2.92c-8.29,1.69-22.53,1.86-23.53,1.51C881.31,534.92,889.6,536,899.72,534.09Z" style="fill:#650e81;opacity:0.1;mix-blend-mode:multiply"/><path d="M900.87,387.86c-13.49-1.63-21.52-12.78-21.52-12.78s1-3.09,2.5-8.06c4.88-15.8,15.33-50.79,17.76-67.38,3.18-21.8-6.85-43.67-6.85-43.67l-.11-.54c13.68-2.89,24.32-14.6,29-20.68l.65.89s13.51,37.69,11.53,61.16c-1.37,16.3-16.71,53.84-26,75.28C903.77,381.55,900.87,387.86,900.87,387.86Z" style="fill:#f2cabb"/><path d="M922.35,235.72a.44.44,0,0,1,0-.08l-.65-.89c-4.7,6.08-15.34,17.79-29,20.68l.11.54s.64,1.39,1.54,3.82C905.8,254.54,916.64,247.79,922.35,235.72Z" style="fill:#650e81;opacity:0.1;mix-blend-mode:multiply"/><path d="M892.76,256s10,21.87,6.85,43.67c-2.43,16.59-12.88,51.58-17.76,67.38-30.86,10.7-82.15,1.22-100.16-5.63-4.17-1.58-6.57-3-6.55-4.05.69-22,10.5-72.14,17.51-105.48-.53-.21-1-.46-1.53-.7-15.42-7.68-21.5-24.78-23.66-33.58a47,47,0,0,1-1.09-5.45s14.21-14.26,29.6-23.95a28.83,28.83,0,0,1,23.11-3.39l.82.4v1.25s4.8,10,18,9.32,19.51-8.82,19.51-8.82,0-.63-.07-2l1.13-.24s20.45-3.43,36.94,11.63,28.61,35,28.61,35-1,1.65-2.87,4.09c-4.7,6.08-14.82,17.1-28.5,20Z" style="fill:#4cc5d8"/><path d="M907.6,555.69c4.36,7.45,7.19,14.78,4,15.81-4.12,1.36-9.81.79-15.76-.84l.12-.49C897.4,559.29,904.94,556.39,907.6,555.69Z" style="fill:#fff"/><path d="M907.6,555.69c-2.66.7-10.2,3.6-11.61,14.48l-.12.49c-13.23-3.55-27.86-12.24-29.78-16.25-2.71-5.61,0-12.66.18-13.17,7.47,1.86,23.93,2.38,30.28-.34C899.72,543.82,904.14,549.79,907.6,555.69Z" style="fill:#4cc5d8"/><path d="M903.4,111.3a21.28,21.28,0,0,0-1.94-2.24c-6.72-6.53-14.29-3-18.41-.19-15.17-21-12.24-42.3-12.24-42.3l-.11-.14C868,68.81,860.13,74.7,854.27,71c-4.07-2.61-3.11-7.52-1.49-11.34-3.32,4.76-9.61,10.89-19.71,10-5.92-.53-7.65-5.9-7.25-11.92-6.12,7.26-14.53,14-22.9,14.23-6.5.15-9.39-4.21-10.17-9.56-5.78,6.28-13.64,12.24-21.6,14.69l.14.4s-.44,34.32-.95,37.38-6,9.11-6.44,18.46c-.88,20.41,27.33,39,56.06,40.21l-.06,11.25v1.64s4.8,10,18,9.32,19.51-8.82,19.51-8.82,0-.84-.07-2.2c-.1-4.64-.23-15.38.77-20.41a76.9,76.9,0,0,0,20.76-16.44C904.74,154.94,913.53,124.72,903.4,111.3Z" style="fill:#f2cabb"/><path d="M857.92,165.44c.06-.39.12-.77.19-1.11A72,72,0,0,1,820,173.55l0,6.07C834.63,181,849.86,176.69,857.92,165.44Z" style="fill:#650e81;opacity:0.1;mix-blend-mode:multiply"/><path d="M825.89,543.23s3.79,9.76.15,15.17c-2.49,3.72-15.52,8.54-27.65,11.21-2.48-10.77-16-12.73-16-12.73l-.63-.5a136.92,136.92,0,0,1,13-14,65.35,65.35,0,0,0,13.15,1.87c7.05.4,14.67.17,18-1.1Z" style="fill:#4cc5d8"/><path d="M782.36,556.88s13.55,2,16,12.73c-10.91,2.41-21.12,3.07-22.39-.34-1.08-2.95,1.87-8,5.73-12.89Z" style="fill:#fff"/><path d="M724.2,163.83c3.92-2.11,9.12-3.56,13.16-2.26a7.75,7.75,0,0,1,4.41,3.41c5.85,9.27-3.12,18-3.3,22.55s11.31,32.63,17.72,34.89c3.69,1.32,10.52-4.22,11.27-4.84,2.16,8.8,8.24,25.9,23.66,33.58-4.49,4.28-18.24,15.84-34.93,14-20-2.28-36.25-31.64-43.07-58.18-6.5-25.29-3.14-47-.83-48.4,4.56-2.65,11.68,4.87,11.68,4.87Z" style="fill:#f2cabb"/><path d="M785.79,255.65a61.34,61.34,0,0,0,5.33-4.49c-15.42-7.68-21.5-24.78-23.66-33.58l-.42.34C769.08,231.52,774.75,246.83,785.79,255.65Z" style="fill:#650e81;opacity:0.1;mix-blend-mode:multiply"/><path d="M906.6,61.31c-5.24-27.39-28.88-21.68-28.88-21.68s-3.3-30.36-42.89-38.27-85,19.8-88.51,54.57c-.67,6.67,4.2,7,10,4.7-3.48,7.2-4.56,14.41,1.13,16.55,4.34,1.62,9,1.38,13.72-.08,8-2.45,15.82-8.41,21.6-14.69.78,5.35,3.67,9.71,10.17,9.56,8.37-.19,16.78-7,22.9-14.23-.4,6,1.33,11.39,7.25,11.92,10.1.88,16.39-5.25,19.71-10a29.62,29.62,0,0,1,2.89-5.19,26.74,26.74,0,0,1-2.89,5.19c-1.62,3.82-2.58,8.73,1.49,11.34,5.86,3.71,13.68-2.18,16.43-4.56l.11.14s-2.93,21.3,12.24,42.3c4.12-2.83,11.69-6.34,18.41.19l.09-.11S910.92,83.75,906.6,61.31Z" style="fill:#845440"/><path d="M736.42,130.11c6.54,1.9.94,31.41.94,31.41v0c-4-1.3-9.24.15-13.16,2.26l-.23-.43s-7.12-7.52-11.68-4.87c0,0,1.79-26.32,8.05-28.16s6,26.19,6,26.19S729.88,128.24,736.42,130.11Z" style="fill:#f2cabb"/><path d="M800,219.66s-.41,2.15-1.14,5.91-1.73,9.14-3.07,15.57-2.81,13.93-4.43,22-3.3,16.63-4.93,25.22-3.3,17.18-4.71,25.25c-.67,4.05-1.46,7.93-2,11.64s-1.16,7.22-1.69,10.45-.87,6.22-1.24,8.86-.64,4.94-.79,6.84l-.55,6v0a.29.29,0,0,1-.31.26.29.29,0,0,1-.25-.3s.1-2.19.29-6c.07-1.92.2-4.25.5-6.91s.52-5.66.92-8.92.92-6.79,1.42-10.52,1.15-7.65,1.8-11.71c1.34-8.1,2.87-16.73,4.49-25.33s3.43-17.18,5.08-25.22,3.41-15.52,4.87-21.91,2.78-11.71,3.66-15.44l1.4-5.85a.37.37,0,0,1,.45-.27A.36.36,0,0,1,800,219.66Z" style="fill:#008ba8"/><path d="M892.34,255.62s-1.46-1.92-3.47-4.9-4.63-7-7.08-11.13l-3.54-6.08c-1.12-1.95-2.09-3.81-3-5.39-1.69-3.18-2.72-5.35-2.72-5.35a.28.28,0,0,1,.48-.29s1.45,1.92,3.48,4.89c1,1.5,2.19,3.23,3.4,5.13l3.74,6c2.51,4.08,4.86,8.26,6.57,11.43s2.73,5.35,2.73,5.35a.36.36,0,0,1-.18.49A.36.36,0,0,1,892.34,255.62Z" style="fill:#008ba8"/><path d="M828.42,385.93l5.55.63c1.8.19,3.69.32,5.54.48s3.71.31,5.55.34l5.54.22h0a.85.85,0,0,1,.81.76l3.72,33.33c1.21,11.11,2.54,22.21,3.66,33.33l3.44,33.35c1.12,11.12,2.34,22.23,3.36,33.36a.76.76,0,0,1-.2.59,9.18,9.18,0,0,0-.9,1.12,9.36,9.36,0,0,0-.73,1.26,5.45,5.45,0,0,0-.55,2.72,4.05,4.05,0,0,0,.32,1.32,3.55,3.55,0,0,0,.32.61,6.48,6.48,0,0,0,.37.55l.53.58a3.88,3.88,0,0,0,.55.53l1.16.85.07,0a.57.57,0,0,1,.12.81.56.56,0,0,1-.8.13l-1.4-1a3.88,3.88,0,0,1-.59-.55l-.55-.56a8.76,8.76,0,0,1-.53-.73,4.13,4.13,0,0,1-.42-.77,5.43,5.43,0,0,1-.46-1.71,6.64,6.64,0,0,1,.6-3.4,10.15,10.15,0,0,1,.8-1.49,10.7,10.7,0,0,1,1-1.35l-.21.59c-1.36-11.1-2.53-22.21-3.79-33.32l-3.71-33.32c-1.26-11.11-2.32-22.24-3.49-33.35l-3.43-33.36.84.76L845,389c-1.88-.09-3.74-.26-5.59-.48s-3.68-.38-5.57-.62l-5.53-.77a.58.58,0,0,1-.5-.66A.59.59,0,0,1,828.42,385.93Z" style="fill:#134c84"/><path d="M776,569.25l.36.52a6.12,6.12,0,0,0,.56.44,7.61,7.61,0,0,0,.89.39A17.6,17.6,0,0,0,784,571a74.75,74.75,0,0,0,8.75-1.27c3.17-.62,6.58-1.37,9.92-2.24s6.69-1.83,9.78-2.82a76.16,76.16,0,0,0,8.3-3.09c1.15-.57,2.23-1.06,3.11-1.62a8.07,8.07,0,0,0,2-1.67,9.5,9.5,0,0,0,.92-1.5l.28-.57a9.72,9.72,0,0,1-.84,2.28,14.2,14.2,0,0,1-5,4.16c-1.17.65-2.45,1.32-3.83,2s-2.83,1.31-4.39,1.87a98.33,98.33,0,0,1-9.87,3.14,93.14,93.14,0,0,1-10.14,2.07,56.19,56.19,0,0,1-9.06.6,15.64,15.64,0,0,1-6.35-1.21,5.49,5.49,0,0,1-.89-.59,5.71,5.71,0,0,1-.52-.61l-.26-.57a.06.06,0,0,1,0,0Z" style="fill:#0387ab"/><path d="M865.39,552.32a6.59,6.59,0,0,0,1,2.11,19.45,19.45,0,0,0,4.78,3.89,82.17,82.17,0,0,0,7.69,4.35c2.89,1.45,6,2.92,9.22,4.2a86.64,86.64,0,0,0,9.57,3.27,40.24,40.24,0,0,0,8.6,1.63,19.2,19.2,0,0,0,3.46-.11,6.48,6.48,0,0,0,2.51-.76,1.72,1.72,0,0,0,.82-1.35,1.66,1.66,0,0,0-.09-.6s0,0,0,0h0a2.11,2.11,0,0,1,.2.61,2,2,0,0,1-.71,1.7,7.33,7.33,0,0,1-2.59,1.19,14.65,14.65,0,0,1-3.64.55c-5.41.16-12.42-1.45-19-4.07a76.91,76.91,0,0,1-9.34-4.5,62,62,0,0,1-7.52-5A17.4,17.4,0,0,1,866,554.7a8.44,8.44,0,0,1-.61-1.72c-.08-.42-.1-.63-.1-.63a.06.06,0,0,1,0-.08A.07.07,0,0,1,865.39,552.32Z" style="fill:#0387ab"/><path d="M899.35,122l-.55-.71a12.15,12.15,0,0,0-1.69-1.66,8,8,0,0,0-2.73-1.46,8.11,8.11,0,0,0-1.66-.28,10.93,10.93,0,0,0-1.68.08c-.33.09-.79.15-1,.24a7.27,7.27,0,0,0-.68.29,6.64,6.64,0,0,0-1.44.92,13.06,13.06,0,0,0-2.26,2.42,19.67,19.67,0,0,0-1.36,2.08c-.29.51-.45.81-.45.81l0,0a.89.89,0,0,1-1.65-.56,8.37,8.37,0,0,1,.23-1.07,16.15,16.15,0,0,1,1-2.67,12,12,0,0,1,1-1.67,10.77,10.77,0,0,1,1.45-1.72,9.08,9.08,0,0,1,2-1.48,8.45,8.45,0,0,1,1.32-.57c.47-.17.74-.19,1.12-.3a10.65,10.65,0,0,1,2.67-.11,8.74,8.74,0,0,1,2.46.57,9,9,0,0,1,3.55,2.53,10.5,10.5,0,0,1,1.58,2.5,6.79,6.79,0,0,1,.39,1.07.87.87,0,0,1-.44,1.15A.89.89,0,0,1,899.35,122Z" style="fill:#ce8d7e"/><path d="M798.37,111.45a6.25,6.25,0,1,0-6.62,5.84A6.25,6.25,0,0,0,798.37,111.45Z" style="fill:#1e120d"/><path d="M851.14,111.16a6.24,6.24,0,1,0-6.61,5.84A6.23,6.23,0,0,0,851.14,111.16Z" style="fill:#1e120d"/><path d="M814.46,87.66s-6.86,33-5.61,36.39c1.08,3,13.11,5.85,18.15,1.37,2.88-2.55.48-12.07-1.54-20.25C822.7,94.05,820.17,84.52,814.46,87.66Z" style="fill:#e38394;opacity:0.30000000000000004;mix-blend-mode:multiply"/><path d="M824,126.36c-.51-.19,2.81-3.59,3.73-3.07C828.52,123.71,825.82,127,824,126.36Z" style="fill:#4f3327"/><path d="M815,87.78s-.45,2.84-1.13,7.09-1.68,9.9-2.65,15.56c-.49,2.82-1,5.65-1.29,8.29-.17,1.32-.35,2.6-.39,3.76,0,.55,0,1.21.1,1.16a5,5,0,0,0,.46.54,5.89,5.89,0,0,0,.55.44,11.45,11.45,0,0,0,4.49,1.73,13.7,13.7,0,0,0,1.88.24.57.57,0,0,1,.57.59.59.59,0,0,1-.53.57H817a11.82,11.82,0,0,1-2-.06,14.8,14.8,0,0,1-2.34-.42,10.06,10.06,0,0,1-2.94-1.23,7.29,7.29,0,0,1-.75-.56,5.78,5.78,0,0,1-.7-.72,1.9,1.9,0,0,1-.38-.67,3.33,3.33,0,0,1-.12-.6,7.29,7.29,0,0,1-.07-1,36.09,36.09,0,0,1,.22-4c.3-2.71.72-5.56,1.17-8.41,1-5.69,2.11-11.33,3.08-15.54s1.72-7,1.72-7a.59.59,0,0,1,1.15.24Z" style="fill:#ce8d7e"/><path d="M840.44,83.73c3.83-3.23,15.36,2,15.16,7.79-.15,4.47-5.66,1-9.75-.7C843.53,89.84,836.52,87,840.44,83.73Z" style="fill:#6b4132"/><path d="M798.89,83.83c-3.22-3.84-15.48-.66-16.28,5.06-.62,4.43,5.41,2,9.73,1C794.79,89.32,802.18,87.75,798.89,83.83Z" style="fill:#6b4132"/><path d="M802.32,527.87l3.17.18c1,.11,2.07.06,3.24.17s2.45.07,3.7.07,2.53.06,3.69-.06,2.29-.05,3.22-.18c1.86-.22,3.14-.3,3.14-.3h.07a.59.59,0,0,1,.21,1.14s-1.24.4-3.16.89c-1,.23-2.11.36-3.33.52s-2.54.12-3.85.19a18,18,0,0,1-1.95-.08l-1.88-.12c-1.22-.13-2.35-.3-3.31-.48a22.8,22.8,0,0,1-3.18-.79.6.6,0,0,1-.37-.75A.61.61,0,0,1,802.32,527.87Z" style="fill:#134c84"/><path d="M823.62,553.45c0,3.65-2.74,6.57-6,6.53s-5.86-3-5.82-6.69,2.74-6.58,6-6.53S823.67,549.8,823.62,553.45Z" style="fill:#fff"/><path d="M879.73,550.88c-.05,3.65-2.74,6.57-6,6.53s-5.87-3-5.82-6.69,2.74-6.58,6-6.53S879.78,547.23,879.73,550.88Z" style="fill:#fff"/><path d="M794.34,547.46l.06,0,.06,0a.16.16,0,0,0-.1.05c-.05.07,0-.11,0-.36a7,7,0,0,0-.47-2.39,13.35,13.35,0,0,0-1.56-3.15,5.86,5.86,0,0,0-1.16-1.28c-.46-.26-.53-.28-.8-.13.19-.15-.66.52-.4.44a1.3,1.3,0,0,0-.1.42,4.22,4.22,0,0,0,.35,1.6,11.61,11.61,0,0,0,1.86,2.95,7.31,7.31,0,0,0,1.83,1.63,1.47,1.47,0,0,0,.47.21s0,0,0,0Zm.42,1.08a2.3,2.3,0,0,1-.49,0,2.54,2.54,0,0,1-.9-.33,12,12,0,0,1-2.25-1.72,13.3,13.3,0,0,1-2.54-3.07,5.62,5.62,0,0,1-.78-2.43,2.94,2.94,0,0,1,.4-1.65c.09-.15.19-.29.28-.43l.2-.19.2-.19.1-.09.16-.13h0l.05,0,.09,0a2.49,2.49,0,0,1,1.77-.35,3.12,3.12,0,0,1,1.46.7,6.18,6.18,0,0,1,1.49,2,14.69,14.69,0,0,1,1.27,3.75,11.77,11.77,0,0,1,.3,2.83,1.84,1.84,0,0,1-.33,1.05,1,1,0,0,1-.25.23l-.08,0-.06,0Z" style="fill:#0f3359"/><path d="M795.28,548.56l0,0-.06-.06a1.06,1.06,0,0,1-.16-.3,1.87,1.87,0,0,1,0-1.1,12.14,12.14,0,0,1,1.21-2.57,15.1,15.1,0,0,1,2.44-3.13,6.09,6.09,0,0,1,2.06-1.38,3.1,3.1,0,0,1,1.61-.18,2.52,2.52,0,0,1,1.56.92l.07.08,0,0,0,0,.11.17.06.12.13.24.12.25a4.05,4.05,0,0,1,.12.5,3,3,0,0,1-.16,1.69,5.45,5.45,0,0,1-1.54,2,13.24,13.24,0,0,1-3.41,2.07,11.27,11.27,0,0,1-2.69.87,2.56,2.56,0,0,1-.95,0,2.64,2.64,0,0,1-.46-.17Zm.75-.88s0,0,0,0a1.84,1.84,0,0,0,.51,0,7.62,7.62,0,0,0,2.27-.94,11.67,11.67,0,0,0,2.73-2.17,4.46,4.46,0,0,0,.86-1.4,1.34,1.34,0,0,0,0-.43c.22.16-.36-.75-.23-.54-.21-.23-.28-.24-.8-.14a5.56,5.56,0,0,0-1.52.82,13.66,13.66,0,0,0-2.51,2.46,6.94,6.94,0,0,0-1.23,2.1c-.09.24-.06.44-.08.36a.24.24,0,0,0-.08-.09l.05.06,0,0Z" style="fill:#0f3359"/><path d="M786.69,550.09a14.6,14.6,0,0,1,2.75.47,20.5,20.5,0,0,1,5.62,2.44,19.21,19.21,0,0,1,2.6,2.07,8.45,8.45,0,0,1,1,1.14,11,11,0,0,1,.83,1.11,9.35,9.35,0,0,1,1,1.82c.19.46.29.73.29.73a.58.58,0,0,1-1,.56l0-.06-.43-.56a12.37,12.37,0,0,0-1.16-1.43,9.86,9.86,0,0,0-.85-.88c-.29-.31-.67-.58-1-.9a17.59,17.59,0,0,0-2.4-1.74,23.81,23.81,0,0,0-2.61-1.49c-.87-.42-1.68-.84-2.4-1.14-1.44-.63-2.41-1-2.41-1a.59.59,0,0,1,.24-1.14Z" style="fill:#0f3359"/><path d="M789.69,547.24a12.08,12.08,0,0,1,2.69-.12,15.8,15.8,0,0,1,2.74.39,17.25,17.25,0,0,1,3,1,12.46,12.46,0,0,1,1.43.8,11.47,11.47,0,0,1,1.32.92,7.68,7.68,0,0,1,1.09,1,8.76,8.76,0,0,1,.86,1,8.21,8.21,0,0,1,1,1.74c.19.43.29.69.29.69a.58.58,0,0,1-1,.59l-.06-.06-.43-.53-.46-.6c-.21-.21-.45-.44-.69-.71a12.08,12.08,0,0,0-1.86-1.54,9.57,9.57,0,0,0-1.16-.74,12.51,12.51,0,0,0-1.27-.63,17.54,17.54,0,0,0-2.65-1c-.87-.25-1.7-.5-2.43-.65-1.46-.32-2.44-.47-2.44-.47a.59.59,0,0,1-.49-.67A.56.56,0,0,1,789.69,547.24Z" style="fill:#0f3359"/><path d="M897.1,548.36l-.06,0-.08,0a1.82,1.82,0,0,1-.25-.24,2,2,0,0,1-.3-1.06,12.25,12.25,0,0,1,.37-2.82,15.45,15.45,0,0,1,1.38-3.72,6,6,0,0,1,1.54-1.94,3.16,3.16,0,0,1,1.48-.66,2.51,2.51,0,0,1,1.76.4l.09.06.05,0,0,0,.15.12.1.1.19.2.2.2a4.45,4.45,0,0,1,.26.43,2.94,2.94,0,0,1,.37,1.66,5.55,5.55,0,0,1-.85,2.4,13.29,13.29,0,0,1-2.62,3,11.94,11.94,0,0,1-2.29,1.65,2.46,2.46,0,0,1-.91.31,2.66,2.66,0,0,1-.49,0l-.08,0Zm.45-1.08,0,0a1.35,1.35,0,0,0,.47-.2,7.31,7.31,0,0,0,1.88-1.58,12.16,12.16,0,0,0,1.94-2.89,4.54,4.54,0,0,0,.39-1.6,1.57,1.57,0,0,0-.09-.42c.26.08-.57-.61-.39-.45-.27-.16-.34-.14-.8.11a5.45,5.45,0,0,0-1.19,1.24,13.44,13.44,0,0,0-1.65,3.11,7.12,7.12,0,0,0-.53,2.38c0,.25.08.43,0,.37a.14.14,0,0,0-.11-.06Z" style="fill:#0f3359"/><path d="M895.87,547.59l0-.05.05,0a.14.14,0,0,0-.09.08c0,.08,0-.12-.07-.36a7,7,0,0,0-1.17-2.13,13.8,13.8,0,0,0-2.45-2.53,5.58,5.58,0,0,0-1.49-.85c-.51-.12-.59-.11-.8.12.13-.21-.47.68-.25.53a1.19,1.19,0,0,0,0,.43,4.23,4.23,0,0,0,.83,1.42,11.36,11.36,0,0,0,2.66,2.24,7.46,7.46,0,0,0,2.24,1,1.8,1.8,0,0,0,.51.06s.05,0,.05,0Zm.76.88,0,0a2.27,2.27,0,0,1-.47.16,2.4,2.4,0,0,1-1,0,11.83,11.83,0,0,1-2.67-.94,13.65,13.65,0,0,1-3.35-2.16,5.56,5.56,0,0,1-1.48-2.08,2.89,2.89,0,0,1-.12-1.69,3.94,3.94,0,0,1,.14-.49l.13-.25.13-.24.07-.12.11-.16v0l0,0,.07-.08a2.52,2.52,0,0,1,1.58-.87,3.08,3.08,0,0,1,1.61.21,6.19,6.19,0,0,1,2,1.44,14.83,14.83,0,0,1,2.35,3.19,11.87,11.87,0,0,1,1.15,2.6,2,2,0,0,1,0,1.1,1.39,1.39,0,0,1-.17.3l-.06.06,0,0Z" style="fill:#0f3359"/><path d="M905.44,551.32s-1,.34-2.44.94c-.73.28-1.55.67-2.43,1.07a26.31,26.31,0,0,0-2.65,1.42,17.5,17.5,0,0,0-2.44,1.68c-.35.31-.74.56-1,.87a8.87,8.87,0,0,0-.87.86,11.73,11.73,0,0,0-1.2,1.39l-.45.56,0,.06a.56.56,0,0,1-.81.08.57.57,0,0,1-.17-.68l.3-.71a9.86,9.86,0,0,1,1-1.8,10.85,10.85,0,0,1,.85-1.09,8.58,8.58,0,0,1,1.07-1.11,20.09,20.09,0,0,1,2.66-2,20.71,20.71,0,0,1,5.68-2.29,14.49,14.49,0,0,1,2.76-.4.58.58,0,0,1,.6.58A.59.59,0,0,1,905.44,551.32Z" style="fill:#0f3359"/><path d="M902.26,548.41s-1,.12-2.45.4c-.73.13-1.57.35-2.45.58a19.75,19.75,0,0,0-2.67.94,11.77,11.77,0,0,0-1.29.6,9.57,9.57,0,0,0-1.17.71,11,11,0,0,0-1.91,1.49c-.24.26-.49.48-.7.69s-.35.42-.48.59l-.45.51-.06.07a.57.57,0,0,1-.82,0,.57.57,0,0,1-.14-.68l.31-.68a7.91,7.91,0,0,1,1-1.71,9,9,0,0,1,.89-1,6.39,6.39,0,0,1,1.12-1,10.27,10.27,0,0,1,1.33-.89,13.62,13.62,0,0,1,1.47-.76,16.74,16.74,0,0,1,3.06-.94,15.12,15.12,0,0,1,2.74-.31,12.47,12.47,0,0,1,2.69.18.59.59,0,0,1,.45.7A.61.61,0,0,1,902.26,548.41Z" style="fill:#0f3359"/><path d="M746.49,55.94a7.25,7.25,0,0,0,1.11,4.15,4.19,4.19,0,0,0,3.71,1.17,22.47,22.47,0,0,0,8.41-3,44.75,44.75,0,0,0,7.45-5.3,29.27,29.27,0,0,0,3.16-3.24,8.72,8.72,0,0,0,2-3.7c.11-3.14-3.57-.58-5.52,1.32a43.22,43.22,0,0,0-5.84,7,48.82,48.82,0,0,0-4.48,8,21.69,21.69,0,0,0-2.17,8.61,6.24,6.24,0,0,0,1.15,3.84A4.71,4.71,0,0,0,757,76a9.73,9.73,0,0,0,.89.41l1.11.34a19.07,19.07,0,0,0,8.8.29c5.9-1.13,11.36-4.2,16.2-7.88A61.34,61.34,0,0,0,796.65,56a26.58,26.58,0,0,0,4-7.92c.37-1.35.37-2.81-.26-3.52-.79-.89-1.41-.71-2.42.25-1.79,2-2.85,5-3.55,7.88a27.4,27.4,0,0,0-.66,8.87c.31,2.88,1.25,5.81,3.36,7.53a7.54,7.54,0,0,0,3.7,1.6,12.23,12.23,0,0,0,2.06.16,18.61,18.61,0,0,0,2.24-.23c5.76-1,11-4.67,15.36-8.78a61.15,61.15,0,0,0,11.19-14.38,27.92,27.92,0,0,0,1.87-4.06,8.36,8.36,0,0,0,.45-2l0-.35s0-.17,0-.06-.07,0,.18.09l-.26-.11c-.27-.14-.16,0-.16,0a2.81,2.81,0,0,0-1.26.86,10.55,10.55,0,0,0-1.28,1.69,25.17,25.17,0,0,0-2,4,35.43,35.43,0,0,0-2.27,8.73c-.32,3-.3,6.06.83,8.63a6,6,0,0,0,4.53,3.65c.32.05.73.14,1,.15l1.17,0a19.31,19.31,0,0,0,4.42-.32c.71-.19,1.43-.35,2.14-.55l2.07-.81c5.38-2.54,9.48-7.56,11.9-13h0l1.4.76a29.34,29.34,0,0,0-2.28,4,21.59,21.59,0,0,0-1.56,4.28,11.09,11.09,0,0,0-.3,2.19c0,.36,0,.73,0,1.08l.2,1,.41,1a5.51,5.51,0,0,0,.59.84,3.21,3.21,0,0,0,.75.72l.41.34a3.45,3.45,0,0,0,.44.24c.35.16.72.4,1,.51l1,.26a8.24,8.24,0,0,0,2.17.11,11.34,11.34,0,0,0,2.22-.33,19.2,19.2,0,0,0,2.17-.75c.72-.28,1.41-.64,2.11-1s1.36-.76,2-1.17a36,36,0,0,0,3.84-2.77.11.11,0,0,1,.15.16,28.73,28.73,0,0,1-3.54,3.25,23.87,23.87,0,0,1-4.11,2.58,18.93,18.93,0,0,1-2.29.93,12.74,12.74,0,0,1-2.47.51,9.67,9.67,0,0,1-2.57-.08l-1.32-.36a10.16,10.16,0,0,1-1.1-.51,4.67,4.67,0,0,1-.6-.32l-.52-.41a4.46,4.46,0,0,1-1-.91,8.4,8.4,0,0,1-.79-1.09c-.19-.41-.39-.82-.55-1.24l-.28-1.3c0-.43,0-.86-.07-1.3a12.5,12.5,0,0,1,.3-2.53,17.82,17.82,0,0,1,.69-2.4,18.08,18.08,0,0,1,1-2.26,31.7,31.7,0,0,1,2.51-4.22h0a.8.8,0,0,1,1.39.77h0a30.58,30.58,0,0,1-5.08,8.09,23.51,23.51,0,0,1-7.56,5.91l-2.25.91c-.78.24-1.57.42-2.36.63a21.13,21.13,0,0,1-4.82.41l-1.16,0c-.52,0-.88-.12-1.32-.17a8.5,8.5,0,0,1-2.46-.87A8.12,8.12,0,0,1,826,65.73a19,19,0,0,1-1-9.67,37.7,37.7,0,0,1,2.37-9.24,26.84,26.84,0,0,1,2.15-4.33,12.29,12.29,0,0,1,1.53-2A4.26,4.26,0,0,1,833.66,39a2.3,2.3,0,0,1,1,.15l.27.1a2,2,0,0,1,.26.15l.12.1.23.24a2.18,2.18,0,0,1,.47,1c0,.28,0,.54.06.81a9.91,9.91,0,0,1-.56,2.56,28.15,28.15,0,0,1-2,4.39A63,63,0,0,1,822,63.39c-4.58,4.28-9.92,8.22-16.51,9.39-3,.56-7,.32-9.69-2s-3.8-5.8-4.16-9a28.71,28.71,0,0,1,.72-9.61c.82-3.09,1.81-6.2,4.16-8.85a4.5,4.5,0,0,1,2.66-1.45,3.75,3.75,0,0,1,1,.07l.28.09.13,0c.1,0-.1,0,.23.09l.08,0a4,4,0,0,1,1.21,1A4.47,4.47,0,0,1,803,46a9.55,9.55,0,0,1-.33,2.6,28,28,0,0,1-4.38,8.57,63.06,63.06,0,0,1-13.18,13.47c-5,3.76-10.7,6.94-17,8.13a20.93,20.93,0,0,1-9.63-.4l-1.11-.34a12.7,12.7,0,0,1-1.22-.55,6.56,6.56,0,0,1-2-1.72,7.85,7.85,0,0,1-1.49-4.88A23.45,23.45,0,0,1,755,61.6a51.08,51.08,0,0,1,4.68-8.2,45.11,45.11,0,0,1,6.1-7.23,14.22,14.22,0,0,1,4-2.81,3,3,0,0,1,3,.1,1.59,1.59,0,0,1,.51.5l.25.35.13.37a3.07,3.07,0,0,1,.15,1.49,9.91,9.91,0,0,1-2.32,4.43A30.66,30.66,0,0,1,768.11,54a45.49,45.49,0,0,1-7.72,5.43,23.72,23.72,0,0,1-9,3.16,5.21,5.21,0,0,1-4.68-1.84,6.41,6.41,0,0,1-.54-4.81v0a.15.15,0,0,1,.19-.11A.14.14,0,0,1,746.49,55.94Z" style="fill:#683d2d"/><path d="M738.58,185.87a19.83,19.83,0,0,1,1.06-2.85,48.11,48.11,0,0,0,2.79-7.32,13.91,13.91,0,0,0,.42-5,12.15,12.15,0,0,0-1.84-5.13,7,7,0,0,0-4.42-3.15,13.32,13.32,0,0,0-6,.15,23.17,23.17,0,0,0-5.83,2.19,15.71,15.71,0,0,0-4.64,3.56,3.21,3.21,0,0,0-.53.95c0,.07,0,.1,0,.15v0c0-.15,0,0,0,0v.19a2.09,2.09,0,0,0,.09.6,1.94,1.94,0,0,0,1.23,1.38,9.8,9.8,0,0,0,4.71.3,45.51,45.51,0,0,0,7.57-1.79c1.81-.58,2.82-1,2.82-1a.58.58,0,0,1,.75.33.6.6,0,0,1-.29.74s-1,.49-2.81,1.21a39.92,39.92,0,0,1-7.77,2.28,11.4,11.4,0,0,1-5.77-.26,4,4,0,0,1-2.49-2.76,4.18,4.18,0,0,1-.16-.87l0-.19v-.33a2.79,2.79,0,0,1,.09-.6,5,5,0,0,1,.9-1.72,17.9,17.9,0,0,1,5.31-4.17,25.17,25.17,0,0,1,6.38-2.42,14.75,14.75,0,0,1,7,0,9.07,9.07,0,0,1,3.22,1.55,9.72,9.72,0,0,1,2.31,2.6,12.81,12.81,0,0,1,1.88,6,15.69,15.69,0,0,1-.76,5.5,41.78,41.78,0,0,1-3.42,7.29A26.83,26.83,0,0,0,739,186a.23.23,0,0,1-.44-.15Z" style="fill:#ce8d7e"/><path d="M736.78,161.4a150.84,150.84,0,0,0,1.74-15.4,65.71,65.71,0,0,0,.09-7.68,26.26,26.26,0,0,0-.47-3.72,6.84,6.84,0,0,0-1.3-3c-.17-.13-.31-.31-.49-.35s-.26-.12-.16-.08l-.48-.07a2.65,2.65,0,0,0-1,.49,9.3,9.3,0,0,0-1.94,2.84,41.24,41.24,0,0,0-2.47,7.17,133.66,133.66,0,0,0-2.86,15.16,1.09,1.09,0,0,1-2.18-.14,132,132,0,0,0-.74-14.49,45,45,0,0,0-1.28-7,11.11,11.11,0,0,0-1.31-3c-.68-.78-1-1-1.92-.46a6.75,6.75,0,0,0-1.89,2.39,22.75,22.75,0,0,0-1.35,3.24,59.9,59.9,0,0,0-1.82,7,129.27,129.27,0,0,0-2.11,14.41h0a.59.59,0,0,1-1.17-.09,133.84,133.84,0,0,1,1.66-14.64,56.24,56.24,0,0,1,1.73-7.23,24.44,24.44,0,0,1,1.4-3.53,8,8,0,0,1,2.66-3.25,3.16,3.16,0,0,1,2.43-.46,3.9,3.9,0,0,1,2,1.44,12,12,0,0,1,1.67,3.64,46.31,46.31,0,0,1,1.4,7.36,132.33,132.33,0,0,1,.84,14.75l-2.19-.14a123.35,123.35,0,0,1,3-15.44,43.69,43.69,0,0,1,2.66-7.54,11.13,11.13,0,0,1,2.49-3.5A3.75,3.75,0,0,1,736,129l.48.08a2.73,2.73,0,0,1,.75.27,3.86,3.86,0,0,1,1.06.79,8.55,8.55,0,0,1,1.73,4,27.59,27.59,0,0,1,.43,4,69.15,69.15,0,0,1-.24,7.9,149.63,149.63,0,0,1-2.3,15.5.57.57,0,0,1-.68.46A.59.59,0,0,1,736.78,161.4Z" style="fill:#ce8d7e"/><path d="M723.56,163.8l-.95-.74c-.59-.48-1.5-1.11-2.58-1.82a16,16,0,0,0-3.82-1.87,5.75,5.75,0,0,0-2.11-.26c-.62.09-1.42.37-1.4.66a10.8,10.8,0,0,0-.85,2.24c-.23.81-.44,1.64-.61,2.44-.36,1.62-.63,3.15-.87,4.46l-.75,4.43a.21.21,0,0,1-.24.17.22.22,0,0,1-.17-.19s-.18-1.8-.16-4.53a44.25,44.25,0,0,1,.34-4.66,25.86,25.86,0,0,1,.45-2.63,12.3,12.3,0,0,1,.94-2.8,2.93,2.93,0,0,1,.65-.87l.12-.11,0,0,.15-.11h0l.09,0,.39-.18a5.09,5.09,0,0,1,1.61-.45,7,7,0,0,1,3,.38,14.23,14.23,0,0,1,4.27,2.44A19.92,19.92,0,0,1,724.4,163a.58.58,0,0,1-.84.8Z" style="fill:#ce8d7e"/><path d="M715.35,171.57l3.18,1.8a64.94,64.94,0,0,0,7,3.61,14,14,0,0,0,1.9.67,3.66,3.66,0,0,0,1.58.13,1.21,1.21,0,0,0,.19-.08l0,0h0s-.12.11-.06.06h0l0,0,.18-.16a2,2,0,0,0,.44-.5,1.69,1.69,0,0,0,.23-1.15,5.13,5.13,0,0,0-.81-2.13c-.31-.51-.53-.78-.51-.76a.59.59,0,0,1,.09-.83.6.6,0,0,1,.73,0,8,8,0,0,1,.79.78,6.1,6.1,0,0,1,1.43,2.66,3.51,3.51,0,0,1-.24,2.31,4.61,4.61,0,0,1-.73,1.05l-.17.19-.05,0-.09.09,0,0-.18.12a2.5,2.5,0,0,1-.74.35,5.4,5.4,0,0,1-2.63,0,14.88,14.88,0,0,1-2.26-.71,39.72,39.72,0,0,1-10.06-6.5.59.59,0,0,1,.69-1Z" style="fill:#ce8d7e"/><path d="M882.79,33.94c-.39-1.11,8.86-6.46,10-2.63C894.17,36.07,883.19,35.05,882.79,33.94Z" style="fill:#845440"/><path d="M881.19,31.14c-1.7,0,1.29-13.61,6.19-13S885.25,31.11,881.19,31.14Z" style="fill:#845440"/><path d="M799.05,134.09a11.54,11.54,0,1,0-11.7,11.39A11.56,11.56,0,0,0,799.05,134.09Z" style="fill:#db737a;opacity:0.30000000000000004"/><path d="M868.38,130.13a11.84,11.84,0,1,0-12,11.68A11.83,11.83,0,0,0,868.38,130.13Z" style="fill:#db737a;opacity:0.30000000000000004"/><path d="M813.8,140.45l.45.13,1.32.34a40.28,40.28,0,0,0,4.79.87c1,.12,2.07.23,3.21.27.56,0,1.15,0,1.74,0a15.69,15.69,0,0,0,1.81-.05,16.69,16.69,0,0,0,1.86-.17,17.73,17.73,0,0,0,1.88-.27,28.68,28.68,0,0,0,3.73-.94l1.76-.62,1.88-.86a27.18,27.18,0,0,0,3.15-1.84,29.75,29.75,0,0,0,2.76-2.17,28,28,0,0,0,2.25-2.24,26.89,26.89,0,0,0,2.91-3.81c.63-1,.93-1.57.91-1.53a1.17,1.17,0,1,1,2.2.77s-.06.19-.16.55a14.5,14.5,0,0,1-.52,1.44c-.26.6-.58,1.33-1,2.13a22.33,22.33,0,0,1-1.59,2.61,25.92,25.92,0,0,1-5.31,5.58,30,30,0,0,1-3.75,2.44l-1.9.9c-.82.35-1.45.56-2.19.84a25.38,25.38,0,0,1-4.4,1.06,24,24,0,0,1-4.34.34,25,25,0,0,1-4-.26,25.83,25.83,0,0,1-3.52-.69,30.5,30.5,0,0,1-5-1.78c-.59-.26-1-.51-1.35-.68l-.47-.28a1.17,1.17,0,0,1,.91-2.13Z" style="fill:#1e120d"/><path d="M875.87,370.89a39.09,39.09,0,0,0,3.38,4.26c.53.61,1.13,1.26,1.8,1.92s1.4,1.3,2.12,2a38.68,38.68,0,0,0,5.05,3.83,22.7,22.7,0,0,0,2.76,1.63,23,23,0,0,0,2.81,1.32,26.15,26.15,0,0,0,2.73,1,14.83,14.83,0,0,0,2.51.69c.8.16,1.52.38,2.17.48l1.7.21,1.49.21h.06a.58.58,0,0,1-.08,1.16h-1.56l-1.8-.05a22.61,22.61,0,0,1-2.31-.3,16.27,16.27,0,0,1-2.72-.56,18.87,18.87,0,0,1-3-.93,24.36,24.36,0,0,1-3-1.34,25.79,25.79,0,0,1-3-1.68,36,36,0,0,1-9.14-8.5,26.94,26.94,0,0,1-3-4.81h0a.59.59,0,0,1,1-.56Z" style="fill:#134c84"/><path d="M930.12,302.62a3.86,3.86,0,0,1-.36,1.63c-.1.23-.24.45-.38.71a2.57,2.57,0,0,1-.53.72,6,6,0,0,1-1.47,1.27,6.48,6.48,0,0,1-.85.47l-.88.31a4.6,4.6,0,0,1-1.58.31,11.79,11.79,0,0,1-1.55,0,.59.59,0,0,1-.22-1.11l.09-.05a13.58,13.58,0,0,1,1.28-.55l.61-.2a6.14,6.14,0,0,1,.62-.34l.67-.3a3.17,3.17,0,0,0,.62-.41c.2-.14.43-.24.63-.38l.52-.46a9.51,9.51,0,0,0,.9-.89c.2-.31.45-.54.54-.71a2.17,2.17,0,0,0,.21-.31.58.58,0,0,1,1.13.28Z" style="fill:#ce8d7e"/></g></g></g></svg>