<svg xmlns="http://www.w3.org/2000/svg" width="1963.97" height="2323.04" viewBox="0 0 1963.97 2323.04">
  <title>INTRO1</title>
  <g style="isolation: isolate">
    <g id="Layer_2" data-name="Layer 2">
      <g id="Layer_1-2" data-name="Layer 1">
        <g>
          <g>
            <g>
              <path d="M719.12,1237.05s-1.27,25.52-1.45,45.81c-7.63,3-17.66,3.67-21.68,5.37,22,46.83,65.13,23.88,80.6.79-7.25-2.49-15.64-4.21-20.19-6.16-.25-16.51-.79-30.27-1.38-47.33-19.12,1.52-35.9,1.52-35.9,1.52" transform="translate(-15.37)" style="fill: #f4c1a8"/>
              <path d="M753.93,1282.86c-.21-14.4-.69-26.41-1.2-41.3-14,1.12-26.41,1.3-30.11,1.32-.25,7.3-1.63,24.2-2.18,24.37-.13,5.17-.26,10.56-.31,15.61,3.09-5.64,17.06-13.53,33.8,0" transform="translate(-15.37)" style="fill: #eaad85"/>
              <path d="M845.32,1309.09c25.56,10.21,83.64,54.83,112,127.77-30.58,29.77-77.12,35.31-77.12,35.31s-11.23-33.82-22.31-78.05c-12.09-48.33-12.55-85-12.55-85" transform="translate(-15.37)" style="fill: #1f8435"/>
              <path d="M845.32,1309.09c-18.59-10.23-38.82-14.41-71.36-20.21-41.77,43-80.21.14-80.21.14-24.17,8-40.31,15.89-60.75,27-12.7,28.16-20,69.46-26.51,110.58-6.86,43.7-14.61,98.56-21.07,171,94.89,119.9,276.18,66.09,320.11,0-21.56-111.09-32.73-234.31-60.21-288.57" transform="translate(-15.37)" style="fill: #50b148"/>
              <path d="M771.46,1605.07c-74.83,36.45-163.21-31.42-169.14-87.34-4.93,39.81-13.44,128.94-7.42,134.74,17,19.19,151.52,50.59,299.22,6.49,0-88.27-42.78-254.38-49.61-287.16,6.86,102.25,1.73,196.84-73,233.27" transform="translate(-15.37)" style="fill: #0090c3"/>
              <path d="M697.8,1288.88c1.64,11.16,51.34,26.71,73.64-1.86,14.35-.68,27.41,6.27,27.41,6.27s-14.86,36.48-64.58,35.31c-54.12-1.28-62.5-31.13-62.5-31.13s10-11.14,26-8.59" transform="translate(-15.37)" style="fill: #fff"/>
              <path d="M639,1313.73c-24.62,9.29-73.87,35.78-119.89,124.06,31.27,29.08,83.19,38.09,83.19,38.09s6.65-45.36,15.33-90.14c6.48-33.45,21.37-72,21.37-72" transform="translate(-15.37)" style="fill: #1f8435"/>
              <path d="M1046.27,1368.42s-62.28,18.34-112.08,3.16c-66.5-20.26-160.85-52.55-195.68,26,24.06,19,59.54,35.48,59.54,35.48l276.08-13.94s-29.76-19-27.86-50.66" transform="translate(-15.37)" style="fill: #e8d7bc"/>
              <path d="M738.51,1397.55c-5.71-19.64-28.51-60.16-83.59-52.55s-157.68,51.29-221.64,27.23c-2.53,22.79-29.13,50.65-31,50.65S722,1433.65,722,1433.65l17.74-33.56s4.42,17.09-1.27-2.54" transform="translate(-15.37)" style="fill: #e8d7bc"/>
              <path d="M769.86,1387.42c15.18-20.91,48.44-30.4,101.64-15.19s94,22.15,140.59,20.89c-21.23,7.6-80.19.27-113-8.87-103.55-28.82-129.19,3.17-129.19,3.17" transform="translate(-15.37)" style="fill: #c6b496"/>
              <path d="M798,1404.51c14.55-15.82,31.66-19.61,119.69-5.06,65.33,10.81,121.58,5.06,121.58,5.06s-39.27,12-119,0c-105.12-15.82-122.22,0-122.22,0" transform="translate(-15.37)" style="fill: #c6b496"/>
              <path d="M708.74,1387.42c-15.18-20.91-48.44-30.4-101.64-15.19s-94,22.15-140.6,20.89c21.24,7.6,80.19.27,113-8.87,103.56-28.82,129.19,3.17,129.19,3.17" transform="translate(-15.37)" style="fill: #c6b496"/>
              <path d="M680.56,1404.51c-14.56-15.82-31.66-19.61-119.67-5.06-65.35,10.81-121.59,5.06-121.59,5.06s39.26,12,119,0c105.12-15.82,122.22,0,122.22,0" transform="translate(-15.37)" style="fill: #c6b496"/>
              <path d="M793.77,1428.9c-11.4-34.83-85.19-57.32-118.12-2.21,24.7,21.53,40.68,23.59,66.49,24,37.84.69,51.63-21.84,51.63-21.84" transform="translate(-15.37)" style="fill: #00bad4"/>
              <path d="M781.35,1431.67c-9.28-28.36-68.06-45.37-94.87-.51,19.41,22.91,43.81,19.43,54.13,19.59,31.78.47,40.74-19.08,40.74-19.08" transform="translate(-15.37)" style="fill: #006179"/>
              <path d="M1090,1442.26c-3.79,17.11-82.32,269.77-90.55,280.54S894,1765.23,725.84,1753.2c-88.33,13.93-243.8-12-295.71-24.07-7-34.84-54.47-286.87-54.47-286.87l295.1,9.51s10.13,20.26,60.14,25.33,74.73-28.5,74.73-28.5Z" transform="translate(-15.37)" style="fill: #00bad4"/>
              <path d="M1038.91,1517.57c-3.73-30.41-43.43-31.57-48.3,3.48-5.38,38.79,24.7,74.11,19,136.14,21.21-71.23,33.08-108.59,29.29-139.62" transform="translate(-15.37)" style="fill: #91d5e2"/>
              <path d="M1090,1424.14c-1.88,8.52-267.08,75.41-288.12,141.77-21.22,66.95,201.71,133.35,197.57,138.77-8.23,10.76-105.74,28.47-273.57,30.39-119.68-1.26-243.8-12-295.71-24.06-3.33-16.62,226.33-78,215.93-142.49-11.41-70.73-270.4-144.38-270.4-144.38l295.1,9.51s10.13,20.26,60.14,25.32,74.73-28.49,74.73-28.49Z" transform="translate(-15.37)" style="fill: #009bb7"/>
              <path d="M1077.77,1415.12s-266.44,7.12-286.38,7.12c-12.35,28.5-93.55,27.07-114,2.85-57,0-218.47-4.74-288.28-8.07-15.19-.72-16.63,13.29-7.6,13.77,26.7,1.41,275.94,12.34,275.94,12.34s20.87,25.18,76.46,25.18c54.17,0,75.52-26.12,75.52-26.12s242.21-8.54,267.87-9.49c15.19,1,17.57-16.63.46-17.58" transform="translate(-15.37)" style="fill: #00bad4"/>
              <path d="M1049.43,1421c19-.64,19.46,7.43,3.09,7.51s-191.77,5.76-208.89,6.42c-16.47.63-15.83-4.43-1.89-5.69s207.69-8.24,207.69-8.24" transform="translate(-15.37)" style="fill: #91d5e2"/>
              <path d="M416,1422.25c-19-.62-17.49,5.62-1.11,5.7s196.3,8.24,213.41,7,10.78-3.8-3.16-5.08S416,1422.25,416,1422.25" transform="translate(-15.37)" style="fill: #91d5e2"/>
              <path d="M809.44,1442.19c-7,33.87-16.08,279.69-30.4,297.32-24.69,30.39-76.62,30.39-103.23,0,0-129.83-18.35-296.37-18.35-296.37s33.16,26.7,76.46,25.17c49.56-1.74,75.52-26.12,75.52-26.12" transform="translate(-15.37)" style="fill: #0087a0"/>
              <path d="M753.39,1519.14c-.64-34.41-45.59-53.19-48.45,2.85s1.91,199.14,20.9,213.09,29.77-95.63,27.55-215.94" transform="translate(-15.37)" style="fill: #009bb7"/>
              <path d="M733.7,1519.39c23.43,0,44.92-5.67,55.23-15.63a2.38,2.38,0,0,0,.05-3.37,2.35,2.35,0,0,0-3.36-.06c-18.56,18-79.26,20.52-113.58-1.55a2.36,2.36,0,0,0-3.27.7,2.38,2.38,0,0,0,.69,3.3c17.86,11.47,41.93,16.61,64.24,16.61" transform="translate(-15.37)" style="fill: #006179"/>
              <path d="M733.25,1576c21.2,0,40.63-5.13,49.94-14.15a2.14,2.14,0,1,0-3-3.08c-16.78,16.24-71.68,18.55-102.72-1.41a2.15,2.15,0,1,0-2.33,3.61c16.13,10.37,37.91,15,58.09,15" transform="translate(-15.37)" style="fill: #006179"/>
              <path d="M733,1628.05c20.05,0,38.43-4.85,47.24-13.38a2,2,0,0,0,0-2.88,2,2,0,0,0-2.87,0c-15.88,15.35-67.8,17.54-97.17-1.34a2,2,0,0,0-2.2,3.42c15.27,9.81,35.86,14.21,54.95,14.21" transform="translate(-15.37)" style="fill: #006179"/>
              <path d="M732.82,1676.39c19.07,0,36.56-4.63,44.95-12.74a1.93,1.93,0,0,0,0-2.73,2,2,0,0,0-2.75,0c-15.08,14.61-64.48,16.68-92.4-1.25a1.92,1.92,0,0,0-2.67.55,2,2,0,0,0,.58,2.69c14.52,9.33,34.1,13.52,52.25,13.52" transform="translate(-15.37)" style="fill: #006179"/>
              <path d="M732.82,1720.08c19.07,0,36.56-4.61,44.95-12.73a1.94,1.94,0,1,0-2.71-2.78c-15.08,14.61-64.48,16.7-92.4-1.26a1.94,1.94,0,0,0-2.67.56,2,2,0,0,0,.58,2.7c14.52,9.32,34.1,13.51,52.25,13.51" transform="translate(-15.37)" style="fill: #006179"/>
              <g>
                <path d="M378.34,1519.17c-25.85,10.89-20,23.21-10.88,27.23-13,10.61-3.49,21.1,2.74,23-8.37,7.44,0,18.75,8.31,17.94-4.67,8.28,7.15,16.9,20,12.07s30.22-19.28,19.15-27.33c14.26-10,12.1-24.22-4.48-21.2,17.3-3.87,13.83-20.66,1.92-20.1,8.62-8,.47-27.2-36.73-11.61" transform="translate(-15.37)" style="fill: #fbc5a4"/>
                <path d="M418.76,1548.58c.11,0,.18,0,.31,0s.18-.13.23-.16c-.2,0-.31.14-.54.19" transform="translate(-15.37)" style="fill: #fcd8c1"/>
                <path d="M384.13,1585.06c-8.36.78-16.67-10.52-8.3-18-6.21-1.89-15.76-12.37-2.76-23-6.53-2.9-11-11.73-3.45-20.46-6.11,3.8-8.91,7.59-9.58,11a12.36,12.36,0,0,0,7.41,11.7c-13,10.6-3.48,21.1,2.75,23-8.36,7.43,0,18.74,8.31,17.93-4.67,8.28,7.15,16.91,20,12.08,1.41-.54,2.89-1.22,4.35-2-12.31,3.81-23.21-4.36-18.7-12.4" transform="translate(-15.37)" style="fill: #fcd8c1"/>
                <path d="M380.15,1521c19.77-1.67,29.9,10.92,18.16,16.33,10.43-.5,19.57,10.87-5.51,23.44,24.32-8.4,26.06,11.73,2.76,21.51,7.89,5.73,1.54,12-9,13.47a25.2,25.2,0,0,0,11.19-1c11.23-4.26,24.88-13,15.19-20,12.52-8.81,10.07-23.69-4.46-21,13.92-8.49,11-20.84.55-20.37,14.41-6.65,2.59-24.76-28.89-12.4" transform="translate(-15.37)" style="fill: #eaad85"/>
                <path d="M416.81,1530.2a.9.9,0,0,1-.19.15,129.94,129.94,0,0,1-48.52,15.14.66.66,0,1,1-.07-1.32,128.81,128.81,0,0,0,47.94-15,.67.67,0,0,1,.92.27.64.64,0,0,1-.08.73" transform="translate(-15.37)" style="fill: #ce7754"/>
                <path d="M417.49,1550a.74.74,0,0,1-.15.19c-21.16,12.11-46.71,19.81-46.94,19.92a.69.69,0,0,1-.42-1.31c.27-.07,25.67-7.72,46.68-19.76a.66.66,0,0,1,.91.23.6.6,0,0,1-.08.73" transform="translate(-15.37)" style="fill: #ce7754"/>
                <path d="M418.14,1572.51c-.06,0-.07.07-.14.09-18.57,12.9-39.2,15.38-39.4,15.43a.7.7,0,0,1-.74-.59.73.73,0,0,1,.6-.77c.17,0,20.46-2.45,38.78-15.15a.68.68,0,0,1,.94.2.71.71,0,0,1,0,.79" transform="translate(-15.37)" style="fill: #ce7754"/>
              </g>
              <path d="M1047.27,1565.36c25.85,10.87,20,23.18,10.89,27.21,13,10.61,3.48,21.1-2.75,23,8.37,7.46,0,18.72-8.3,18,4.65,8.25-7.13,16.89-20,12s-30.21-19.28-19.14-27.32c-14.27-10-12.13-24.21,4.47-21.22-17.3-3.86-13.83-20.63-1.93-20.06-8.61-8-.5-27.22,36.72-11.61" transform="translate(-15.37)" style="fill: #fbc5a4"/>
              <path d="M1006.88,1594.75a1.69,1.69,0,0,1-.32,0c-.11-.07-.17-.16-.24-.17a4.78,4.78,0,0,1,.56.17" transform="translate(-15.37)" style="fill: #fcd8c1"/>
              <path d="M1041.48,1631.25c8.37.77,16.67-10.54,8.33-18,6.19-1.91,15.73-12.38,2.75-23,6.54-2.91,11-11.74,3.44-20.49,6.12,3.79,8.93,7.6,9.59,11.05a12.36,12.36,0,0,1-7.42,11.69c13,10.6,3.47,21.1-2.76,23,8.37,7.46,0,18.72-8.29,18,4.64,8.24-7.14,16.89-20,12a42.38,42.38,0,0,1-4.35-2c12.28,3.83,23.19-4.36,18.68-12.37" transform="translate(-15.37)" style="fill: #fcd8c1"/>
              <path d="M1045.49,1567.16c-19.77-1.68-29.89,10.91-18.18,16.32-10.43-.5-19.55,10.87,5.53,23.42-24.31-8.39-26.08,11.75-2.76,21.53-7.9,5.73-1.54,12,9,13.47a25,25,0,0,1-11.18-1c-11.25-4.25-24.9-12.92-15.21-20-12.51-8.79-10.1-23.67,4.47-21-13.93-8.47-11-20.82-.55-20.37-14.42-6.62-2.61-24.73,28.89-12.37" transform="translate(-15.37)" style="fill: #eaad85"/>
              <path d="M1008.81,1576.38a.7.7,0,0,0,.17.14,129.88,129.88,0,0,0,48.54,15.15.65.65,0,0,0,.69-.65.63.63,0,0,0-.62-.68,128.67,128.67,0,0,1-47.93-15,.69.69,0,0,0-.93.27.73.73,0,0,0,.08.74" transform="translate(-15.37)" style="fill: #ce7754"/>
              <path d="M1008.11,1596.15a1,1,0,0,1,.18.18c21.17,12.11,46.68,19.83,47,19.9a.65.65,0,0,0,.82-.45.67.67,0,0,0-.44-.85c-.25,0-25.64-7.74-46.66-19.77a.71.71,0,0,0-.92.25.66.66,0,0,0,.06.74" transform="translate(-15.37)" style="fill: #ce7754"/>
              <path d="M1007.5,1618.66a.37.37,0,0,0,.11.13,96.53,96.53,0,0,0,39.43,15.38.65.65,0,1,0,.14-1.29c-.19-.06-20.48-2.47-38.79-15.2a.73.73,0,0,0-.93.19.62.62,0,0,0,0,.79" transform="translate(-15.37)" style="fill: #ce7754"/>
              <path d="M726.07,1741.57S609.82,1630.72,523.74,1635s-89.33,63.49-53.8,97.91,188.32,94.73,188.32,94.73Z" transform="translate(-15.37)" style="fill: #3b2d5d"/>
              <path d="M544.4,1765.3s83.06,19.62,116.52-6.93-33.46-79.59-33.46-79.59,55.39,38.07,101.52,77.29C710.52,1793,655.15,1808,655.15,1808Z" transform="translate(-15.37)" style="fill: #292342"/>
              <path d="M639.72,1859.41l89.65-40.65-35.81-34.68s-22.63,20.43-71,35.5,17.2,39.83,17.2,39.83" transform="translate(-15.37)" style="fill: #fbc5a4"/>
              <path d="M664.71,1777.08s135.6-141,233.5-139.89,88.27,138.8,26.92,176.47-74.26-24.74-74.26-24.74-68.87,38.74-120.51,52.73c-30.12-34.43-65.65-64.57-65.65-64.57" transform="translate(-15.37)" style="fill: #3b2d5d"/>
              <path d="M960.88,1716.85s6.92,81.92-73.83,98c-47.31-18.44-103.84,4.64-103.84,4.64l-27.68,8.06s0-38.07,54.22-55.38,80.75,21.93,110.73-2.28,40.4-53.08,40.4-53.08" transform="translate(-15.37)" style="fill: #292342"/>
              <path d="M644.39,1786.84c18.46-10,47.68,4.23,12.56,35.12-1.06,9.68,31.24,17.22,31.24,17.22S654.86,1875.67,604,1878c-48.68,2.22-109.55-37.73-84.78-78.6s56.61-10.71,85.56-8.29c13.84,1.13,31.68,0,39.61-4.23" transform="translate(-15.37)" style="fill: #f05539"/>
              <path d="M515.51,1807.14c-.27.84-.51,1.68-.73,2.54,1.38,32.63,50,59.73,90.37,57.92,35.31-1.63,62.11-19.66,75.24-30.55-5.52-1.69-12.76-4.34-17.74-7.47-14.67,9.34-35.63,19-61,20.15-33.78,1.52-73.34-17.27-86.16-42.59" transform="translate(-15.37)" style="fill: #c4481a"/>
              <path d="M563,1852.11c-40.7-21.15-38.88-54.93-22.86-71.47-7.87,2.43-17.12,6.94-24.09,18.45-24.77,40.88,37.84,82.21,86.49,80,29.86-1.37,53.58-14.46,68.15-25.09-26.22,7.75-72.47,16.44-107.69-1.89" transform="translate(-15.37)" style="fill: #e6e7e8"/>
              <path d="M798.29,1871.48s-39.68-30-12-67.33c30.84-41.57,93.77-24.15,108.85-5.86s-2.15,58.11-36.59,76.42-60.26-3.23-60.26-3.23" transform="translate(-15.37)" style="fill: #f05539"/>
              <path d="M885.34,1793.69a40.61,40.61,0,0,0-11.22-8.82,92.14,92.14,0,0,0-43.07-5.74c10.14,3.72,18.3,8.8,22.54,14,15.07,18.28-2.14,58.09-36.57,76.4a65.35,65.35,0,0,1-13.06,5.24c10.84,3.52,26.59,5,44.78-4.67,34.44-18.29,51.66-58.12,36.6-76.4" transform="translate(-15.37)" style="fill: #c4481a"/>
              <path d="M897.61,1804.94c-20.62-8.42-60.7-9.4-86.33,15.22-22.49,21.6-21.52,41.55-11.64,55.28,5.7,4,29,18.06,58.91,2.22,32.26-17.16,49.42-53.19,39.06-72.72" transform="translate(-15.37)" style="fill: #e6e7e8"/>
              <path d="M482.25,854.87c-32.68,80.15-54.91,326.63,169.56,399,223.24,71.92,357.86-77,402.69-232.5,54-187.62-87.49-316-219.73-343.46-206.41-43-308.79,69.7-352.52,177" transform="translate(-15.37)" style="fill: #fbc5a4"/>
              <path d="M575.28,1051.4c-1.94,20.52-33,33.89-63.41,23.91s-44.76-36.1-41-60.35c3.4-22.22,32.84-38.18,61.64-13.18,26.89,23.32,44.76,28.41,42.73,49.62" transform="translate(-15.37)" style="fill: #f8af9a"/>
              <path d="M496.71,1012.14c-.34,2.67-3.43,4.47-6.87,4s-6-2.95-5.65-5.65,3.41-4.42,6.9-4,6,3,5.62,5.65" transform="translate(-15.37)" style="fill: #fbd3c4"/>
              <path d="M677.9,1014.17c-.4,2.72-3.91,4.46-8,3.92s-7.1-3.14-6.77-5.77,3.94-4.42,8-3.85,7.1,3.11,6.78,5.7" transform="translate(-15.37)" style="fill: #fcd8c1"/>
              <path d="M918.09,1106.45c-4.6,27.74-33.54,43.91-70.16,41.37-35.26-2.44-67.72-33-58.29-58.3,8.89-24,27-13,69.33-23,40.95-9.63,63.72,12.18,59.12,40" transform="translate(-15.37)" style="fill: #f8af9a"/>
              <path d="M895.06,1089.06c-.4,2.53-3.42,4.13-6.67,3.59s-5.59-3-5.23-5.57,3.43-4.12,6.72-3.6,5.53,3.07,5.18,5.58" transform="translate(-15.37)" style="fill: #fbd3c4"/>
              <path d="M588.2,856.07c34-.25,31,36.24,10,30.57-22.4-6.12-43.41-3.09-45.65-6-4.88-6.45,16.52-24.36,35.61-24.54" transform="translate(-15.37)" style="fill: #473535"/>
              <path d="M868.13,916.6c-27.9-19.29-46,12.44-25.53,19.58,22,7.6,37.62,21.89,41.14,20.7,7.67-2.59.17-29.42-15.61-40.28" transform="translate(-15.37)" style="fill: #473535"/>
              <path d="M668.76,1046.33a1.54,1.54,0,0,1-1.1,0c-11-5.35-16.48-15-14.68-25.82,1.61-10,9.23-18.4,17.65-19.53,5.29-.64,15.38.83,23.24,18.65a1.55,1.55,0,0,1-.8,2.09,1.5,1.5,0,0,1-2.09-.78c-5.27-11.86-12.29-17.79-19.88-16.79-7.24.84-13.61,8.18-15.06,16.85-.73,4.56-.94,15.76,13,22.43a1.64,1.64,0,0,1,.69,2.13,1.43,1.43,0,0,1-1,.81" transform="translate(-15.37)" style="fill: #ce7754"/>
              <path d="M611.79,1067.72c-26.35-21.24-56.95,11.1-39.19,59.39s52.86,76,116.93,76.81c66,.83,101.82-53.53,96-89s-52.83-11.28-92.41-12.25c-23.53-.57-47.21-7.46-81.31-34.94" transform="translate(-15.37)" style="fill: #4c1e1c"/>
              <path d="M725.38,1099.68c-10.68,1.7-21.73,3.24-32.28,3-23.52-.58-47.2-7.46-81.31-34.94l-.36-.27c-8.54,12.2,3.62,40,37.65,52.45,38.91,14.15,78.18,2.69,76.3-20.22" transform="translate(-15.37)" style="fill: #fff"/>
              <path d="M613.26,1183c19,13.26,44,20.52,76.27,20.92,31.19.4,55.62-11.56,72.14-28-29.58-36.25-136.79-19.51-148.41,7.1" transform="translate(-15.37)" style="fill: #f48f87"/>
              <path d="M681,1161.73c-12,1.21-22.72,14.33-3.71,15.87,26.53,2.15,39.91-19.58,3.71-15.87" transform="translate(-15.37)" style="fill: #f7b0ad"/>
              <path d="M736.88,677.07s-30.31,77.26-32.41,151.35a206.13,206.13,0,0,0,48.09,11.9l47-123.1s-30.27,94.08-25.76,125.09c40.23,16.9,161.28,28.38,205.12,34-7.39,51.8-2.06,125.11,19.69,207.3,16.71,6,61,14.52,61,14.52s141.65-143.94,116-323.35c-16.82-117.69-202.11-178.67-202.11-178.67s71.15,2.41,61.39-24.77-82.52,14-82.52,14,23.46-40,0-52.36c-33.6-17.83-22,50.36-22,50.36s-123-43.76-257.84-23c-122.51,18.84-213,64.09-197.9,320.48,21-31.51,45.88-96.2,45.88-96.2s69.36,23.8,126,32.08c25.07-90.85,90.37-139.56,90.37-139.56" transform="translate(-15.37)" style="fill: #473535"/>
              <path d="M1002,1057.35s21.84-33.11,61-20.17c41.27,13.58,30.12,74.85-8.2,100s-84.55,10.18-84.2-24Z" transform="translate(-15.37)" style="fill: #fbc5a4"/>
              <path d="M1062.88,1056.24c-22.79-17.2-68.43,24.94-47.27,68.16,3.3-43.51,22.67-49.79,32.29-23.76,5.63-12,3-22.53-12.87-28.43,8.89-15.2,27.85-16,27.85-16" transform="translate(-15.37)" style="fill: #d5956a"/>
              <path d="M1008.16,1009,956.3,990.6a119.58,119.58,0,0,0-.58-25.65c-8.34-64.33-67.54-110.73-132.08-103.45l-.33,0-1.64.23a120.24,120.24,0,0,0-23.9,5.6,119.69,119.69,0,0,0-73.4,72.94l-42.62-11.58a119.93,119.93,0,0,0-1-17.39c-8.36-64.33-67.6-110.73-132.06-103.43l-2,.23a121.78,121.78,0,0,0-23.82,5.61A119.69,119.69,0,0,0,443.54,942.2c8.38,64.34,67.63,110.74,132,103.44a2.84,2.84,0,0,0,.38-.05l1.68-.21a119.47,119.47,0,0,0,100.17-88.05l40.31,10.94a120.07,120.07,0,0,0,.41,27.52c8.38,64.33,67.61,110.72,132,103.41l2-.21a121.62,121.62,0,0,0,23.86-5.61,120.16,120.16,0,0,0,74.09-74.74l52.27,18.51.21,0a18,18,0,0,0,3.45.2l.64-.05.25,0a13.89,13.89,0,0,0,2.78-.66,14.49,14.49,0,0,0,9.43-10.87,14.33,14.33,0,0,0-11.34-16.74M660.41,914a99,99,0,0,1-85.24,111l-1.51.15a2.45,2.45,0,0,0-.39,0c-53.38,6-102.41-32.37-109.33-85.61a98.71,98.71,0,0,1,85.44-111l1.78-.23c53.27-6,102.28,32.37,109.25,85.62m275.77,53.48a99.71,99.71,0,0,1-86.09,112l-1.76.22C794.48,1085.74,745,1047,738,993.25A99.93,99.93,0,0,1,804.18,886a101.64,101.64,0,0,1,20-4.68l1.74-.2c53.84-6.11,103.31,32.65,110.28,86.4" transform="translate(-15.37)" style="fill: #4d4c4c"/>
              <ellipse cx="824.05" cy="989.08" rx="44.11" ry="36.4" transform="translate(-437.39 1312.59) rotate(-64.75)" style="fill: #6b4432"/>
              <ellipse cx="570.87" cy="933.71" rx="44.11" ry="36.4" transform="translate(-532.51 1051.83) rotate(-64.75)" style="fill: #6b4432"/>
            </g>
            <g>
              <g>
                <g>
                  <g>
                    <path d="M1519.05,371c38.69-99.69-10.75-211.87-110.44-250.56S1196.15,131.67,1157.8,231.5a193,193,0,0,0,3.48,147.26A219.63,219.63,0,0,1,1179,490.4l-6.33,59.48L1291,595.8l33.57-45.63a220.21,220.21,0,0,1,90.62-71.43A193,193,0,0,0,1519.05,371Z" transform="translate(-15.37)" style="fill: #ffd22c"/>
                    <path d="M1235.72,646.91,1178,624.52c-16.35-6.35-25.65-23.85-20.63-39.52l18.07-61,131,49.87-28.84,57.78C1270.73,646.61,1252.06,653.25,1235.72,646.91Z" transform="translate(-15.37)" style="fill: #59595b"/>
                  </g>
                  <path d="M1284.7,595.09c-37.1-12.61-73-28.69-110.13-41.24-3.29-1.12-4.89,3.71-1.75,5,36.06,15.38,73.55,27.33,109.63,42.67C1286.5,603.29,1288.92,596.52,1284.7,595.09Z" transform="translate(-15.37)" style="fill: #808183"/>
                  <path d="M1278.55,610.94c-37.11-12.6-73-28.69-110.13-41.24-3.29-1.12-4.89,3.71-1.75,5,36,15.39,73.55,27.34,109.63,42.67C1280.35,619.14,1282.76,612.37,1278.55,610.94Z" transform="translate(-15.37)" style="fill: #808183"/>
                </g>
                <g>
                  <path d="M1459,34.34C1454.43,46,1432,85.39,1424.39,82.43s2.41-47.18,6.93-58.81,14.36-18.67,22-15.7S1463.46,22.71,1459,34.34Z" transform="translate(-15.37)" style="fill: #ffd22c"/>
                  <path d="M1606.15,165.37c-11.77,4.15-51.85,25.35-49.12,33.07s47.23-1,59-5.13,19.09-13.78,16.37-21.5S1617.91,161.21,1606.15,165.37Z" transform="translate(-15.37)" style="fill: #ffd22c"/>
                  <path d="M1600.81,378c-12.11-3-54-20.29-52.06-28.23s47.11-3.55,59.21-.53,20.33,11.89,18.35,19.83S1612.92,381,1600.81,378Z" transform="translate(-15.37)" style="fill: #ffd22c"/>
                  <path d="M1255.45,13.28C1261.83,24,1279,66,1272,70.14s-35.66-31-42-41.72-5.84-22.81,1.19-27S1249.08,2.55,1255.45,13.28Z" transform="translate(-15.37)" style="fill: #ffd22c"/>
                  <path d="M1101.83,150c11,5.94,53.57,21.48,57.46,14.28s-32.37-34.39-43.35-40.34-23-4.93-26.92,2.27S1090.86,144,1101.83,150Z" transform="translate(-15.37)" style="fill: #ffd22c"/>
                </g>
                <g>
                  <path d="M1380.79,423.06a49.82,49.82,0,0,1-7.37-21.33c9.69-5.54,16.79-15.29,21.91-24.92a196.62,196.62,0,0,0,8.25-18.18c2.42-5.95,3.6-11.35,0-17.05-3.23-5.07-10.44-4.42-15.16-2.54-5.45,2.17-9.75,7.51-13.27,12-7.1,9-11.3,20-13.4,31.25a67.39,67.39,0,0,0-1.13,11.86,29.77,29.77,0,0,1-10.46,1.25c-11.09-.67-16.37-9.26-17.67-19.44-.22-1.67-.36-3.41-.44-5.19,1.58-1.78,3.13-3.57,4.62-5.36a139,139,0,0,0,18-28.59c4.07-8.42,8.35-18.72,2-27.11-2-2.7-5.55-2.62-8.15-.93-18.8,12.21-26.84,35-27.67,56.77a137.55,137.55,0,0,1-13.2,12c-5.11,4.08-14.12,10-20.81,6.17-6.24-3.53-8.3-13.87-9.59-20.27a62.77,62.77,0,0,1-1.15-14.19c1.69-1.89,3.34-3.82,4.93-5.8A131.19,131.19,0,0,0,1296.82,318c3.62-7.5,8.09-18.28,1.06-25.28-2-2-5.72-3.33-8.16-.93a83.21,83.21,0,0,0-24.44,50.61c-.07.66-.11,1.32-.16,2a123,123,0,0,1-36.2,26.76c-6.05,3-2,12.4,4.23,9.6a129.51,129.51,0,0,0,32.27-20.93,82.25,82.25,0,0,0,2.06,10.93c2.56,9.8,6.71,19.66,16.45,24.06,9.1,4.11,19.68-.77,27.35-5.61a79.21,79.21,0,0,0,10.49-8c1.74,9,6.07,17.31,14.53,22,7.78,4.34,16.74,4.88,25.24,3a73.5,73.5,0,0,0,8.11,23.58C1374.24,438.11,1385.9,431.05,1380.79,423.06Zm-33-99.42c-1.29,4.48-4.36,9.43-5.62,11.95a111.4,111.4,0,0,1-7.9,13.3C1336.76,339.23,1341.18,330.07,1347.83,323.64Zm31.62,43.57a54.9,54.9,0,0,1,8.12-12,29.2,29.2,0,0,1,4.74-4.42,12.74,12.74,0,0,1,1.26-.72,10.61,10.61,0,0,1-.3,1.39c-3.68,11.17-9.17,22.64-16.63,31.76a34.5,34.5,0,0,1-3,3.19A66,66,0,0,1,1379.45,367.21Z" transform="translate(-15.37)" style="fill: #fff"/>
                  <path d="M1401.36,400.49c-41.93,51.13-84.75,101.58-128.85,150.85-5.28,5.9,3.72,14.26,9,8.36q66.09-74.09,127.7-151.93C1413.41,402.41,1405.75,395.13,1401.36,400.49Z" transform="translate(-15.37)" style="fill: #fff"/>
                  <path d="M1228.23,329c-7.86,65.65-16.84,131.21-27.52,196.47-1.28,7.81,10.8,10,12.07,2.22,10.58-65.33,19.44-130.9,26-196.76C1239.42,324.18,1229.05,322.16,1228.23,329Z" transform="translate(-15.37)" style="fill: #fff"/>
                </g>
              </g>
              <g style="opacity: 0.08;mix-blend-mode: multiply">
                <path d="M1504.07,200.17c18.14,77.23-5,159.19-58.8,217.66-15,16.37-33.81,27.54-52.83,38.58C1374,467.1,1357.8,481.24,1343.51,497c-23.4,25.72-42,55-60.68,84.14-4.26,6.63-8.64,13.4-14.89,18.21-8.25,6.35-19,8.64-29.45,8.52a74.2,74.2,0,0,1-31-7.27c-4.09-1.95-7.44-4.79-11.42-6.8a38.08,38.08,0,0,1-11.89-9c-4.26-4.86-7.45-10.54-10.61-16.17l-6.08-10.83c-1.57,1.92-2.57,5.19-3.48,7.49-4.59,11.51-9.9,23.61-6.72,36.2a34.68,34.68,0,0,0,21.05,23.36l57.69,22.39c16.35,6.34,35-.3,41.89-15.25l21.7-47.19,25.23-34.3A220.26,220.26,0,0,1,1415.51,479a193.61,193.61,0,0,0,88.56-278.87Z" transform="translate(-15.37)" style="fill: #232020"/>
              </g>
            </g>
          </g>
          <g>
            <path d="M109.1,2016.15v102.19H89.69l-51-62v62H15.37V2016.15H34.94l50.81,62v-62Z" transform="translate(-15.37)" style="fill: #fff"/>
            <path d="M208.24,2085.49H148.82c2.19,9.79,10.51,15.77,22.48,15.77,8.32,0,14.31-2.48,19.71-7.59l12.12,13.14c-7.3,8.32-18.25,12.7-32.41,12.7-27.16,0-44.82-17.08-44.82-40.44s17.95-40.44,41.9-40.44c23.06,0,40.88,15.48,40.88,40.73C208.68,2081.12,208.38,2083.6,208.24,2085.49Zm-59.71-13.28h38.68c-1.6-9.93-9.05-16.35-19.27-16.35S150.13,2062.14,148.53,2072.21Z" transform="translate(-15.37)" style="fill: #fff"/>
            <path d="M348.54,2039.8l-28.46,78.54h-21.9l-17.67-48.76-18.25,48.76h-21.9L212,2039.8H233.5L252,2092.94l19.27-53.14h19.27l18.69,53.14,19.13-53.14Z" transform="translate(-15.37)" style="fill: #fff"/>
            <path d="M377.31,2105.2c0,3.8-.59,6.57-3.94,14.6l-8.33,21H350.59l6.42-23.22c-4.81-1.89-7.88-6.42-7.88-12.41,0-8.46,6.13-14,14.16-14S377.31,2096.88,377.31,2105.2Z" transform="translate(-15.37)" style="fill: #fff"/>
            <path d="M431.33,2016.15c0-7.16,5.69-12.7,14.16-12.7s14.16,5.25,14.16,12.26c0,7.59-5.69,13.14-14.16,13.14S431.33,2023.3,431.33,2016.15Zm2.77,23.65h22.78v78.54H434.1Z" transform="translate(-15.37)" style="fill: #fff"/>
            <path d="M558.34,2073.38v45H535.57v-41.46c0-12.7-5.84-18.54-15.91-18.54-11,0-18.84,6.72-18.84,21.17v38.83H478.05V2039.8H499.8v9.2c6.13-6.72,15.33-10.37,26-10.37C544.33,2038.63,558.34,2049.43,558.34,2073.38Z" transform="translate(-15.37)" style="fill: #fff"/>
            <path d="M659.23,2073.38v45H636.45v-41.46c0-12.7-5.84-18.54-15.91-18.54-10.95,0-18.83,6.72-18.83,21.17v38.83H578.93V2039.8h21.75v9.2c6.14-6.72,15.33-10.37,26-10.37C645.21,2038.63,659.23,2049.43,659.23,2073.38Z" transform="translate(-15.37)" style="fill: #fff"/>
            <path d="M674.85,2079.07c0-23.65,18.25-40.44,43.22-40.44s43.07,16.79,43.07,40.44-18.11,40.44-43.07,40.44S674.85,2102.72,674.85,2079.07Zm63.22,0c0-13.58-8.62-21.75-20-21.75s-20.15,8.17-20.15,21.75,8.76,21.75,20.15,21.75S738.07,2092.65,738.07,2079.07Z" transform="translate(-15.37)" style="fill: #fff"/>
            <path d="M852.09,2039.8,819,2118.34h-23.5l-33-78.54H786l21.75,53.43,22.48-53.43Z" transform="translate(-15.37)" style="fill: #fff"/>
            <path d="M928.3,2073.52v44.82H907v-9.78c-4.23,7.16-12.41,11-23.94,11-18.4,0-29.35-10.22-29.35-23.8,0-13.86,9.78-23.5,33.73-23.5h18.1c0-9.78-5.84-15.48-18.1-15.48-8.33,0-16.94,2.78-22.63,7.3l-8.18-15.91c8.61-6.13,21.32-9.49,33.87-9.49C914.43,2038.63,928.3,2049.73,928.3,2073.52Zm-22.77,20v-8H889.91c-10.66,0-14,4-14,9.2,0,5.7,4.82,9.49,12.85,9.49C896.33,2104.18,902.9,2100.68,905.53,2093.52Z" transform="translate(-15.37)" style="fill: #fff"/>
            <path d="M999.55,2114.55c-4.67,3.36-11.53,5-18.54,5-18.54,0-29.34-9.49-29.34-28.18v-32.26H939.55v-17.52h12.12v-19.13h22.77v19.13H994v17.52H974.44v32c0,6.72,3.65,10.37,9.78,10.37a15.33,15.33,0,0,0,9.2-2.92Z" transform="translate(-15.37)" style="fill: #fff"/>
            <path d="M1009.63,2016.15c0-7.16,5.69-12.7,14.16-12.7s14.16,5.25,14.16,12.26c0,7.59-5.69,13.14-14.16,13.14S1009.63,2023.3,1009.63,2016.15Zm2.77,23.65h22.78v78.54H1012.4Z" transform="translate(-15.37)" style="fill: #fff"/>
            <path d="M1134.31,2039.8l-33.14,78.54h-23.51l-33-78.54h23.5l21.76,53.43,22.48-53.43Z" transform="translate(-15.37)" style="fill: #fff"/>
            <path d="M1218,2085.49h-59.42c2.19,9.79,10.52,15.77,22.49,15.77,8.32,0,14.31-2.48,19.71-7.59l12.11,13.14c-7.29,8.32-18.25,12.7-32.41,12.7-27.15,0-44.82-17.08-44.82-40.44s18-40.44,41.9-40.44c23.07,0,40.88,15.48,40.88,40.73C1218.4,2081.12,1218.11,2083.6,1218,2085.49Zm-59.71-13.28h38.69c-1.6-9.93-9-16.35-19.27-16.35C1167.3,2055.86,1159.86,2062.14,1158.25,2072.21Z" transform="translate(-15.37)" style="fill: #fff"/>
            <path d="M1344.4,2073.52v44.82h-21.32v-9.78c-4.23,7.16-12.4,11-23.94,11-18.39,0-29.34-10.22-29.34-23.8,0-13.86,9.78-23.5,33.72-23.5h18.1c0-9.78-5.84-15.48-18.1-15.48-8.32,0-16.93,2.78-22.63,7.3l-8.17-15.91c8.61-6.13,21.31-9.49,33.87-9.49C1330.53,2038.63,1344.4,2049.73,1344.4,2073.52Zm-22.78,20v-8H1306c-10.66,0-14,4-14,9.2,0,5.7,4.81,9.49,12.85,9.49C1312.43,2104.18,1319,2100.68,1321.62,2093.52Z" transform="translate(-15.37)" style="fill: #fff"/>
            <path d="M1450.54,2079.07c0,24.67-17.08,40.44-39.13,40.44-9.78,0-17.81-3.06-23.65-9.49v36.65H1365V2039.8h21.75v9c5.69-6.86,14.16-10.22,24.67-10.22C1433.46,2038.63,1450.54,2054.4,1450.54,2079.07Zm-23.07,0c0-13.58-8.61-21.75-20-21.75s-20,8.17-20,21.75,8.61,21.75,20,21.75S1427.47,2092.65,1427.47,2079.07Z" transform="translate(-15.37)" style="fill: #fff"/>
            <path d="M1551.28,2079.07c0,24.67-17.08,40.44-39.13,40.44-9.78,0-17.81-3.06-23.65-9.49v36.65h-22.78V2039.8h21.76v9c5.69-6.86,14.16-10.22,24.67-10.22C1534.2,2038.63,1551.28,2054.4,1551.28,2079.07Zm-23.07,0c0-13.58-8.61-21.75-20-21.75s-20,8.17-20,21.75,8.61,21.75,20,21.75S1528.21,2092.65,1528.21,2079.07Z" transform="translate(-15.37)" style="fill: #fff"/>
            <path d="M1615.22,2038.63v21c-1.89-.14-3.35-.29-5.11-.29-12.55,0-20.87,6.86-20.87,21.9v37.08h-22.78V2039.8h21.76v10.36C1593.76,2042.57,1603.11,2038.63,1615.22,2038.63Z" transform="translate(-15.37)" style="fill: #fff"/>
            <path d="M1622.24,2079.07c0-23.65,18.25-40.44,43.21-40.44s43.07,16.79,43.07,40.44-18.1,40.44-43.07,40.44S1622.24,2102.72,1622.24,2079.07Zm63.21,0c0-13.58-8.61-21.75-20-21.75s-20.15,8.17-20.15,21.75,8.76,21.75,20.15,21.75S1685.45,2092.65,1685.45,2079.07Z" transform="translate(-15.37)" style="fill: #fff"/>
            <path d="M1791.89,2073.52v44.82h-21.32v-9.78c-4.23,7.16-12.41,11-23.94,11-18.4,0-29.35-10.22-29.35-23.8,0-13.86,9.79-23.5,33.73-23.5h18.1c0-9.78-5.84-15.48-18.1-15.48-8.32,0-16.94,2.78-22.63,7.3l-8.18-15.91c8.62-6.13,21.32-9.49,33.88-9.49C1778,2038.63,1791.89,2049.73,1791.89,2073.52Zm-22.78,20v-8h-15.62c-10.66,0-14,4-14,9.2,0,5.7,4.81,9.49,12.84,9.49C1759.92,2104.18,1766.48,2100.68,1769.11,2093.52Z" transform="translate(-15.37)" style="fill: #fff"/>
            <path d="M1807.51,2079.07c0-23.65,18.25-40.44,43.8-40.44,16.5,0,29.49,7.15,35.18,20l-17.66,9.49c-4.24-7.44-10.51-10.8-17.67-10.8-11.53,0-20.58,8-20.58,21.75s9.05,21.75,20.58,21.75c7.16,0,13.43-3.21,17.67-10.8l17.66,9.64c-5.69,12.55-18.68,19.85-35.18,19.85C1825.76,2119.51,1807.51,2102.72,1807.51,2079.07Z" transform="translate(-15.37)" style="fill: #fff"/>
            <path d="M1979.35,2073.38v45h-22.78v-41.46c0-12.7-5.84-18.54-15.91-18.54-11,0-18.83,6.72-18.83,21.17v38.83h-22.78V2010h22.78v38c6.13-6.13,14.89-9.34,25-9.34C1965.33,2038.63,1979.35,2049.43,1979.35,2073.38Z" transform="translate(-15.37)" style="fill: #fff"/>
            <path d="M216.19,2289.75c-4.67,3.36-11.53,5-18.54,5-18.54,0-29.34-9.49-29.34-28.18v-32.26H156.19v-17.52h12.12v-19.13h22.77v19.13h19.57v17.52H191.08v32c0,6.72,3.65,10.37,9.78,10.37a15.33,15.33,0,0,0,9.2-2.92Z" transform="translate(-15.37)" style="fill: #fff"/>
            <path d="M220.72,2254.27c0-23.65,18.25-40.44,43.22-40.44S307,2230.62,307,2254.27s-18.11,40.44-43.07,40.44S220.72,2277.92,220.72,2254.27Zm63.22,0c0-13.58-8.62-21.75-20-21.75s-20.15,8.17-20.15,21.75,8.76,21.75,20.15,21.75S283.94,2267.85,283.94,2254.27Z" transform="translate(-15.37)" style="fill: #fff"/>
            <path d="M444.54,2215v65.4c0,29.2-15.77,42.64-44.1,42.64-14.89,0-29.34-3.65-38.54-10.81l9.05-16.35c6.72,5.4,17.67,8.91,27.74,8.91,16.06,0,23.07-7.3,23.07-21.47V2280c-6,6.57-14.6,9.78-24.82,9.78-21.75,0-39.27-15-39.27-38s17.52-38,39.27-38c10.95,0,20,3.65,26,11.24V2215Zm-22.49,36.79c0-11.53-8.61-19.27-20.58-19.27s-20.73,7.74-20.73,19.27,8.76,19.27,20.73,19.27S422.05,2263.32,422.05,2251.79Z" transform="translate(-15.37)" style="fill: #fff"/>
            <path d="M542.21,2260.69H482.79c2.19,9.79,10.51,15.77,22.48,15.77,8.32,0,14.31-2.48,19.71-7.59L537.1,2282c-7.3,8.32-18.25,12.7-32.41,12.7-27.16,0-44.82-17.08-44.82-40.44s18-40.44,41.9-40.44c23.07,0,40.88,15.48,40.88,40.73C542.65,2256.31,542.35,2258.8,542.21,2260.69Zm-59.71-13.28h38.68c-1.6-9.93-9-16.35-19.27-16.35S484.1,2237.34,482.5,2247.41Z" transform="translate(-15.37)" style="fill: #fff"/>
            <path d="M638.13,2248.58v45H615.35v-41.46c0-12.7-5.84-18.54-15.91-18.54-11,0-18.83,6.72-18.83,21.17v38.83H557.83V2215h21.76v9.2c6.13-6.72,15.33-10.37,26-10.37C624.11,2213.83,638.13,2224.63,638.13,2248.58Z" transform="translate(-15.37)" style="fill: #fff"/>
            <path d="M736.09,2260.69H676.68c2.18,9.79,10.51,15.77,22.48,15.77,8.32,0,14.31-2.48,19.71-7.59L731,2282c-7.31,8.32-18.25,12.7-32.42,12.7-27.15,0-44.82-17.08-44.82-40.44s18-40.44,41.9-40.44c23.07,0,40.88,15.48,40.88,40.73C736.53,2256.31,736.24,2258.8,736.09,2260.69Zm-59.71-13.28h38.69c-1.6-9.93-9.05-16.35-19.27-16.35S678,2237.34,676.38,2247.41Z" transform="translate(-15.37)" style="fill: #fff"/>
            <path d="M800.48,2213.83v21c-1.9-.14-3.36-.29-5.11-.29-12.55,0-20.88,6.86-20.88,21.9v37.08H751.72V2215h21.75v10.36C779,2217.77,788.36,2213.83,800.48,2213.83Z" transform="translate(-15.37)" style="fill: #fff"/>
            <path d="M883.12,2248.72v44.82H861.8v-9.78c-4.23,7.16-12.41,10.95-23.94,10.95-18.4,0-29.35-10.22-29.35-23.8,0-13.87,9.79-23.5,33.73-23.5h18.1c0-9.78-5.84-15.48-18.1-15.48-8.32,0-16.94,2.78-22.63,7.3l-8.18-15.91c8.62-6.13,21.32-9.49,33.88-9.49C869.25,2213.83,883.12,2224.93,883.12,2248.72Zm-22.78,20v-8H844.72c-10.66,0-14,3.95-14,9.2,0,5.7,4.81,9.49,12.84,9.49C851.15,2279.38,857.71,2275.88,860.34,2268.72Z" transform="translate(-15.37)" style="fill: #fff"/>
            <path d="M903.7,2185.21h22.78v108.33H903.7Z" transform="translate(-15.37)" style="fill: #fff"/>
            <path d="M1022.69,2262.74l-11,10.8v20H989V2185.21h22.77v61.32L1045,2215h27.15l-32.7,33.29,35.62,45.25h-27.59Z" transform="translate(-15.37)" style="fill: #fff"/>
            <path d="M1165,2248.58v45h-22.78v-41.46c0-12.7-5.84-18.54-15.91-18.54-10.95,0-18.83,6.72-18.83,21.17v38.83h-22.78V2215h21.76v9.2c6.13-6.72,15.32-10.37,26-10.37C1151,2213.83,1165,2224.63,1165,2248.58Z" transform="translate(-15.37)" style="fill: #fff"/>
            <path d="M1180.66,2254.27c0-23.65,18.25-40.44,43.22-40.44s43.06,16.79,43.06,40.44-18.1,40.44-43.06,40.44S1180.66,2277.92,1180.66,2254.27Zm63.22,0c0-13.58-8.62-21.75-20-21.75s-20.15,8.17-20.15,21.75,8.76,21.75,20.15,21.75S1243.88,2267.85,1243.88,2254.27Z" transform="translate(-15.37)" style="fill: #fff"/>
            <path d="M1406.08,2215l-28.47,78.54h-21.9l-17.66-48.76-18.25,48.76h-21.9L1269.58,2215H1291l18.54,53.14,19.27-53.14h19.27l18.69,53.14,19.12-53.14Z" transform="translate(-15.37)" style="fill: #fff"/>
            <path d="M1416.74,2185.21h22.78v108.33h-22.78Z" transform="translate(-15.37)" style="fill: #fff"/>
            <path d="M1537.19,2260.69h-59.42c2.19,9.79,10.51,15.77,22.48,15.77,8.33,0,14.31-2.48,19.71-7.59l12.12,13.14c-7.3,8.32-18.25,12.7-32.41,12.7-27.16,0-44.82-17.08-44.82-40.44s18-40.44,41.9-40.44c23.07,0,40.88,15.48,40.88,40.73C1537.63,2256.31,1537.34,2258.8,1537.19,2260.69Zm-59.71-13.28h38.69c-1.61-9.93-9.06-16.35-19.27-16.35C1486.53,2231.06,1479.08,2237.34,1477.48,2247.41Z" transform="translate(-15.37)" style="fill: #fff"/>
            <path d="M1632.82,2185.21v108.33h-21.75v-9.05c-5.7,6.86-14,10.22-24.53,10.22-22.19,0-39.27-15.77-39.27-40.44s17.08-40.44,39.27-40.44c9.64,0,17.81,3.07,23.5,9.49v-38.11Zm-22.34,69.06c0-13.58-8.76-21.75-20-21.75-11.39,0-20.15,8.17-20.15,21.75s8.76,21.75,20.15,21.75C1601.72,2276,1610.48,2267.85,1610.48,2254.27Z" transform="translate(-15.37)" style="fill: #fff"/>
            <path d="M1734.87,2215v65.4c0,29.2-15.77,42.64-44.09,42.64-14.89,0-29.34-3.65-38.54-10.81l9-16.35c6.72,5.4,17.67,8.91,27.74,8.91,16.06,0,23.07-7.3,23.07-21.47V2280c-6,6.57-14.6,9.78-24.82,9.78-21.76,0-39.27-15-39.27-38s17.51-38,39.27-38c11,0,20,3.65,26,11.24V2215Zm-22.48,36.79c0-11.53-8.62-19.27-20.59-19.27s-20.73,7.74-20.73,19.27,8.76,19.27,20.73,19.27S1712.39,2263.32,1712.39,2251.79Z" transform="translate(-15.37)" style="fill: #fff"/>
            <path d="M1832.55,2260.69h-59.42c2.19,9.79,10.51,15.77,22.48,15.77,8.32,0,14.31-2.48,19.71-7.59l12.12,13.14c-7.3,8.32-18.25,12.7-32.42,12.7-27.15,0-44.82-17.08-44.82-40.44s18-40.44,41.9-40.44c23.07,0,40.88,15.48,40.88,40.73C1833,2256.31,1832.69,2258.8,1832.55,2260.69Zm-59.72-13.28h38.69c-1.6-9.93-9-16.35-19.27-16.35S1774.44,2237.34,1772.83,2247.41Z" transform="translate(-15.37)" style="fill: #fff"/>
          </g>
        </g>
      </g>
    </g>
  </g>
</svg>
