<svg xmlns="http://www.w3.org/2000/svg" width="1709.94" height="1890.13" viewBox="0 0 1709.94 1890.13">
  <title>INTRO3</title>
  <g id="Layer_2" data-name="Layer 2">
    <g id="Layer_1-2" data-name="Layer 1">
      <g>
        <g>
          <path d="M996.29,0c351.61,0,636.65,285,636.65,636.58s-285,636.65-636.65,636.65-636.58-285-636.58-636.65S644.68,0,996.29,0" transform="translate(-142.17)" style="fill: #00bad4"/>
          <path d="M1632.9,632.89c-11.17,18.61-26.06,37.23-37.23,55.85-48.41,74.4-67,160-96.81,242-7.45,22.28-26.07,63.24-48.41,48.41-63.29-44.75-3.66-167.62-44.68-238.24-14.89-26.19-33.51-48.4-63.23-59.64-52.13-22.34-115.43,0-167.56-15-48.4-14.83-78.19-63.23-81.91-115.3-3.73-48.47,22.34-100.59,63.3-130.38,37.23-29.79,85.63-48.41,130.32-33.45,18.55,3.66,33.51,14.83,48.4,18.62,44.68,11.23,89.3-7.38,130.26-26,18.62-7.58,37.23-22.41,33.51-41-3.72-14.83-18.62-18.62-33.51-22.41-26.07-3.59-55.79,3.79-81.85,7.58s-55.86,0-78.26-18.75c-11.11-7.38-26-26-40.89-18.62-7.45,3.79-11.17,7.58-14.9,15-26.06,26.07-67,22.41-100.53,18.62-3.73,0-11.17,0-14.9-3.79-7.44-7.38,0-22.21,7.45-29.79,22.34-26,48.41-48.27,63.3-78.06,22.34-44.74-7.45-96.87-55.85-96.87-26.07,0-48.41-7.32-67-25.94-22.34-18.62-29.79-52.26-26.07-78.26,323.94,26,573.35,297.75,577.07,625.42" transform="translate(-142.17)" style="fill: #3d813e"/>
          <path d="M858.55,186.14c-22.34,52.12-81.91,74.46-119.08,115.42-26.13,26.07-44.75,63.24-63.3,96.88l-7.51,11c-22.28,41-67,56-111.64,41-7.45-3.6-14.9-3.6-22.34-3.6-33.51,0-70.75,26-78.2,59.45,0,7.51,0,15,3.73,22.34,7.44,14.89,22.34,22.47,41,22.47,29.78,0,55.85,14.76,63.29,44.55,11.17,33.51-29.78,63.3-59.57,41-37.24-29.78-67-70.81-81.92-115.42-14.89-29.86-22.34-70.81-22.34-111.77C475.1,219.65,635.21,74.5,836.21,22.3c7.45,15,11.17,33.64,18.62,48.41,11.17,37.23,18.62,82,3.72,115.43" transform="translate(-142.17)" style="fill: #3d813e"/>
          <path d="M1029.8,848.8c-11.17,14.9-26.06,26.07-37.23,41-70.75,74.41-59.58,204.67-141.5,268-14.89,11.17-33.44,18.68-37.17,37.36v22.21c0,11.17,3.73,22.34,3.73,33.58-26.07-7.52-52.13-15-74.47-26.13-14.9-26.07-33.51-52.13-37.24-81.92-7.44-41,7.45-85.64-3.72-122.81-18.62-70.81-100.53-108-126.6-175-14.89-44.68-3.72-96.68,18.62-137.7,11.17-26,29.79-52.2,59.57-59.64,22.35-7.39,44.69-3.6,63.3,3.78C802.67,681.38,866,770.61,955.33,778.06c26.06,3.72,63.3,0,78.19,22.34,11.17,11.17,7.45,33.64-3.72,48.4" transform="translate(-142.17)" style="fill: #3d813e"/>
        </g>
        <g>
          <path d="M179.4,1471.25l-13.72,14.31v25.84H142.17V1409.2h23.51v47.74l45.26-47.74h26.28l-42.34,45.56,44.82,56.64H212.11Z" transform="translate(-142.17)" style="fill: #fff"/>
          <path d="M321.9,1478.55H262.48c2.19,9.78,10.51,15.77,22.48,15.77,8.33,0,14.31-2.48,19.71-7.59l12.12,13.14c-7.3,8.32-18.25,12.7-32.41,12.7-27.16,0-44.82-17.08-44.82-40.44,0-23.51,18-40.44,41.9-40.44,23.07,0,40.88,15.47,40.88,40.73C322.34,1474.17,322.05,1476.65,321.9,1478.55Zm-59.71-13.28h38.69c-1.61-9.93-9.05-16.35-19.27-16.35C271.24,1448.92,263.79,1455.19,262.19,1465.27Z" transform="translate(-142.17)" style="fill: #fff"/>
          <path d="M414,1478.55H354.61c2.19,9.78,10.51,15.77,22.48,15.77,8.32,0,14.31-2.48,19.71-7.59l12.12,13.14c-7.3,8.32-18.25,12.7-32.42,12.7-27.15,0-44.82-17.08-44.82-40.44,0-23.51,18-40.44,41.9-40.44,23.07,0,40.88,15.47,40.88,40.73C414.46,1474.17,414.17,1476.65,414,1478.55Zm-59.72-13.28H393c-1.6-9.93-9.05-16.35-19.27-16.35S355.92,1455.19,354.31,1465.27Z" transform="translate(-142.17)" style="fill: #fff"/>
          <path d="M515.2,1472.13c0,24.67-17.08,40.44-39.12,40.44-9.78,0-17.81-3.07-23.65-9.49v36.64H429.65V1432.86H451.4v9.05c5.7-6.86,14.17-10.22,24.68-10.22C498.12,1431.69,515.2,1447.46,515.2,1472.13Zm-23.06,0c0-13.58-8.62-21.75-20-21.75s-20,8.17-20,21.75,8.62,21.75,20,21.75S492.14,1485.71,492.14,1472.13Z" transform="translate(-142.17)" style="fill: #fff"/>
          <path d="M649.67,1432.86l-35.48,83.36c-7.59,19-18.4,24.67-32.56,24.67-8,0-16.79-2.63-21.9-7.15l8.33-16.21a20.16,20.16,0,0,0,12.84,5c6.28,0,9.78-2.78,12.85-9.78l.29-.73-34-79.13h23.5l22.05,53.28,22.19-53.28Z" transform="translate(-142.17)" style="fill: #fff"/>
          <path d="M651,1472.13c0-23.65,18.25-40.44,43.22-40.44s43.06,16.79,43.06,40.44-18.1,40.44-43.06,40.44S651,1495.78,651,1472.13Zm63.22,0c0-13.58-8.62-21.75-20-21.75s-20.15,8.17-20.15,21.75,8.76,21.75,20.15,21.75S714.2,1485.71,714.2,1472.13Z" transform="translate(-142.17)" style="fill: #fff"/>
          <path d="M831.58,1432.86v78.54H810v-9.34c-6,6.86-14.74,10.51-24.38,10.51-19.71,0-33.58-11.1-33.58-35.33v-44.38h22.78v41c0,13.14,5.84,19,15.91,19,10.51,0,18.11-6.72,18.11-21.17v-38.83Z" transform="translate(-142.17)" style="fill: #fff"/>
          <path d="M901.52,1431.69v21c-1.9-.14-3.36-.29-5.11-.29-12.56,0-20.88,6.86-20.88,21.9v37.08H852.75v-78.54h21.76v10.36C880.05,1435.63,889.4,1431.69,901.52,1431.69Z" transform="translate(-142.17)" style="fill: #fff"/>
          <path d="M907.79,1504.1l7.6-16.35c7,4.53,17.66,7.59,27.3,7.59,10.51,0,14.45-2.77,14.45-7.15,0-12.85-47.45.29-47.45-31.1,0-14.89,13.43-25.4,36.36-25.4,10.8,0,22.77,2.48,30.22,6.86l-7.6,16.21a45.06,45.06,0,0,0-22.62-5.84c-10.22,0-14.6,3.21-14.6,7.3,0,13.43,47.45.43,47.45,31.38,0,14.6-13.58,25-37.09,25C928.53,1512.57,915.09,1508.92,907.79,1504.1Z" transform="translate(-142.17)" style="fill: #fff"/>
          <path d="M1069.41,1478.55H1010c2.19,9.78,10.51,15.77,22.49,15.77,8.32,0,14.3-2.48,19.71-7.59l12.11,13.14c-7.3,8.32-18.25,12.7-32.41,12.7-27.15,0-44.82-17.08-44.82-40.44,0-23.51,18-40.44,41.9-40.44,23.07,0,40.88,15.47,40.88,40.73C1069.85,1474.17,1069.56,1476.65,1069.41,1478.55Zm-59.71-13.28h38.69c-1.61-9.93-9.05-16.35-19.27-16.35S1011.31,1455.19,1009.7,1465.27Z" transform="translate(-142.17)" style="fill: #fff"/>
          <path d="M1085,1403.07h22.77V1511.4H1085Z" transform="translate(-142.17)" style="fill: #fff"/>
          <path d="M1154,1434.61h20.14v17.52h-19.56v59.27h-22.77v-59.27h-12.12v-17.52h12.12v-3.51c0-17.66,10.8-29.2,30.36-29.2,6.43,0,13.14,1.32,17.38,4.24l-6,16.5a15.88,15.88,0,0,0-9.2-2.78c-6.71,0-10.36,3.65-10.36,11.39Z" transform="translate(-142.17)" style="fill: #fff"/>
          <path d="M1305.93,1432.86v78.54h-21.61v-9.34c-6,6.86-14.74,10.51-24.38,10.51-19.71,0-33.58-11.1-33.58-35.33v-44.38h22.78v41c0,13.14,5.84,19,15.91,19,10.51,0,18.1-6.72,18.1-21.17v-38.83Z" transform="translate(-142.17)" style="fill: #fff"/>
          <path d="M1412.66,1472.13c0,24.67-17.09,40.44-39.13,40.44-9.78,0-17.81-3.07-23.65-9.49v36.64H1327.1V1432.86h21.75v9.05c5.7-6.86,14.17-10.22,24.68-10.22C1395.57,1431.69,1412.66,1447.46,1412.66,1472.13Zm-23.07,0c0-13.58-8.62-21.75-20-21.75s-20,8.17-20,21.75,8.62,21.75,20,21.75S1389.59,1485.71,1389.59,1472.13Z" transform="translate(-142.17)" style="fill: #fff"/>
          <path d="M1507.85,1403.07V1511.4h-21.76v-9.05c-5.69,6.86-14,10.22-24.52,10.22-22.2,0-39.28-15.77-39.28-40.44s17.08-40.44,39.28-40.44c9.63,0,17.81,3.06,23.5,9.49v-38.11Zm-22.34,69.06c0-13.58-8.76-21.75-20-21.75-11.39,0-20.15,8.17-20.15,21.75s8.76,21.75,20.15,21.75C1476.75,1493.88,1485.51,1485.71,1485.51,1472.13Z" transform="translate(-142.17)" style="fill: #fff"/>
          <path d="M1598.36,1466.58v44.82h-21.31v-9.78c-4.23,7.15-12.41,11-23.94,11-18.4,0-29.35-10.22-29.35-23.8,0-13.87,9.78-23.5,33.73-23.5h18.1c0-9.78-5.84-15.48-18.1-15.48-8.33,0-16.94,2.78-22.63,7.3l-8.18-15.91c8.61-6.13,21.32-9.49,33.87-9.49C1584.5,1431.69,1598.36,1442.78,1598.36,1466.58Zm-22.77,20v-8H1560c-10.66,0-14,3.94-14,9.2,0,5.69,4.82,9.49,12.85,9.49C1566.39,1497.24,1573,1493.74,1575.59,1486.58Z" transform="translate(-142.17)" style="fill: #fff"/>
          <path d="M1669.61,1507.61c-4.67,3.35-11.53,5-18.54,5-18.54,0-29.35-9.49-29.35-28.18v-32.26h-12.11v-17.52h12.11v-19.13h22.78v19.13h19.56v17.52H1644.5v32c0,6.72,3.65,10.37,9.78,10.37a15.4,15.4,0,0,0,9.2-2.92Z" transform="translate(-142.17)" style="fill: #fff"/>
          <path d="M1756.48,1478.55h-59.42c2.19,9.78,10.51,15.77,22.48,15.77,8.33,0,14.31-2.48,19.71-7.59l12.12,13.14c-7.3,8.32-18.25,12.7-32.41,12.7-27.16,0-44.82-17.08-44.82-40.44,0-23.51,18-40.44,41.9-40.44,23.07,0,40.88,15.47,40.88,40.73C1756.92,1474.17,1756.63,1476.65,1756.48,1478.55Zm-59.71-13.28h38.69c-1.61-9.93-9-16.35-19.27-16.35C1705.82,1448.92,1698.37,1455.19,1696.77,1465.27Z" transform="translate(-142.17)" style="fill: #fff"/>
          <path d="M1852.11,1403.07V1511.4h-21.75v-9.05c-5.7,6.86-14,10.22-24.53,10.22-22.19,0-39.27-15.77-39.27-40.44s17.08-40.44,39.27-40.44c9.64,0,17.81,3.06,23.5,9.49v-38.11Zm-22.34,69.06c0-13.58-8.76-21.75-20-21.75s-20.15,8.17-20.15,21.75,8.76,21.75,20.15,21.75S1829.77,1485.71,1829.77,1472.13Z" transform="translate(-142.17)" style="fill: #fff"/>
          <path d="M379.93,1641.78v44.82H358.62v-9.78c-4.24,7.15-12.41,11-23.95,11-18.39,0-29.34-10.22-29.34-23.8,0-13.87,9.78-23.5,33.72-23.5h18.11c0-9.79-5.84-15.48-18.11-15.48-8.32,0-16.93,2.77-22.63,7.3l-8.17-15.91c8.61-6.13,21.31-9.49,33.87-9.49C366.06,1606.89,379.93,1618,379.93,1641.78Zm-22.77,20v-8H341.54c-10.66,0-14,3.94-14,9.2,0,5.69,4.82,9.49,12.85,9.49C348,1672.44,354.53,1668.94,357.16,1661.78Z" transform="translate(-142.17)" style="fill: #fff"/>
          <path d="M486.07,1647.33c0,24.67-17.08,40.44-39.12,40.44-10.52,0-19-3.36-24.68-10.22v9H400.52V1578.27h22.77v38.11c5.84-6.43,13.87-9.49,23.66-9.49C469,1606.89,486.07,1622.66,486.07,1647.33Zm-23.07,0c0-13.58-8.61-21.75-20-21.75s-20,8.17-20,21.75,8.62,21.75,20,21.75S463,1660.91,463,1647.33Z" transform="translate(-142.17)" style="fill: #fff"/>
          <path d="M495.42,1647.33c0-23.65,18.25-40.44,43.21-40.44s43.07,16.79,43.07,40.44-18.1,40.44-43.07,40.44S495.42,1671,495.42,1647.33Zm63.21,0c0-13.58-8.61-21.75-20-21.75s-20.15,8.17-20.15,21.75,8.76,21.75,20.15,21.75S558.63,1660.91,558.63,1647.33Z" transform="translate(-142.17)" style="fill: #fff"/>
          <path d="M676,1608.06v78.54H654.41v-9.34c-6,6.86-14.75,10.51-24.38,10.51-19.71,0-33.58-11.1-33.58-35.33v-44.38h22.77v41c0,13.14,5.84,19,15.92,19,10.51,0,18.1-6.72,18.1-21.17v-38.83Z" transform="translate(-142.17)" style="fill: #fff"/>
          <path d="M747.85,1682.81c-4.67,3.35-11.53,5-18.54,5-18.54,0-29.35-9.49-29.35-28.18v-32.26H687.84v-17.52H700v-19.13h22.78v19.13H742.3v17.52H722.74v32c0,6.72,3.65,10.37,9.78,10.37a15.4,15.4,0,0,0,9.2-2.92Z" transform="translate(-142.17)" style="fill: #fff"/>
          <path d="M796.17,1647.33c0-23.65,18.25-40.44,43.8-40.44,16.5,0,29.49,7.15,35.19,20l-17.67,9.49c-4.23-7.45-10.51-10.8-17.66-10.8-11.54,0-20.59,8-20.59,21.75s9,21.75,20.59,21.75c7.15,0,13.43-3.21,17.66-10.8l17.67,9.63c-5.7,12.56-18.69,19.86-35.19,19.86C814.42,1687.77,796.17,1671,796.17,1647.33Z" transform="translate(-142.17)" style="fill: #fff"/>
          <path d="M967.43,1608.06v78.54H945.82v-9.34c-6,6.86-14.74,10.51-24.38,10.51-19.71,0-33.58-11.1-33.58-35.33v-44.38h22.78v41c0,13.14,5.84,19,15.91,19,10.51,0,18.1-6.72,18.1-21.17v-38.83Z" transform="translate(-142.17)" style="fill: #fff"/>
          <path d="M1037.36,1606.89v21c-1.89-.15-3.36-.29-5.11-.29-12.55,0-20.87,6.86-20.87,21.9v37.08H988.6v-78.54h21.75v10.36C1015.9,1610.83,1025.25,1606.89,1037.36,1606.89Z" transform="translate(-142.17)" style="fill: #fff"/>
          <path d="M1099.71,1606.89v21c-1.9-.15-3.36-.29-5.12-.29-12.55,0-20.87,6.86-20.87,21.9v37.08h-22.78v-78.54h21.76v10.36C1078.24,1610.83,1087.59,1606.89,1099.71,1606.89Z" transform="translate(-142.17)" style="fill: #fff"/>
          <path d="M1189.06,1653.75h-59.42c2.19,9.78,10.51,15.77,22.48,15.77,8.32,0,14.31-2.48,19.71-7.59l12.12,13.14c-7.3,8.32-18.25,12.7-32.41,12.7-27.16,0-44.82-17.08-44.82-40.44s18-40.44,41.9-40.44c23.06,0,40.88,15.47,40.88,40.73C1189.5,1649.37,1189.2,1651.85,1189.06,1653.75Zm-59.71-13.28H1168c-1.61-9.93-9.06-16.35-19.28-16.35S1131,1630.39,1129.35,1640.47Z" transform="translate(-142.17)" style="fill: #fff"/>
          <path d="M1285,1641.63v45h-22.77v-41.46c0-12.7-5.84-18.54-15.92-18.54-11,0-18.83,6.71-18.83,21.17v38.83h-22.78v-78.54h21.76v9.19c6.13-6.71,15.33-10.36,26-10.36C1271,1606.89,1285,1617.69,1285,1641.63Z" transform="translate(-142.17)" style="fill: #fff"/>
          <path d="M1356.23,1682.81c-4.67,3.35-11.54,5-18.54,5-18.54,0-29.35-9.49-29.35-28.18v-32.26h-12.12v-17.52h12.12v-19.13h22.78v19.13h19.56v17.52h-19.56v32c0,6.72,3.65,10.37,9.78,10.37a15.42,15.42,0,0,0,9.2-2.92Z" transform="translate(-142.17)" style="fill: #fff"/>
          <path d="M1479.89,1641.78v44.82h-21.32v-9.78c-4.23,7.15-12.41,11-23.94,11-18.4,0-29.35-10.22-29.35-23.8,0-13.87,9.79-23.5,33.73-23.5h18.1c0-9.79-5.84-15.48-18.1-15.48-8.32,0-16.94,2.77-22.63,7.3l-8.18-15.91c8.62-6.13,21.32-9.49,33.88-9.49C1466,1606.89,1479.89,1618,1479.89,1641.78Zm-22.78,20v-8h-15.62c-10.66,0-14,3.94-14,9.2,0,5.69,4.81,9.49,12.84,9.49C1447.92,1672.44,1454.48,1668.94,1457.11,1661.78Z" transform="translate(-142.17)" style="fill: #fff"/>
          <path d="M1580.77,1641.63v45H1558v-41.46c0-12.7-5.84-18.54-15.92-18.54-10.95,0-18.83,6.71-18.83,21.17v38.83h-22.78v-78.54h21.76v9.19c6.13-6.71,15.33-10.36,26-10.36C1566.76,1606.89,1580.77,1617.69,1580.77,1641.63Z" transform="translate(-142.17)" style="fill: #fff"/>
          <path d="M1682.24,1578.27V1686.6h-21.75v-9c-5.7,6.86-14,10.22-24.53,10.22-22.19,0-39.27-15.77-39.27-40.44s17.08-40.44,39.27-40.44c9.63,0,17.81,3.06,23.5,9.49v-38.11Zm-22.34,69.06c0-13.58-8.76-21.75-20-21.75-11.39,0-20.15,8.17-20.15,21.75s8.76,21.75,20.15,21.75C1651.14,1669.08,1659.9,1660.91,1659.9,1647.33Z" transform="translate(-142.17)" style="fill: #fff"/>
          <path d="M340.22,1759.6c0-7.15,5.7-12.7,14.16-12.7s14.16,5.26,14.16,12.27c0,7.59-5.69,13.14-14.16,13.14S340.22,1766.76,340.22,1759.6Zm2.78,23.66h22.77v78.54H343Z" transform="translate(-142.17)" style="fill: #fff"/>
          <path d="M519.65,1816.84v45H496.88v-41.46c0-12.7-5.7-18.54-14.9-18.54-10.22,0-17.37,6.57-17.37,20.58v39.42H441.83v-41.46c0-12.7-5.4-18.54-14.89-18.54-10.07,0-17.22,6.57-17.22,20.58v39.42H386.94v-78.54h21.75v9c5.84-6.72,14.6-10.22,24.68-10.22,10.95,0,20.29,4.23,25.84,12.85,6.28-8,16.5-12.85,28.32-12.85C506.22,1782.09,519.65,1792.89,519.65,1816.84Z" transform="translate(-142.17)" style="fill: #fff"/>
          <path d="M625.65,1822.53c0,24.67-17.08,40.44-39.13,40.44-9.78,0-17.81-3.07-23.65-9.49v36.65H540.09V1783.26h21.76v9c5.69-6.86,14.16-10.22,24.67-10.22C608.57,1782.09,625.65,1797.86,625.65,1822.53Zm-23.07,0c0-13.58-8.61-21.75-20-21.75s-20,8.17-20,21.75,8.61,21.75,20,21.75S602.58,1836.11,602.58,1822.53Z" transform="translate(-142.17)" style="fill: #fff"/>
          <path d="M635,1822.53c0-23.65,18.25-40.44,43.22-40.44s43.07,16.79,43.07,40.44S703.17,1863,678.21,1863,635,1846.18,635,1822.53Zm63.22,0c0-13.58-8.62-21.75-20-21.75s-20.15,8.17-20.15,21.75,8.76,21.75,20.15,21.75S698.21,1836.11,698.21,1822.53Z" transform="translate(-142.17)" style="fill: #fff"/>
          <path d="M785.22,1782.09v21c-1.89-.14-3.35-.29-5.11-.29-12.55,0-20.87,6.86-20.87,21.9v37.08H736.46v-78.54h21.76v10.36C763.76,1786,773.11,1782.09,785.22,1782.09Z" transform="translate(-142.17)" style="fill: #fff"/>
          <path d="M852.24,1858c-4.67,3.35-11.54,5-18.54,5-18.54,0-29.35-9.49-29.35-28.18v-32.26H792.23V1785h12.12v-19.13h22.78V1785h19.56v17.52H827.13v32c0,6.72,3.65,10.37,9.78,10.37a15.42,15.42,0,0,0,9.2-2.92Z" transform="translate(-142.17)" style="fill: #fff"/>
          <path d="M934.58,1817v44.82H913.27V1852c-4.24,7.15-12.41,11-23.95,11-18.39,0-29.34-10.22-29.34-23.8,0-13.87,9.78-23.5,33.72-23.5h18.11c0-9.78-5.84-15.48-18.11-15.48-8.32,0-16.93,2.78-22.63,7.3l-8.17-15.91c8.61-6.13,21.31-9.49,33.87-9.49C920.71,1782.09,934.58,1793.18,934.58,1817Zm-22.77,20v-8H896.18c-10.65,0-14,3.94-14,9.2,0,5.69,4.82,9.49,12.85,9.49C902.61,1847.64,909.18,1844.14,911.81,1837Z" transform="translate(-142.17)" style="fill: #fff"/>
          <path d="M1035.46,1816.84v45h-22.77v-41.46c0-12.7-5.84-18.54-15.91-18.54-10.95,0-18.84,6.71-18.84,21.17v38.83H955.17v-78.54h21.75v9.19c6.13-6.71,15.33-10.36,26-10.36C1021.45,1782.09,1035.46,1792.89,1035.46,1816.84Z" transform="translate(-142.17)" style="fill: #fff"/>
          <path d="M1106.71,1858c-4.67,3.35-11.53,5-18.54,5-18.54,0-29.34-9.49-29.34-28.18v-32.26h-12.12V1785h12.12v-19.13h22.77V1785h19.57v17.52H1081.6v32c0,6.72,3.65,10.37,9.78,10.37a15.4,15.4,0,0,0,9.2-2.92Z" transform="translate(-142.17)" style="fill: #fff"/>
          <path d="M1237.38,1829H1178c2.19,9.78,10.51,15.77,22.48,15.77,8.32,0,14.31-2.48,19.71-7.59l12.12,13.14c-7.3,8.32-18.25,12.7-32.41,12.7-27.16,0-44.82-17.08-44.82-40.44s18-40.44,41.9-40.44c23.07,0,40.88,15.47,40.88,40.73C1237.82,1824.57,1237.53,1827.05,1237.38,1829Zm-59.71-13.28h38.69c-1.61-9.93-9.06-16.35-19.28-16.35S1179.27,1805.59,1177.67,1815.67Z" transform="translate(-142.17)" style="fill: #fff"/>
          <path d="M1329.51,1783.26l-33.14,78.54h-23.51l-33-78.54h23.5l21.75,53.43,22.49-53.43Z" transform="translate(-142.17)" style="fill: #fff"/>
          <path d="M1413.16,1829h-59.42c2.19,9.78,10.51,15.77,22.49,15.77,8.32,0,14.3-2.48,19.71-7.59l12.11,13.14c-7.3,8.32-18.25,12.7-32.41,12.7-27.15,0-44.82-17.08-44.82-40.44s18-40.44,41.9-40.44c23.07,0,40.88,15.47,40.88,40.73C1413.6,1824.57,1413.31,1827.05,1413.16,1829Zm-59.71-13.28h38.69c-1.61-9.93-9.05-16.35-19.27-16.35S1355.06,1805.59,1353.45,1815.67Z" transform="translate(-142.17)" style="fill: #fff"/>
          <path d="M1509.09,1816.84v45h-22.78v-41.46c0-12.7-5.84-18.54-15.91-18.54-11,0-18.84,6.71-18.84,21.17v38.83h-22.77v-78.54h21.75v9.19c6.13-6.71,15.33-10.36,26-10.36C1495.07,1782.09,1509.09,1792.89,1509.09,1816.84Z" transform="translate(-142.17)" style="fill: #fff"/>
          <path d="M1580.33,1858c-4.67,3.35-11.53,5-18.54,5-18.54,0-29.34-9.49-29.34-28.18v-32.26h-12.12V1785h12.12v-19.13h22.77V1785h19.57v17.52h-19.57v32c0,6.72,3.65,10.37,9.78,10.37a15.4,15.4,0,0,0,9.2-2.92Z" transform="translate(-142.17)" style="fill: #fff"/>
          <path d="M1585.59,1854.5l7.59-16.35c7,4.53,17.67,7.59,27.3,7.59,10.52,0,14.46-2.77,14.46-7.15,0-12.85-47.45.29-47.45-31.1,0-14.89,13.43-25.4,36.35-25.4,10.81,0,22.78,2.48,30.22,6.86l-7.59,16.21a45.1,45.1,0,0,0-22.63-5.84c-10.22,0-14.6,3.21-14.6,7.3,0,13.43,47.45.43,47.45,31.39,0,14.59-13.58,25-37.08,25C1606.32,1863,1592.89,1859.32,1585.59,1854.5Z" transform="translate(-142.17)" style="fill: #fff"/>
        </g>
      </g>
    </g>
  </g>
</svg>
