<svg xmlns="http://www.w3.org/2000/svg" width="155.48" height="163.25" viewBox="0 0 155.48 163.25">
  <title>NEWSICON</title>
  <g id="Layer_2" data-name="Layer 2">
    <g id="Layer_1-2" data-name="Layer 1">
      <g>
        <g style="opacity: 0.20000000298023224">
          <path d="M155.48,147.7a15.6,15.6,0,0,1-15.55,15.55H15.55A15.6,15.6,0,0,1,0,147.7V38.87A15.6,15.6,0,0,1,15.55,23.32H139.93a15.6,15.6,0,0,1,15.55,15.55Z" style="fill: #231f20"/>
        </g>
        <path d="M155.48,139.93a15.6,15.6,0,0,1-15.55,15.55H15.55A15.6,15.6,0,0,1,0,139.93V31.1A15.59,15.59,0,0,1,15.55,15.55H139.93A15.59,15.59,0,0,1,155.48,31.1Z" style="fill: #fff"/>
        <g style="opacity: 0.20000000298023224">
          <path d="M155.48,132.15a15.59,15.59,0,0,1-15.55,15.55H15.55A15.59,15.59,0,0,1,0,132.15V23.32A15.6,15.6,0,0,1,15.55,7.77H139.93a15.6,15.6,0,0,1,15.55,15.55Z" style="fill: #231f20"/>
        </g>
        <path d="M155.48,124.38a15.6,15.6,0,0,1-15.55,15.55H15.55A15.6,15.6,0,0,1,0,124.38V15.55A15.6,15.6,0,0,1,15.55,0H139.93a15.6,15.6,0,0,1,15.55,15.55Z" style="fill: #fff"/>
        <rect x="15.55" y="46.64" width="46.64" height="46.64" style="fill: #4f5d73"/>
        <rect x="93.29" y="58.3" width="46.64" height="3.89" style="fill: #4f5d73"/>
        <rect x="93.29" y="50.53" width="46.64" height="3.89" style="fill: #4f5d73"/>
        <rect x="77.74" y="46.64" width="11.66" height="15.55" style="fill: #4f5d73"/>
        <rect x="77.74" y="69.96" width="62.19" height="3.89" style="fill: #4f5d73"/>
        <rect x="77.74" y="77.74" width="62.19" height="3.89" style="fill: #4f5d73"/>
        <rect x="77.74" y="85.51" width="62.19" height="3.89" style="fill: #4f5d73"/>
        <rect x="77.74" y="93.29" width="62.19" height="3.89" style="fill: #4f5d73"/>
        <rect x="92.9" y="104.95" width="47.03" height="3.89" style="fill: #4f5d73"/>
        <rect x="15.55" y="104.95" width="46.64" height="3.89" style="fill: #4f5d73"/>
        <rect x="15.55" y="112.72" width="46.64" height="3.89" style="fill: #4f5d73"/>
        <rect x="15.55" y="120.49" width="46.64" height="3.89" style="fill: #4f5d73"/>
        <rect x="15.55" y="128.27" width="46.64" height="3.89" style="fill: #4f5d73"/>
        <rect x="77.74" y="112.72" width="62.19" height="3.89" style="fill: #4f5d73"/>
        <rect x="77.74" y="120.49" width="62.19" height="3.89" style="fill: #4f5d73"/>
        <rect x="77.74" y="128.27" width="62.19" height="3.89" style="fill: #4f5d73"/>
        <circle cx="46.64" cy="62.19" r="7.77" style="fill: #fff"/>
        <rect x="15.55" y="15.55" width="124.38" height="15.55" style="fill: #4f5d73"/>
        <path d="M58.3,89.4V80.07L55.19,77a4.93,4.93,0,0,0-7,0l-3.11,3.11L37.7,72.69a9.38,9.38,0,0,0-13.6,0l-4.67,4.66V89.4Z" style="fill: #fff"/>
      </g>
    </g>
  </g>
</svg>
