<svg xmlns="http://www.w3.org/2000/svg" width="197.72" height="147.77" viewBox="0 0 197.72 147.77">
  <title>PAPERBACKICON</title>
  <g id="Layer_2" data-name="Layer 2">
    <g id="Layer_1-2" data-name="Layer 1">
      <g>
        <path d="M99.81,134c-7.27-3-32.3-12.52-57.37-12.52-9.91,0-18.69,1.52-26.16,4.53V10.56A101.5,101.5,0,0,1,47.17,5.67c19.25,0,35.8,5.82,49.3,17.17v68.9l3.34-3.67Z" style="fill: #fff"/>
        <path d="M185.22,126a73.31,73.31,0,0,0-27.46-4.85c-25,0-48.9,9.6-56.08,12.75V88.06L105,91.74V22.84c13.5-11.35,30-17.17,49.3-17.17a102.21,102.21,0,0,1,30.89,4.89Z" style="fill: #fff"/>
        <g>
          <path d="M189.9,19.08V6.63l-1.8-.7A103.14,103.14,0,0,0,153.33,0C132.41,0,114.4,6.37,99.75,18.94,85.09,6.37,67.08,0,46.17,0A102.94,102.94,0,0,0,11.4,5.93l-1.81.7V18.17C3.68,19.27,0,21.25,0,24.48V143.35H87.56a19.63,19.63,0,0,0,24.82,0h85.34V24.48C197.71,21.85,194.73,20.14,189.9,19.08ZM98.8,134c-7.27-3-32.3-12.52-57.37-12.52-9.91,0-18.69,1.52-26.16,4.53V10.56A101.5,101.5,0,0,1,46.16,5.67c19.25,0,35.8,5.82,49.31,17.17v68.9l3.33-3.67Zm85.41-8a73.29,73.29,0,0,0-27.45-4.85c-25.06,0-48.91,9.6-56.09,12.75V88.06L104,91.74V22.84c13.5-11.35,30.05-17.17,49.3-17.17a102.21,102.21,0,0,1,30.89,4.89Z" style="fill: #4f5d73"/>
          <path d="M26.5,25.74l1.17,4.45C57.24,22.34,83.84,36.86,84.11,37l2.23-4C85.2,32.35,57.88,17.42,26.5,25.74Z" style="fill: #4f5d73"/>
          <path d="M26.5,38.75l1.17,4.44C57.24,35.35,83.84,49.86,84.11,50l2.23-4C85.2,45.35,57.88,30.43,26.5,38.75Z" style="fill: #4f5d73"/>
          <path d="M26.5,51l1.17,4.44c29.57-7.83,56.17,6.68,56.44,6.82l2.23-4C85.2,57.58,57.88,42.66,26.5,51Z" style="fill: #4f5d73"/>
          <path d="M26.5,64.37l1.17,4.44C57.24,61,83.84,75.48,84.11,75.63l2.23-4C85.2,71,57.88,56,26.5,64.37Z" style="fill: #4f5d73"/>
          <path d="M26.5,76.78l1.17,4.44c29.57-7.83,56.17,6.67,56.44,6.83l2.23-4C85.2,83.4,57.88,68.47,26.5,76.78Z" style="fill: #4f5d73"/>
          <path d="M26.5,89.53,27.67,94c29.57-7.84,56.17,6.67,56.44,6.81l2.23-4C85.2,96.13,57.88,81.22,26.5,89.53Z" style="fill: #4f5d73"/>
          <path d="M26.5,102.32l1.17,4.43c29.57-7.84,56.17,6.67,56.44,6.82l2.23-4C85.2,108.92,57.88,94,26.5,102.32Z" style="fill: #4f5d73"/>
          <path d="M116.74,37.34c.27-.14,26.86-14.65,56.42-6.81l1.18-4.45c-31.39-8.31-58.7,6.62-59.83,7.25Z" style="fill: #4f5d73"/>
          <path d="M114.51,46.34l2.23,4c.27-.14,26.86-14.66,56.42-6.81l1.18-4.45C143,30.77,115.64,45.69,114.51,46.34Z" style="fill: #4f5d73"/>
          <path d="M114.51,58.56l2.23,4c.27-.15,26.86-14.66,56.42-6.82l1.18-4.44C143,43,115.64,57.92,114.51,58.56Z" style="fill: #4f5d73"/>
          <path d="M114.51,72l2.23,4c.27-.15,26.86-14.65,56.42-6.81l1.18-4.45C143,56.38,115.64,71.31,114.51,72Z" style="fill: #4f5d73"/>
          <path d="M114.51,84.37l2.23,4c.27-.14,26.86-14.66,56.42-6.82l1.18-4.45C143,68.81,115.64,83.73,114.51,84.37Z" style="fill: #4f5d73"/>
          <path d="M114.51,97.12l2.23,4c.27-.15,26.86-14.66,56.42-6.81l1.18-4.45C143,81.55,115.64,96.48,114.51,97.12Z" style="fill: #4f5d73"/>
          <path d="M114.51,109.9l2.23,4c.27-.13,26.86-14.66,56.42-6.81l1.18-4.44C143,94.33,115.64,109.26,114.51,109.9Z" style="fill: #4f5d73"/>
        </g>
      </g>
    </g>
  </g>
</svg>
